<?xml version="1.0" encoding="UTF-8" standalone="no"?>
<!DOCTYPE svg PUBLIC "-//W3C//DTD SVG 1.1//EN" "http://www.w3.org/Graphics/SVG/1.1/DTD/svg11.dtd">
<svg width="100%" height="100%" viewBox="0 0 1156 927" version="1.1" xmlns="http://www.w3.org/2000/svg" xmlns:xlink="http://www.w3.org/1999/xlink" xml:space="preserve" xmlns:serif="http://www.serif.com/" style="fill-rule:evenodd;clip-rule:evenodd;stroke-linejoin:bevel;">
    <g transform="matrix(1,0,0,1,-140.732,-607.485)">
        <g transform="matrix(1,0,0,1,0,-142.646)">
            <path d="M141.732,791.733L450.463,791.733" style="fill:none;fill-rule:nonzero;stroke:black;stroke-width:2px;"/>
        </g>
        <g transform="matrix(1,0,0,1,0,-142.646)">
            <path d="M141.732,816.733L450.463,816.733" style="fill:none;fill-rule:nonzero;stroke:black;stroke-width:2px;"/>
        </g>
        <g transform="matrix(1,0,0,1,0,-142.646)">
            <path d="M141.732,841.733L450.463,841.733" style="fill:none;fill-rule:nonzero;stroke:black;stroke-width:2px;"/>
        </g>
        <g transform="matrix(1,0,0,1,0,-142.646)">
            <path d="M141.732,866.733L450.463,866.733" style="fill:none;fill-rule:nonzero;stroke:black;stroke-width:2px;"/>
        </g>
        <g transform="matrix(1,0,0,1,0,-142.646)">
            <path d="M141.732,891.733L450.463,891.733" style="fill:none;fill-rule:nonzero;stroke:black;stroke-width:2px;"/>
        </g>
        <g transform="matrix(1,0,0,1,0,-142.646)">
            <path d="M450.463,791.733L650.28,791.733" style="fill:none;fill-rule:nonzero;stroke:black;stroke-width:2px;"/>
        </g>
        <g transform="matrix(1,0,0,1,0,-142.646)">
            <path d="M450.463,816.733L650.28,816.733" style="fill:none;fill-rule:nonzero;stroke:black;stroke-width:2px;"/>
        </g>
        <g transform="matrix(1,0,0,1,0,-142.646)">
            <path d="M450.463,841.733L650.28,841.733" style="fill:none;fill-rule:nonzero;stroke:black;stroke-width:2px;"/>
        </g>
        <g transform="matrix(1,0,0,1,0,-142.646)">
            <path d="M450.463,866.733L650.28,866.733" style="fill:none;fill-rule:nonzero;stroke:black;stroke-width:2px;"/>
        </g>
        <g transform="matrix(1,0,0,1,0,-142.646)">
            <path d="M450.463,891.733L650.28,891.733" style="fill:none;fill-rule:nonzero;stroke:black;stroke-width:2px;"/>
        </g>
        <g transform="matrix(1,0,0,1,0,-142.646)">
            <path d="M650.28,791.733L862.4,791.733" style="fill:none;fill-rule:nonzero;stroke:black;stroke-width:2px;"/>
        </g>
        <g transform="matrix(1,0,0,1,0,-142.646)">
            <path d="M650.28,816.733L862.4,816.733" style="fill:none;fill-rule:nonzero;stroke:black;stroke-width:2px;"/>
        </g>
        <g transform="matrix(1,0,0,1,0,-142.646)">
            <path d="M650.28,841.733L862.4,841.733" style="fill:none;fill-rule:nonzero;stroke:black;stroke-width:2px;"/>
        </g>
        <g transform="matrix(1,0,0,1,0,-142.646)">
            <path d="M650.28,866.733L862.4,866.733" style="fill:none;fill-rule:nonzero;stroke:black;stroke-width:2px;"/>
        </g>
        <g transform="matrix(1,0,0,1,0,-142.646)">
            <path d="M650.28,891.733L862.4,891.733" style="fill:none;fill-rule:nonzero;stroke:black;stroke-width:2px;"/>
        </g>
        <g transform="matrix(1,0,0,1,0,-142.646)">
            <path d="M862.4,791.733L1074.52,791.733" style="fill:none;fill-rule:nonzero;stroke:black;stroke-width:2px;"/>
        </g>
        <g transform="matrix(1,0,0,1,0,-142.646)">
            <path d="M862.4,816.733L1074.52,816.733" style="fill:none;fill-rule:nonzero;stroke:black;stroke-width:2px;"/>
        </g>
        <g transform="matrix(1,0,0,1,0,-142.646)">
            <path d="M862.4,841.733L1074.52,841.733" style="fill:none;fill-rule:nonzero;stroke:black;stroke-width:2px;"/>
        </g>
        <g transform="matrix(1,0,0,1,0,-142.646)">
            <path d="M862.4,866.733L1074.52,866.733" style="fill:none;fill-rule:nonzero;stroke:black;stroke-width:2px;"/>
        </g>
        <g transform="matrix(1,0,0,1,0,-142.646)">
            <path d="M862.4,891.733L1074.52,891.733" style="fill:none;fill-rule:nonzero;stroke:black;stroke-width:2px;"/>
        </g>
        <g transform="matrix(1,0,0,1,0,-142.646)">
            <path d="M1074.52,791.733L1275.15,791.733" style="fill:none;fill-rule:nonzero;stroke:black;stroke-width:2px;"/>
        </g>
        <g transform="matrix(1,0,0,1,0,-142.646)">
            <path d="M1074.52,816.733L1275.15,816.733" style="fill:none;fill-rule:nonzero;stroke:black;stroke-width:2px;"/>
        </g>
        <g transform="matrix(1,0,0,1,0,-142.646)">
            <path d="M1074.52,841.733L1275.15,841.733" style="fill:none;fill-rule:nonzero;stroke:black;stroke-width:2px;"/>
        </g>
        <g transform="matrix(1,0,0,1,0,-142.646)">
            <path d="M1074.52,866.733L1275.15,866.733" style="fill:none;fill-rule:nonzero;stroke:black;stroke-width:2px;"/>
        </g>
        <g transform="matrix(1,0,0,1,0,-142.646)">
            <path d="M1074.52,891.733L1275.15,891.733" style="fill:none;fill-rule:nonzero;stroke:black;stroke-width:2px;"/>
        </g>
        <g transform="matrix(1,0,0,1,-1760.81,336.936)">
            <path d="M1902.54,791.733L2211.27,791.733" style="fill:none;fill-rule:nonzero;stroke:black;stroke-width:2px;"/>
        </g>
        <g transform="matrix(1,0,0,1,-1760.81,336.936)">
            <path d="M1902.54,816.733L2211.27,816.733" style="fill:none;fill-rule:nonzero;stroke:black;stroke-width:2px;"/>
        </g>
        <g transform="matrix(1,0,0,1,-1760.81,336.936)">
            <path d="M1902.54,841.733L2211.27,841.733" style="fill:none;fill-rule:nonzero;stroke:black;stroke-width:2px;"/>
        </g>
        <g transform="matrix(1,0,0,1,-1760.81,336.936)">
            <path d="M1902.54,866.733L2211.27,866.733" style="fill:none;fill-rule:nonzero;stroke:black;stroke-width:2px;"/>
        </g>
        <g transform="matrix(1,0,0,1,-1760.81,336.936)">
            <path d="M1902.54,891.733L2211.27,891.733" style="fill:none;fill-rule:nonzero;stroke:black;stroke-width:2px;"/>
        </g>
        <g transform="matrix(1,0,0,1,-1760.81,336.936)">
            <path d="M2211.27,791.733L2438.34,791.733" style="fill:none;fill-rule:nonzero;stroke:black;stroke-width:2px;"/>
        </g>
        <g transform="matrix(1,0,0,1,-1760.81,336.936)">
            <path d="M2211.27,816.733L2438.34,816.733" style="fill:none;fill-rule:nonzero;stroke:black;stroke-width:2px;"/>
        </g>
        <g transform="matrix(1,0,0,1,-1760.81,336.936)">
            <path d="M2211.27,841.733L2438.34,841.733" style="fill:none;fill-rule:nonzero;stroke:black;stroke-width:2px;"/>
        </g>
        <g transform="matrix(1,0,0,1,-1760.81,336.936)">
            <path d="M2211.27,866.733L2438.34,866.733" style="fill:none;fill-rule:nonzero;stroke:black;stroke-width:2px;"/>
        </g>
        <g transform="matrix(1,0,0,1,-1760.81,336.936)">
            <path d="M2211.27,891.733L2438.34,891.733" style="fill:none;fill-rule:nonzero;stroke:black;stroke-width:2px;"/>
        </g>
        <g transform="matrix(1,0,0,1,-1760.81,336.936)">
            <path d="M2438.34,791.733L2705.22,791.733" style="fill:none;fill-rule:nonzero;stroke:black;stroke-width:2px;"/>
        </g>
        <g transform="matrix(1,0,0,1,-1760.81,336.936)">
            <path d="M2438.34,816.733L2705.22,816.733" style="fill:none;fill-rule:nonzero;stroke:black;stroke-width:2px;"/>
        </g>
        <g transform="matrix(1,0,0,1,-1760.81,336.936)">
            <path d="M2438.34,841.733L2705.22,841.733" style="fill:none;fill-rule:nonzero;stroke:black;stroke-width:2px;"/>
        </g>
        <g transform="matrix(1,0,0,1,-1760.81,336.936)">
            <path d="M2438.34,866.733L2705.22,866.733" style="fill:none;fill-rule:nonzero;stroke:black;stroke-width:2px;"/>
        </g>
        <g transform="matrix(1,0,0,1,-1760.81,336.936)">
            <path d="M2438.34,891.733L2705.22,891.733" style="fill:none;fill-rule:nonzero;stroke:black;stroke-width:2px;"/>
        </g>
        <g transform="matrix(1,0,0,1,-1760.81,336.936)">
            <path d="M2705.22,791.733L2918.27,791.733" style="fill:none;fill-rule:nonzero;stroke:black;stroke-width:2px;"/>
        </g>
        <g transform="matrix(1,0,0,1,-1760.81,336.936)">
            <path d="M2705.22,816.733L2918.27,816.733" style="fill:none;fill-rule:nonzero;stroke:black;stroke-width:2px;"/>
        </g>
        <g transform="matrix(1,0,0,1,-1760.81,336.936)">
            <path d="M2705.22,841.733L2918.27,841.733" style="fill:none;fill-rule:nonzero;stroke:black;stroke-width:2px;"/>
        </g>
        <g transform="matrix(1,0,0,1,-1760.81,336.936)">
            <path d="M2705.22,866.733L2918.27,866.733" style="fill:none;fill-rule:nonzero;stroke:black;stroke-width:2px;"/>
        </g>
        <g transform="matrix(1,0,0,1,-1760.81,336.936)">
            <path d="M2705.22,891.733L2918.27,891.733" style="fill:none;fill-rule:nonzero;stroke:black;stroke-width:2px;"/>
        </g>
        <g transform="matrix(1,0,0,1,0,-388.615)">
            <path d="M141.732,1266.73L614.632,1266.73" style="fill:none;fill-rule:nonzero;stroke:black;stroke-width:2px;"/>
        </g>
        <g transform="matrix(1,0,0,1,0,-388.615)">
            <path d="M141.732,1291.73L614.632,1291.73" style="fill:none;fill-rule:nonzero;stroke:black;stroke-width:2px;"/>
        </g>
        <g transform="matrix(1,0,0,1,0,-388.615)">
            <path d="M141.732,1316.73L614.632,1316.73" style="fill:none;fill-rule:nonzero;stroke:black;stroke-width:2px;"/>
        </g>
        <g transform="matrix(1,0,0,1,0,-388.615)">
            <path d="M141.732,1341.73L614.632,1341.73" style="fill:none;fill-rule:nonzero;stroke:black;stroke-width:2px;"/>
        </g>
        <g transform="matrix(1,0,0,1,0,-388.615)">
            <path d="M141.732,1366.73L614.632,1366.73" style="fill:none;fill-rule:nonzero;stroke:black;stroke-width:2px;"/>
        </g>
        <g transform="matrix(1,0,0,1,0,-388.615)">
            <path d="M614.632,1266.73L1024.74,1266.73" style="fill:none;fill-rule:nonzero;stroke:black;stroke-width:2px;"/>
        </g>
        <g transform="matrix(1,0,0,1,0,-388.615)">
            <path d="M614.632,1291.73L1024.74,1291.73" style="fill:none;fill-rule:nonzero;stroke:black;stroke-width:2px;"/>
        </g>
        <g transform="matrix(1,0,0,1,0,-388.615)">
            <path d="M614.632,1316.73L1024.74,1316.73" style="fill:none;fill-rule:nonzero;stroke:black;stroke-width:2px;"/>
        </g>
        <g transform="matrix(1,0,0,1,0,-388.615)">
            <path d="M614.632,1341.73L1024.74,1341.73" style="fill:none;fill-rule:nonzero;stroke:black;stroke-width:2px;"/>
        </g>
        <g transform="matrix(1,0,0,1,0,-388.615)">
            <path d="M614.632,1366.73L1024.74,1366.73" style="fill:none;fill-rule:nonzero;stroke:black;stroke-width:2px;"/>
        </g>
        <g transform="matrix(1,0,0,1,0,-388.615)">
            <path d="M1024.74,1266.73L1295.24,1266.73" style="fill:none;fill-rule:nonzero;stroke:black;stroke-width:2px;"/>
        </g>
        <g transform="matrix(1,0,0,1,0,-388.615)">
            <path d="M1024.74,1291.73L1295.24,1291.73" style="fill:none;fill-rule:nonzero;stroke:black;stroke-width:2px;"/>
        </g>
        <g transform="matrix(1,0,0,1,0,-388.615)">
            <path d="M1024.74,1316.73L1295.24,1316.73" style="fill:none;fill-rule:nonzero;stroke:black;stroke-width:2px;"/>
        </g>
        <g transform="matrix(1,0,0,1,0,-388.615)">
            <path d="M1024.74,1341.73L1295.24,1341.73" style="fill:none;fill-rule:nonzero;stroke:black;stroke-width:2px;"/>
        </g>
        <g transform="matrix(1,0,0,1,0,-388.615)">
            <path d="M1024.74,1366.73L1295.24,1366.73" style="fill:none;fill-rule:nonzero;stroke:black;stroke-width:2px;"/>
        </g>
        <g transform="matrix(1,0,0,1,-1745.35,130.112)">
            <path d="M1887.08,1266.73L2316.23,1266.73" style="fill:none;fill-rule:nonzero;stroke:black;stroke-width:2px;"/>
        </g>
        <g transform="matrix(1,0,0,1,-1745.35,130.112)">
            <path d="M1887.08,1291.73L2316.23,1291.73" style="fill:none;fill-rule:nonzero;stroke:black;stroke-width:2px;"/>
        </g>
        <g transform="matrix(1,0,0,1,-1745.35,130.112)">
            <path d="M1887.08,1316.73L2316.23,1316.73" style="fill:none;fill-rule:nonzero;stroke:black;stroke-width:2px;"/>
        </g>
        <g transform="matrix(1,0,0,1,-1745.35,130.112)">
            <path d="M1887.08,1341.73L2316.23,1341.73" style="fill:none;fill-rule:nonzero;stroke:black;stroke-width:2px;"/>
        </g>
        <g transform="matrix(1,0,0,1,-1745.35,130.112)">
            <path d="M1887.08,1366.73L2316.23,1366.73" style="fill:none;fill-rule:nonzero;stroke:black;stroke-width:2px;"/>
        </g>
        <g transform="matrix(1,0,0,1,-1745.35,130.112)">
            <path d="M2316.23,1266.73L2686.53,1266.73" style="fill:none;fill-rule:nonzero;stroke:black;stroke-width:2px;"/>
        </g>
        <g transform="matrix(1,0,0,1,-1745.35,130.112)">
            <path d="M2316.23,1291.73L2686.53,1291.73" style="fill:none;fill-rule:nonzero;stroke:black;stroke-width:2px;"/>
        </g>
        <g transform="matrix(1,0,0,1,-1745.35,130.112)">
            <path d="M2316.23,1316.73L2686.53,1316.73" style="fill:none;fill-rule:nonzero;stroke:black;stroke-width:2px;"/>
        </g>
        <g transform="matrix(1,0,0,1,-1745.35,130.112)">
            <path d="M2316.23,1341.73L2686.53,1341.73" style="fill:none;fill-rule:nonzero;stroke:black;stroke-width:2px;"/>
        </g>
        <g transform="matrix(1,0,0,1,-1745.35,130.112)">
            <path d="M2316.23,1366.73L2686.53,1366.73" style="fill:none;fill-rule:nonzero;stroke:black;stroke-width:2px;"/>
        </g>
        <g transform="matrix(1,0,0,1,-1745.35,130.112)">
            <path d="M2686.53,1266.73L2918.27,1266.73" style="fill:none;fill-rule:nonzero;stroke:black;stroke-width:2px;"/>
        </g>
        <g transform="matrix(1,0,0,1,-1745.35,130.112)">
            <path d="M2686.53,1291.73L2918.27,1291.73" style="fill:none;fill-rule:nonzero;stroke:black;stroke-width:2px;"/>
        </g>
        <g transform="matrix(1,0,0,1,-1745.35,130.112)">
            <path d="M2686.53,1316.73L2918.27,1316.73" style="fill:none;fill-rule:nonzero;stroke:black;stroke-width:2px;"/>
        </g>
        <g transform="matrix(1,0,0,1,-1745.35,130.112)">
            <path d="M2686.53,1341.73L2918.27,1341.73" style="fill:none;fill-rule:nonzero;stroke:black;stroke-width:2px;"/>
        </g>
        <g transform="matrix(1,0,0,1,-1745.35,130.112)">
            <path d="M2686.53,1366.73L2918.27,1366.73" style="fill:none;fill-rule:nonzero;stroke:black;stroke-width:2px;"/>
        </g>
        <g transform="matrix(1,0,0,1,0,-142.646)">
            <path d="M789.407,785.483C811.617,766.604 878.245,766.604 900.454,785.483C878.245,770.604 811.617,770.604 789.407,785.483" style="stroke:black;stroke-width:1.75px;stroke-linecap:round;stroke-linejoin:round;"/>
        </g>
        <g transform="matrix(1,0,0,1,0,-142.646)">
            <path d="M789.407,785.483C811.617,766.604 878.245,766.604 900.454,785.483C878.245,770.604 811.617,770.604 789.407,785.483" style="stroke:black;stroke-width:1.75px;stroke-linecap:round;stroke-linejoin:round;"/>
        </g>
        <g transform="matrix(1,0,0,1,0,-142.646)">
            <path d="M448.463,790.733L448.463,892.733" style="fill:none;fill-rule:nonzero;stroke:black;stroke-width:4px;"/>
        </g>
        <g transform="matrix(1,0,0,1,0,-142.646)">
            <path d="M648.28,790.733L648.28,892.733" style="fill:none;fill-rule:nonzero;stroke:black;stroke-width:4px;"/>
        </g>
        <g transform="matrix(1,0,0,1,0,-142.646)">
            <path d="M860.4,790.733L860.4,892.733" style="fill:none;fill-rule:nonzero;stroke:black;stroke-width:4px;"/>
        </g>
        <g transform="matrix(1,0,0,1,0,-142.646)">
            <path d="M1072.52,790.733L1072.52,892.733" style="fill:none;fill-rule:nonzero;stroke:black;stroke-width:4px;"/>
        </g>
        <g transform="matrix(1,0,0,1,0,-142.646)">
            <path d="M1259.15,790.733L1259.15,892.733" style="fill:none;fill-rule:nonzero;stroke:black;stroke-width:4px;"/>
        </g>
        <g transform="matrix(1,0,0,1,0,-142.646)">
            <path d="M1273.15,790.733L1273.15,892.733" style="fill:none;fill-rule:nonzero;stroke:black;stroke-width:4px;"/>
        </g>
        <g transform="matrix(1,0,0,1,-1760.81,336.936)">
            <path d="M2209.27,790.733L2209.27,892.733" style="fill:none;fill-rule:nonzero;stroke:black;stroke-width:4px;"/>
        </g>
        <g transform="matrix(1,0,0,1,-1760.81,336.936)">
            <path d="M2436.34,790.733L2436.34,892.733" style="fill:none;fill-rule:nonzero;stroke:black;stroke-width:4px;"/>
        </g>
        <g transform="matrix(1,0,0,1,-1760.81,336.936)">
            <path d="M2703.22,790.733L2703.22,892.733" style="fill:none;fill-rule:nonzero;stroke:black;stroke-width:4px;"/>
        </g>
        <g transform="matrix(1,0,0,1,-1760.81,336.936)">
            <path d="M2902.27,790.733L2902.27,892.733" style="fill:none;fill-rule:nonzero;stroke:black;stroke-width:4px;"/>
        </g>
        <g transform="matrix(1,0,0,1,-1745.35,604.109)">
            <path d="M2902.27,790.733L2902.27,892.733" style="fill:none;fill-rule:nonzero;stroke:black;stroke-width:4px;"/>
        </g>
        <g transform="matrix(1,0,0,1,-1760.81,336.936)">
            <path d="M2916.27,790.733L2916.27,892.733" style="fill:none;fill-rule:nonzero;stroke:black;stroke-width:4px;"/>
        </g>
        <g transform="matrix(1,0,0,1,0,-388.615)">
            <path d="M612.632,1265.73L612.632,1367.73" style="fill:none;fill-rule:nonzero;stroke:black;stroke-width:4px;"/>
        </g>
        <g transform="matrix(1,0,0,1,0,-388.615)">
            <path d="M1022.74,1265.73L1022.74,1367.73" style="fill:none;fill-rule:nonzero;stroke:black;stroke-width:4px;"/>
        </g>
        <g transform="matrix(1,0,0,1,0,-388.615)">
            <path d="M1279.24,1265.73L1279.24,1367.73" style="fill:none;fill-rule:nonzero;stroke:black;stroke-width:4px;"/>
        </g>
        <g transform="matrix(1,0,0,1,0,-388.615)">
            <path d="M1293.24,1265.73L1293.24,1367.73" style="fill:none;fill-rule:nonzero;stroke:black;stroke-width:4px;"/>
        </g>
        <g transform="matrix(1,0,0,1,-1745.35,130.112)">
            <path d="M2314.23,1265.73L2314.23,1367.73" style="fill:none;fill-rule:nonzero;stroke:black;stroke-width:4px;"/>
        </g>
        <g transform="matrix(1,0,0,1,-1745.35,130.112)">
            <path d="M2684.53,1265.73L2684.53,1367.73" style="fill:none;fill-rule:nonzero;stroke:black;stroke-width:4px;"/>
        </g>
        <g transform="matrix(1,0,0,1,-1745.35,130.112)">
            <path d="M2916.27,1265.73L2916.27,1367.73" style="fill:none;fill-rule:nonzero;stroke:black;stroke-width:4px;"/>
        </g>
        <g transform="matrix(1,0,0,1,-1760.81,336.936)">
            <path d="M2227.96,887.631L2227.96,895.346C2227.96,898.08 2228.09,900.261 2228.35,901.889C2230.5,900.066 2232.03,898.699 2232.94,897.787C2233.98,896.746 2235.02,895.313 2236.06,893.491C2237.1,891.668 2237.63,889.845 2237.63,888.022C2237.63,886.199 2237.23,884.636 2236.45,883.334C2235.67,882.032 2234.63,881.381 2233.33,881.381C2231.77,881.381 2230.46,881.967 2229.42,883.139C2228.45,884.441 2227.96,885.938 2227.96,887.631M2223.86,905.502L2222.59,846.03C2223.5,845.509 2224.41,845.248 2225.32,845.248C2226.23,845.248 2227.14,845.509 2228.06,846.03L2227.27,880.502C2229.94,878.224 2233,877.084 2236.45,877.084C2238.99,877.084 2241.11,878.126 2242.8,880.209C2244.49,882.293 2245.34,884.669 2245.34,887.338C2245.34,889.031 2244.79,890.821 2243.68,892.709C2242.64,894.467 2241.53,895.834 2240.36,896.811C2239.71,897.332 2238.05,898.634 2235.38,900.717C2234.6,901.303 2233.67,901.987 2232.6,902.768C2231.52,903.549 2230.85,904.037 2230.59,904.233C2230.14,904.493 2229.72,905.014 2229.32,905.795C2228.87,906.446 2228.35,907 2227.76,907.455C2227.31,907.846 2226.75,908.041 2226.1,908.041C2225.45,908.041 2224.93,907.813 2224.54,907.358C2224.08,906.902 2223.86,906.284 2223.86,905.502" style="fill-rule:nonzero;"/>
        </g>
        <g transform="matrix(1,0,0,1,-1760.81,336.936)">
            <path d="M2455.03,900.131L2455.03,907.846C2455.03,910.58 2455.16,912.761 2455.42,914.389C2457.57,912.566 2459.1,911.199 2460.01,910.287C2461.05,909.246 2462.09,907.813 2463.13,905.991C2464.18,904.168 2464.7,902.345 2464.7,900.522C2464.7,898.699 2464.31,897.136 2463.52,895.834C2462.74,894.532 2461.7,893.881 2460.4,893.881C2458.84,893.881 2457.53,894.467 2456.49,895.639C2455.52,896.941 2455.03,898.438 2455.03,900.131M2450.93,918.002L2449.66,858.53C2450.57,858.009 2451.48,857.748 2452.39,857.748C2453.3,857.748 2454.21,858.009 2455.13,858.53L2454.34,893.002C2457.01,890.724 2460.07,889.584 2463.52,889.584C2466.06,889.584 2468.18,890.626 2469.87,892.709C2471.56,894.793 2472.41,897.169 2472.41,899.838C2472.41,901.531 2471.86,903.321 2470.75,905.209C2469.71,906.967 2468.6,908.334 2467.43,909.311C2466.78,909.832 2465.12,911.134 2462.45,913.217C2461.67,913.803 2460.74,914.487 2459.67,915.268C2458.59,916.049 2457.93,916.537 2457.66,916.733C2457.21,916.993 2456.79,917.514 2456.4,918.295C2455.94,918.946 2455.42,919.5 2454.83,919.955C2454.38,920.346 2453.82,920.541 2453.17,920.541C2452.52,920.541 2452,920.313 2451.61,919.858C2451.15,919.402 2450.93,918.784 2450.93,918.002" style="fill-rule:nonzero;"/>
        </g>
        <g transform="matrix(1,0,0,1,-1760.81,336.936)">
            <path d="M2566.13,887.631L2566.13,895.346C2566.13,898.08 2566.26,900.261 2566.52,901.889C2568.67,900.066 2570.2,898.699 2571.11,897.787C2572.15,896.746 2573.19,895.313 2574.24,893.491C2575.28,891.668 2575.8,889.845 2575.8,888.022C2575.8,886.199 2575.41,884.636 2574.63,883.334C2573.85,882.032 2572.8,881.381 2571.5,881.381C2569.94,881.381 2568.64,881.967 2567.6,883.139C2566.62,884.441 2566.13,885.938 2566.13,887.631M2562.03,905.502L2560.76,846.03C2561.67,845.509 2562.58,845.248 2563.49,845.248C2564.41,845.248 2565.32,845.509 2566.23,846.03L2565.45,880.502C2568.12,878.224 2571.18,877.084 2574.63,877.084C2577.17,877.084 2579.28,878.126 2580.97,880.209C2582.67,882.293 2583.51,884.669 2583.51,887.338C2583.51,889.031 2582.96,890.821 2581.85,892.709C2580.81,894.467 2579.7,895.834 2578.53,896.811C2577.88,897.332 2576.22,898.634 2573.55,900.717C2572.77,901.303 2571.84,901.987 2570.77,902.768C2569.69,903.549 2569.03,904.037 2568.77,904.233C2568.31,904.493 2567.89,905.014 2567.5,905.795C2567.04,906.446 2566.52,907 2565.94,907.455C2565.48,907.846 2564.93,908.041 2564.27,908.041C2563.62,908.041 2563.1,907.813 2562.71,907.358C2562.26,906.902 2562.03,906.284 2562.03,905.502" style="fill-rule:nonzero;"/>
        </g>
        <g transform="matrix(1,0,0,1,-1760.81,336.936)">
            <path d="M2717.89,887.631L2717.89,895.346C2717.89,898.08 2718.02,900.261 2718.28,901.889C2720.43,900.066 2721.96,898.699 2722.87,897.787C2723.92,896.746 2724.96,895.313 2726,893.491C2727.04,891.668 2727.56,889.845 2727.56,888.022C2727.56,886.199 2727.17,884.636 2726.39,883.334C2725.61,882.032 2724.57,881.381 2723.26,881.381C2721.7,881.381 2720.4,881.967 2719.36,883.139C2718.38,884.441 2717.89,885.938 2717.89,887.631M2713.79,905.502L2712.52,846.03C2713.43,845.509 2714.34,845.248 2715.26,845.248C2716.17,845.248 2717.08,845.509 2717.99,846.03L2717.21,880.502C2719.88,878.224 2722.94,877.084 2726.39,877.084C2728.93,877.084 2731.04,878.126 2732.74,880.209C2734.43,882.293 2735.28,884.669 2735.28,887.338C2735.28,889.031 2734.72,890.821 2733.62,892.709C2732.57,894.467 2731.47,895.834 2730.3,896.811C2729.64,897.332 2727.98,898.634 2725.31,900.717C2724.53,901.303 2723.61,901.987 2722.53,902.768C2721.46,903.549 2720.79,904.037 2720.53,904.233C2720.07,904.493 2719.65,905.014 2719.26,905.795C2718.8,906.446 2718.28,907 2717.7,907.455C2717.24,907.846 2716.69,908.041 2716.04,908.041C2715.39,908.041 2714.87,907.813 2714.48,907.358C2714.02,906.902 2713.79,906.284 2713.79,905.502" style="fill-rule:nonzero;"/>
        </g>
        <g transform="matrix(1,0,0,1,0,-388.615)">
            <path d="M292.346,1312.63L292.346,1320.35C292.346,1323.08 292.476,1325.26 292.736,1326.89C294.885,1325.07 296.415,1323.7 297.326,1322.79C298.368,1321.75 299.409,1320.31 300.451,1318.49C301.493,1316.67 302.014,1314.85 302.014,1313.02C302.014,1311.2 301.623,1309.64 300.842,1308.33C300.061,1307.03 299.019,1306.38 297.717,1306.38C296.154,1306.38 294.852,1306.97 293.811,1308.14C292.834,1309.44 292.346,1310.94 292.346,1312.63M288.244,1330.5L286.975,1271.03C287.886,1270.51 288.797,1270.25 289.709,1270.25C290.62,1270.25 291.532,1270.51 292.443,1271.03L291.662,1305.5C294.331,1303.22 297.391,1302.08 300.842,1302.08C303.381,1302.08 305.497,1303.13 307.189,1305.21C308.882,1307.29 309.728,1309.67 309.728,1312.34C309.728,1314.03 309.175,1315.82 308.068,1317.71C307.027,1319.47 305.92,1320.83 304.748,1321.81C304.097,1322.33 302.437,1323.63 299.768,1325.72C298.986,1326.3 298.059,1326.99 296.984,1327.77C295.91,1328.55 295.243,1329.04 294.982,1329.23C294.527,1329.49 294.103,1330.01 293.713,1330.8C293.257,1331.45 292.736,1332 292.15,1332.46C291.695,1332.85 291.141,1333.04 290.49,1333.04C289.839,1333.04 289.318,1332.81 288.928,1332.36C288.472,1331.9 288.244,1331.28 288.244,1330.5" style="fill-rule:nonzero;"/>
        </g>
        <g transform="matrix(1,0,0,1,0,-388.615)">
            <path d="M424.049,1325.13L424.049,1332.85C424.049,1335.58 424.179,1337.76 424.439,1339.39C426.588,1337.57 428.118,1336.2 429.029,1335.29C430.071,1334.25 431.113,1332.81 432.154,1330.99C433.196,1329.17 433.717,1327.35 433.717,1325.52C433.717,1323.7 433.326,1322.14 432.545,1320.83C431.764,1319.53 430.722,1318.88 429.42,1318.88C427.857,1318.88 426.555,1319.47 425.514,1320.64C424.537,1321.94 424.049,1323.44 424.049,1325.13M419.947,1343L418.678,1283.53C419.589,1283.01 420.501,1282.75 421.412,1282.75C422.324,1282.75 423.235,1283.01 424.146,1283.53L423.365,1318C426.034,1315.72 429.094,1314.58 432.545,1314.58C435.084,1314.58 437.2,1315.63 438.893,1317.71C440.585,1319.79 441.432,1322.17 441.432,1324.84C441.432,1326.53 440.878,1328.32 439.771,1330.21C438.73,1331.97 437.623,1333.33 436.451,1334.31C435.8,1334.83 434.14,1336.13 431.471,1338.22C430.689,1338.8 429.762,1339.49 428.687,1340.27C427.613,1341.05 426.946,1341.54 426.685,1341.73C426.23,1341.99 425.807,1342.51 425.416,1343.3C424.96,1343.95 424.439,1344.5 423.853,1344.96C423.398,1345.35 422.844,1345.54 422.193,1345.54C421.542,1345.54 421.021,1345.31 420.631,1344.86C420.175,1344.4 419.947,1343.78 419.947,1343" style="fill-rule:nonzero;"/>
        </g>
        <g transform="matrix(1,0,0,1,0,-388.615)">
            <path d="M711.826,1287.63L711.826,1295.35C711.826,1298.08 711.956,1300.26 712.217,1301.89C714.365,1300.07 715.895,1298.7 716.806,1297.79C717.848,1296.75 718.89,1295.31 719.931,1293.49C720.973,1291.67 721.494,1289.84 721.494,1288.02C721.494,1286.2 721.103,1284.64 720.322,1283.33C719.541,1282.03 718.499,1281.38 717.197,1281.38C715.635,1281.38 714.332,1281.97 713.291,1283.14C712.314,1284.44 711.826,1285.94 711.826,1287.63M707.724,1305.5L706.455,1246.03C707.366,1245.51 708.278,1245.25 709.189,1245.25C710.101,1245.25 711.012,1245.51 711.924,1246.03L711.142,1280.5C713.812,1278.22 716.872,1277.08 720.322,1277.08C722.861,1277.08 724.977,1278.13 726.67,1280.21C728.362,1282.29 729.209,1284.67 729.209,1287.34C729.209,1289.03 728.655,1290.82 727.549,1292.71C726.507,1294.47 725.4,1295.83 724.228,1296.81C723.577,1297.33 721.917,1298.63 719.248,1300.72C718.467,1301.3 717.539,1301.99 716.465,1302.77C715.39,1303.55 714.723,1304.04 714.463,1304.23C714.007,1304.49 713.584,1305.01 713.193,1305.8C712.737,1306.45 712.217,1307 711.631,1307.46C711.175,1307.85 710.622,1308.04 709.971,1308.04C709.319,1308.04 708.799,1307.81 708.408,1307.36C707.952,1306.9 707.724,1306.28 707.724,1305.5" style="fill-rule:nonzero;"/>
        </g>
        <g transform="matrix(1,0,0,1,0,-388.615)">
            <path d="M902.378,1312.63L902.378,1320.35C902.378,1323.08 902.509,1325.26 902.769,1326.89C904.918,1325.07 906.447,1323.7 907.359,1322.79C908.401,1321.75 909.442,1320.31 910.484,1318.49C911.526,1316.67 912.046,1314.85 912.046,1313.02C912.046,1311.2 911.656,1309.64 910.875,1308.33C910.093,1307.03 909.052,1306.38 907.75,1306.38C906.187,1306.38 904.885,1306.97 903.843,1308.14C902.867,1309.44 902.378,1310.94 902.378,1312.63M898.277,1330.5L897.007,1271.03C897.919,1270.51 898.83,1270.25 899.742,1270.25C900.653,1270.25 901.565,1270.51 902.476,1271.03L901.695,1305.5C904.364,1303.22 907.424,1302.08 910.875,1302.08C913.414,1302.08 915.529,1303.13 917.222,1305.21C918.915,1307.29 919.761,1309.67 919.761,1312.34C919.761,1314.03 919.208,1315.82 918.101,1317.71C917.059,1319.47 915.953,1320.83 914.781,1321.81C914.13,1322.33 912.47,1323.63 909.8,1325.72C909.019,1326.3 908.091,1326.99 907.017,1327.77C905.943,1328.55 905.276,1329.04 905.015,1329.23C904.559,1329.49 904.136,1330.01 903.746,1330.8C903.29,1331.45 902.769,1332 902.183,1332.46C901.727,1332.85 901.174,1333.04 900.523,1333.04C899.872,1333.04 899.351,1332.81 898.96,1332.36C898.505,1331.9 898.277,1331.28 898.277,1330.5" style="fill-rule:nonzero;"/>
        </g>
        <g transform="matrix(1,0,0,1,0,-388.615)">
            <path d="M1041.42,1325.13L1041.42,1332.85C1041.42,1335.58 1041.55,1337.76 1041.81,1339.39C1043.96,1337.57 1045.49,1336.2 1046.4,1335.29C1047.45,1334.25 1048.49,1332.81 1049.53,1330.99C1050.57,1329.17 1051.09,1327.35 1051.09,1325.52C1051.09,1323.7 1050.7,1322.14 1049.92,1320.83C1049.14,1319.53 1048.1,1318.88 1046.8,1318.88C1045.23,1318.88 1043.93,1319.47 1042.89,1320.64C1041.91,1321.94 1041.42,1323.44 1041.42,1325.13M1037.32,1343L1036.05,1283.53C1036.96,1283.01 1037.88,1282.75 1038.79,1282.75C1039.7,1282.75 1040.61,1283.01 1041.52,1283.53L1040.74,1318C1043.41,1315.72 1046.47,1314.58 1049.92,1314.58C1052.46,1314.58 1054.58,1315.63 1056.27,1317.71C1057.96,1319.79 1058.81,1322.17 1058.81,1324.84C1058.81,1326.53 1058.25,1328.32 1057.15,1330.21C1056.11,1331.97 1055,1333.33 1053.83,1334.31C1053.18,1334.83 1051.52,1336.13 1048.85,1338.22C1048.06,1338.8 1047.14,1339.49 1046.06,1340.27C1044.99,1341.05 1044.32,1341.54 1044.06,1341.73C1043.61,1341.99 1043.18,1342.51 1042.79,1343.3C1042.34,1343.95 1041.81,1344.5 1041.23,1344.96C1040.77,1345.35 1040.22,1345.54 1039.57,1345.54C1038.92,1345.54 1038.4,1345.31 1038.01,1344.86C1037.55,1344.4 1037.32,1343.78 1037.32,1343" style="fill-rule:nonzero;"/>
        </g>
        <g transform="matrix(1,0,0,1,-1745.35,130.112)">
            <path d="M2037.7,1287.63L2037.7,1295.35C2037.7,1298.08 2037.83,1300.26 2038.09,1301.89C2040.23,1300.07 2041.76,1298.7 2042.68,1297.79C2043.72,1296.75 2044.76,1295.31 2045.8,1293.49C2046.84,1291.67 2047.36,1289.84 2047.36,1288.02C2047.36,1286.2 2046.97,1284.64 2046.19,1283.33C2045.41,1282.03 2044.37,1281.38 2043.07,1281.38C2041.5,1281.38 2040.2,1281.97 2039.16,1283.14C2038.18,1284.44 2037.7,1285.94 2037.7,1287.63M2033.59,1305.5L2032.32,1246.03C2033.24,1245.51 2034.15,1245.25 2035.06,1245.25C2035.97,1245.25 2036.88,1245.51 2037.79,1246.03L2037.01,1280.5C2039.68,1278.22 2042.74,1277.08 2046.19,1277.08C2048.73,1277.08 2050.85,1278.13 2052.54,1280.21C2054.23,1282.29 2055.08,1284.67 2055.08,1287.34C2055.08,1289.03 2054.53,1290.82 2053.42,1292.71C2052.38,1294.47 2051.27,1295.83 2050.1,1296.81C2049.45,1297.33 2047.79,1298.63 2045.12,1300.72C2044.34,1301.3 2043.41,1301.99 2042.33,1302.77C2041.26,1303.55 2040.59,1304.04 2040.33,1304.23C2039.88,1304.49 2039.45,1305.01 2039.06,1305.8C2038.61,1306.45 2038.09,1307 2037.5,1307.46C2037.04,1307.85 2036.49,1308.04 2035.84,1308.04C2035.19,1308.04 2034.67,1307.81 2034.28,1307.36C2033.82,1306.9 2033.59,1306.28 2033.59,1305.5" style="fill-rule:nonzero;"/>
        </g>
        <g transform="matrix(1,0,0,1,-1745.35,130.112)">
            <path d="M2162.97,1312.63L2162.97,1320.35C2162.97,1323.08 2163.1,1325.26 2163.36,1326.89C2165.51,1325.07 2167.04,1323.7 2167.95,1322.79C2168.99,1321.75 2170.04,1320.31 2171.08,1318.49C2172.12,1316.67 2172.64,1314.85 2172.64,1313.02C2172.64,1311.2 2172.25,1309.64 2171.47,1308.33C2170.69,1307.03 2169.65,1306.38 2168.34,1306.38C2166.78,1306.38 2165.48,1306.97 2164.44,1308.14C2163.46,1309.44 2162.97,1310.94 2162.97,1312.63M2158.87,1330.5L2157.6,1271.03C2158.51,1270.51 2159.42,1270.25 2160.34,1270.25C2161.25,1270.25 2162.16,1270.51 2163.07,1271.03L2162.29,1305.5C2164.96,1303.22 2168.02,1302.08 2171.47,1302.08C2174.01,1302.08 2176.12,1303.13 2177.82,1305.21C2179.51,1307.29 2180.36,1309.67 2180.36,1312.34C2180.36,1314.03 2179.8,1315.82 2178.7,1317.71C2177.65,1319.47 2176.55,1320.83 2175.37,1321.81C2174.72,1322.33 2173.06,1323.63 2170.39,1325.72C2169.61,1326.3 2168.69,1326.99 2167.61,1327.77C2166.54,1328.55 2165.87,1329.04 2165.61,1329.23C2165.15,1329.49 2164.73,1330.01 2164.34,1330.8C2163.88,1331.45 2163.36,1332 2162.78,1332.46C2162.32,1332.85 2161.77,1333.04 2161.12,1333.04C2160.47,1333.04 2159.95,1332.81 2159.55,1332.36C2159.1,1331.9 2158.87,1331.28 2158.87,1330.5" style="fill-rule:nonzero;"/>
        </g>
        <g transform="matrix(1,0,0,1,-1745.35,130.112)">
            <path d="M2488.8,1312.63L2488.8,1320.35C2488.8,1323.08 2488.93,1325.26 2489.19,1326.89C2491.34,1325.07 2492.87,1323.7 2493.78,1322.79C2494.82,1321.75 2495.86,1320.31 2496.91,1318.49C2497.95,1316.67 2498.47,1314.85 2498.47,1313.02C2498.47,1311.2 2498.08,1309.64 2497.3,1308.33C2496.52,1307.03 2495.47,1306.38 2494.17,1306.38C2492.61,1306.38 2491.31,1306.97 2490.27,1308.14C2489.29,1309.44 2488.8,1310.94 2488.8,1312.63M2484.7,1330.5L2483.43,1271.03C2484.34,1270.51 2485.25,1270.25 2486.16,1270.25C2487.08,1270.25 2487.99,1270.51 2488.9,1271.03L2488.12,1305.5C2490.79,1303.22 2493.85,1302.08 2497.3,1302.08C2499.84,1302.08 2501.95,1303.13 2503.64,1305.21C2505.34,1307.29 2506.18,1309.67 2506.18,1312.34C2506.18,1314.03 2505.63,1315.82 2504.52,1317.71C2503.48,1319.47 2502.38,1320.83 2501.2,1321.81C2500.55,1322.33 2498.89,1323.63 2496.22,1325.72C2495.44,1326.3 2494.51,1326.99 2493.44,1327.77C2492.37,1328.55 2491.7,1329.04 2491.44,1329.23C2490.98,1329.49 2490.56,1330.01 2490.17,1330.8C2489.71,1331.45 2489.19,1332 2488.61,1332.46C2488.15,1332.85 2487.6,1333.04 2486.95,1333.04C2486.29,1333.04 2485.77,1332.81 2485.38,1332.36C2484.93,1331.9 2484.7,1331.28 2484.7,1330.5" style="fill-rule:nonzero;"/>
        </g>
        <g transform="matrix(1,0,0,1,-1745.35,130.112)">
            <path d="M2712.42,1312.63L2712.42,1320.35C2712.42,1323.08 2712.55,1325.26 2712.81,1326.89C2714.96,1325.07 2716.49,1323.7 2717.4,1322.79C2718.44,1321.75 2719.49,1320.31 2720.53,1318.49C2721.57,1316.67 2722.09,1314.85 2722.09,1313.02C2722.09,1311.2 2721.7,1309.64 2720.92,1308.33C2720.14,1307.03 2719.1,1306.38 2717.79,1306.38C2716.23,1306.38 2714.93,1306.97 2713.89,1308.14C2712.91,1309.44 2712.42,1310.94 2712.42,1312.63M2708.32,1330.5L2707.05,1271.03C2707.96,1270.51 2708.87,1270.25 2709.79,1270.25C2710.7,1270.25 2711.61,1270.51 2712.52,1271.03L2711.74,1305.5C2714.41,1303.22 2717.47,1302.08 2720.92,1302.08C2723.46,1302.08 2725.57,1303.13 2727.27,1305.21C2728.96,1307.29 2729.81,1309.67 2729.81,1312.34C2729.81,1314.03 2729.25,1315.82 2728.15,1317.71C2727.1,1319.47 2726,1320.83 2724.83,1321.81C2724.17,1322.33 2722.51,1323.63 2719.84,1325.72C2719.06,1326.3 2718.14,1326.99 2717.06,1327.77C2715.99,1328.55 2715.32,1329.04 2715.06,1329.23C2714.6,1329.49 2714.18,1330.01 2713.79,1330.8C2713.33,1331.45 2712.81,1332 2712.23,1332.46C2711.77,1332.85 2711.22,1333.04 2710.57,1333.04C2709.92,1333.04 2709.4,1332.81 2709,1332.36C2708.55,1331.9 2708.32,1331.28 2708.32,1330.5" style="fill-rule:nonzero;"/>
        </g>
        <g transform="matrix(1,0,0,1,0,-142.646)">
            <path d="M677.807,845.653L677.807,919.858" style="fill:none;fill-rule:nonzero;stroke:black;stroke-width:3.25px;stroke-linecap:round;"/>
        </g>
        <g transform="matrix(1,0,0,1,0,-142.646)">
            <path d="M768.465,808.153L768.465,891.733" style="fill:none;fill-rule:nonzero;stroke:black;stroke-width:3.25px;stroke-linecap:round;"/>
        </g>
        <g transform="matrix(1,0,0,1,0,-142.646)">
            <path d="M889.928,808.153L889.928,891.733" style="fill:none;fill-rule:nonzero;stroke:black;stroke-width:3.25px;stroke-linecap:round;"/>
        </g>
        <g transform="matrix(1,0,0,1,0,-142.646)">
            <path d="M980.585,820.653L980.585,901.108" style="fill:none;fill-rule:nonzero;stroke:black;stroke-width:3.25px;stroke-linecap:round;"/>
        </g>
        <g transform="matrix(1,0,0,1,-1760.81,336.936)">
            <path d="M2284.13,887.893L2284.13,804.233" style="fill:none;fill-rule:nonzero;stroke:black;stroke-width:3.25px;stroke-linecap:round;"/>
        </g>
        <g transform="matrix(1,0,0,1,-1760.81,336.936)">
            <path d="M2375.33,875.393L2375.33,791.733" style="fill:none;fill-rule:nonzero;stroke:black;stroke-width:3.25px;stroke-linecap:round;"/>
        </g>
        <g transform="matrix(1,0,0,1,-1760.81,336.936)">
            <path d="M2511.2,900.393L2511.2,816.733" style="fill:none;fill-rule:nonzero;stroke:black;stroke-width:3.25px;stroke-linecap:round;"/>
        </g>
        <g transform="matrix(1,0,0,1,-1760.81,336.936)">
            <path d="M2622.31,887.893L2622.31,804.233" style="fill:none;fill-rule:nonzero;stroke:black;stroke-width:3.25px;stroke-linecap:round;"/>
        </g>
        <g transform="matrix(1,0,0,1,0,-388.615)">
            <path d="M317.053,1320.65L317.053,1394.86" style="fill:none;fill-rule:nonzero;stroke:black;stroke-width:3.25px;stroke-linecap:round;"/>
        </g>
        <g transform="matrix(1,0,0,1,0,-388.615)">
            <path d="M478.42,1324.54L478.42,1247.98" style="fill:none;fill-rule:nonzero;stroke:black;stroke-width:3.25px;stroke-linecap:round;"/>
        </g>
        <g transform="matrix(1,0,0,1,0,-388.615)">
            <path d="M530.506,1321.43L530.506,1394.86" style="fill:none;fill-rule:nonzero;stroke:black;stroke-width:3.25px;stroke-linecap:round;"/>
        </g>
        <g transform="matrix(1,0,0,1,0,-388.615)">
            <path d="M641.257,1308.93L641.257,1385.48" style="fill:none;fill-rule:nonzero;stroke:black;stroke-width:3.25px;stroke-linecap:round;"/>
        </g>
        <g transform="matrix(1,0,0,1,0,-388.615)">
            <path d="M736.533,1296.43L736.533,1376.11" style="fill:none;fill-rule:nonzero;stroke:black;stroke-width:3.25px;stroke-linecap:round;"/>
        </g>
        <g transform="matrix(1,0,0,1,0,-388.615)">
            <path d="M831.809,1308.93L831.809,1385.48" style="fill:none;fill-rule:nonzero;stroke:black;stroke-width:3.25px;stroke-linecap:round;"/>
        </g>
        <g transform="matrix(1,0,0,1,0,-388.615)">
            <path d="M927.085,1321.43L927.085,1394.86" style="fill:none;fill-rule:nonzero;stroke:black;stroke-width:3.25px;stroke-linecap:round;"/>
        </g>
        <g transform="matrix(1,0,0,1,0,-388.615)">
            <path d="M1097.6,1325.39L1097.6,1247.98" style="fill:none;fill-rule:nonzero;stroke:black;stroke-width:3.25px;stroke-linecap:round;"/>
        </g>
        <g transform="matrix(1,0,0,1,0,-388.615)">
            <path d="M1203.51,1350.39L1203.51,1266.73" style="fill:none;fill-rule:nonzero;stroke:black;stroke-width:3.25px;stroke-linecap:round;"/>
        </g>
        <g transform="matrix(1,0,0,1,-1745.35,130.112)">
            <path d="M2062.4,1295.65L2062.4,1376.11" style="fill:none;fill-rule:nonzero;stroke:black;stroke-width:3.25px;stroke-linecap:round;"/>
        </g>
        <g transform="matrix(1,0,0,1,-1745.35,130.112)">
            <path d="M2187.68,1320.65L2187.68,1394.86" style="fill:none;fill-rule:nonzero;stroke:black;stroke-width:3.25px;stroke-linecap:round;"/>
        </g>
        <g transform="matrix(1,0,0,1,-1745.35,130.112)">
            <path d="M2372.52,1324.54L2372.52,1247.98" style="fill:none;fill-rule:nonzero;stroke:black;stroke-width:3.25px;stroke-linecap:round;"/>
        </g>
        <g transform="matrix(1,0,0,1,-1745.35,130.112)">
            <path d="M2428.18,1308.93L2428.18,1385.48" style="fill:none;fill-rule:nonzero;stroke:black;stroke-width:3.25px;stroke-linecap:round;"/>
        </g>
        <g transform="matrix(1,0,0,1,-1745.35,130.112)">
            <path d="M2513.51,1321.43L2513.51,1394.86" style="fill:none;fill-rule:nonzero;stroke:black;stroke-width:3.25px;stroke-linecap:round;"/>
        </g>
        <g transform="matrix(1,0,0,1,-1745.35,130.112)">
            <path d="M2628.5,1324.54L2628.5,1247.98" style="fill:none;fill-rule:nonzero;stroke:black;stroke-width:3.25px;stroke-linecap:round;"/>
        </g>
        <g transform="matrix(1,0,0,1,0,-142.646)">
            <path d="M308.654,843.002C306.311,843.002 304.618,843.816 303.576,845.444C302.404,847.006 301.818,849.122 301.818,851.791C301.818,854.851 302.632,857.488 304.26,859.701C305.887,861.85 307.678,863.347 309.631,864.194C311.389,865.04 313.244,865.463 315.197,865.463C317.476,865.463 319.201,864.649 320.373,863.022C321.48,861.394 322.033,859.278 322.033,856.674C322.033,853.614 321.219,850.978 319.592,848.764C317.964,846.681 316.206,845.183 314.318,844.272C312.43,843.425 310.542,843.002 308.654,843.002M311.975,840.463C319.006,840.463 324.865,841.83 329.553,844.565C334.305,847.299 336.682,850.522 336.682,854.233C336.682,858.204 334.24,861.459 329.357,863.998C324.475,866.668 318.68,868.002 311.975,868.002C305.074,868.002 299.214,866.635 294.396,863.901C289.579,861.166 287.17,857.944 287.17,854.233C287.17,850.261 289.644,847.006 294.592,844.467C299.475,841.798 305.269,840.463 311.975,840.463" style="fill-rule:nonzero;"/>
        </g>
        <g transform="matrix(1,0,0,1,0,-142.646)">
            <path d="M505.248,818.002C502.904,818.002 501.212,818.816 500.17,820.444C498.998,822.006 498.412,824.122 498.412,826.791C498.412,829.851 499.226,832.488 500.854,834.701C502.481,836.85 504.272,838.347 506.225,839.194C507.983,840.04 509.838,840.463 511.791,840.463C514.07,840.463 515.795,839.649 516.967,838.022C518.074,836.394 518.627,834.278 518.627,831.674C518.627,828.614 517.813,825.978 516.186,823.764C514.558,821.681 512.8,820.183 510.912,819.272C509.024,818.425 507.136,818.002 505.248,818.002M508.569,815.463C515.6,815.463 521.459,816.83 526.147,819.565C530.899,822.299 533.276,825.522 533.276,829.233C533.276,833.204 530.834,836.459 525.951,838.998C521.069,841.668 515.274,843.002 508.569,843.002C501.667,843.002 495.808,841.635 490.99,838.901C486.173,836.166 483.764,832.944 483.764,829.233C483.764,825.261 486.238,822.006 491.186,819.467C496.069,816.798 501.863,815.463 508.569,815.463" style="fill-rule:nonzero;"/>
        </g>
        <g transform="matrix(1,0,0,1,0,-142.646)">
            <path d="M707.725,835.19C707.725,834.083 707.302,833.139 706.455,832.358C705.609,831.511 704.633,831.088 703.526,831.088C701.573,831.088 697.634,833.041 691.709,836.948C685.59,840.919 681.846,843.751 680.479,845.444C679.763,846.355 679.405,847.299 679.405,848.276C679.405,849.382 679.828,850.326 680.674,851.108C681.455,851.954 682.432,852.377 683.604,852.377C685.492,852.377 689.463,850.424 695.518,846.518C701.508,842.612 705.218,839.78 706.651,838.022C707.367,837.175 707.725,836.231 707.725,835.19M702.549,827.963C708.148,827.963 710.948,830.372 710.948,835.19C710.948,837.534 710.264,840.268 708.897,843.393C707.53,846.453 705.707,848.797 703.428,850.424C698.415,853.81 692.133,855.502 684.58,855.502C678.981,855.502 676.182,853.093 676.182,848.276C676.182,846.127 676.866,843.425 678.233,840.17C679.535,837.045 681.358,834.669 683.702,833.041C688.715,829.656 694.997,827.963 702.549,827.963" style="fill-rule:nonzero;"/>
        </g>
        <g transform="matrix(1,0,0,1,0,-142.646)">
            <path d="M798.383,797.69C798.383,796.583 797.96,795.639 797.113,794.858C796.267,794.011 795.29,793.588 794.184,793.588C792.231,793.588 788.292,795.541 782.367,799.448C776.247,803.419 772.504,806.251 771.137,807.944C770.421,808.855 770.063,809.799 770.063,810.776C770.063,811.882 770.486,812.826 771.332,813.608C772.113,814.454 773.09,814.877 774.262,814.877C776.15,814.877 780.121,812.924 786.176,809.018C792.165,805.112 795.876,802.28 797.309,800.522C798.025,799.675 798.383,798.731 798.383,797.69M793.207,790.463C798.806,790.463 801.606,792.872 801.606,797.69C801.606,800.033 800.922,802.768 799.555,805.893C798.188,808.953 796.365,811.297 794.086,812.924C789.073,816.31 782.79,818.002 775.238,818.002C769.639,818.002 766.84,815.593 766.84,810.776C766.84,808.627 767.524,805.925 768.891,802.67C770.193,799.545 772.016,797.169 774.359,795.541C779.372,792.156 785.655,790.463 793.207,790.463" style="fill-rule:nonzero;"/>
        </g>
        <g transform="matrix(1,0,0,1,0,-142.646)">
            <path d="M919.846,797.69C919.846,796.583 919.422,795.639 918.576,794.858C917.73,794.011 916.753,793.588 915.646,793.588C913.693,793.588 909.754,795.541 903.83,799.448C897.71,803.419 893.967,806.251 892.599,807.944C891.883,808.855 891.525,809.799 891.525,810.776C891.525,811.882 891.948,812.826 892.795,813.608C893.576,814.454 894.553,814.877 895.724,814.877C897.612,814.877 901.584,812.924 907.638,809.018C913.628,805.112 917.339,802.28 918.771,800.522C919.487,799.675 919.846,798.731 919.846,797.69M914.67,790.463C920.269,790.463 923.068,792.872 923.068,797.69C923.068,800.033 922.385,802.768 921.017,805.893C919.65,808.953 917.827,811.297 915.549,812.924C910.536,816.31 904.253,818.002 896.701,818.002C891.102,818.002 888.303,815.593 888.303,810.776C888.303,808.627 888.986,805.925 890.353,802.67C891.655,799.545 893.478,797.169 895.822,795.541C900.835,792.156 907.118,790.463 914.67,790.463" style="fill-rule:nonzero;"/>
        </g>
        <g transform="matrix(1,0,0,1,0,-142.646)">
            <path d="M1010.5,810.19C1010.5,809.083 1010.08,808.139 1009.23,807.358C1008.39,806.511 1007.41,806.088 1006.3,806.088C1004.35,806.088 1000.41,808.041 994.488,811.948C988.368,815.919 984.625,818.751 983.257,820.444C982.541,821.355 982.183,822.299 982.183,823.276C982.183,824.382 982.606,825.326 983.453,826.108C984.234,826.954 985.21,827.377 986.382,827.377C988.27,827.377 992.242,825.424 998.296,821.518C1004.29,817.612 1008,814.78 1009.43,813.022C1010.15,812.175 1010.5,811.231 1010.5,810.19M1005.33,802.963C1010.93,802.963 1013.73,805.372 1013.73,810.19C1013.73,812.533 1013.04,815.268 1011.68,818.393C1010.31,821.453 1008.49,823.797 1006.21,825.424C1001.19,828.81 994.911,830.502 987.359,830.502C981.76,830.502 978.96,828.093 978.96,823.276C978.96,821.127 979.644,818.425 981.011,815.17C982.313,812.045 984.136,809.669 986.48,808.041C991.493,804.656 997.776,802.963 1005.33,802.963" style="fill-rule:nonzero;"/>
        </g>
        <g transform="matrix(1,0,0,1,0,-142.646)">
            <path d="M1129.31,793.002C1126.96,793.002 1125.27,793.816 1124.23,795.444C1123.06,797.006 1122.47,799.122 1122.47,801.791C1122.47,804.851 1123.28,807.488 1124.91,809.701C1126.54,811.85 1128.33,813.347 1130.28,814.194C1132.04,815.04 1133.9,815.463 1135.85,815.463C1138.13,815.463 1139.85,814.649 1141.02,813.022C1142.13,811.394 1142.68,809.278 1142.68,806.674C1142.68,803.614 1141.87,800.977 1140.24,798.764C1138.62,796.681 1136.86,795.183 1134.97,794.272C1133.08,793.425 1131.19,793.002 1129.31,793.002M1132.63,790.463C1139.66,790.463 1145.52,791.83 1150.2,794.565C1154.96,797.299 1157.33,800.522 1157.33,804.233C1157.33,808.204 1154.89,811.459 1150.01,813.998C1145.13,816.668 1139.33,818.002 1132.63,818.002C1125.73,818.002 1119.87,816.635 1115.05,813.901C1110.23,811.166 1107.82,807.944 1107.82,804.233C1107.82,800.261 1110.3,797.006 1115.24,794.467C1120.13,791.798 1125.92,790.463 1132.63,790.463" style="fill-rule:nonzero;"/>
        </g>
        <g transform="matrix(1,0,0,1,-1760.81,336.936)">
            <path d="M2069.46,868.002C2067.12,868.002 2065.42,868.816 2064.38,870.444C2063.21,872.006 2062.63,874.122 2062.63,876.791C2062.63,879.851 2063.44,882.488 2065.07,884.701C2066.69,886.85 2068.48,888.347 2070.44,889.194C2072.2,890.04 2074.05,890.463 2076,890.463C2078.28,890.463 2080.01,889.649 2081.18,888.022C2082.29,886.394 2082.84,884.278 2082.84,881.674C2082.84,878.614 2082.03,875.978 2080.4,873.764C2078.77,871.681 2077.01,870.183 2075.13,869.272C2073.24,868.425 2071.35,868.002 2069.46,868.002M2072.78,865.463C2079.81,865.463 2085.67,866.83 2090.36,869.565C2095.11,872.299 2097.49,875.522 2097.49,879.233C2097.49,883.204 2095.05,886.459 2090.16,888.998C2085.28,891.668 2079.49,893.002 2072.78,893.002C2065.88,893.002 2060.02,891.635 2055.2,888.901C2050.39,886.166 2047.98,882.944 2047.98,879.233C2047.98,875.261 2050.45,872.006 2055.4,869.467C2060.28,866.798 2066.08,865.463 2072.78,865.463" style="fill-rule:nonzero;"/>
        </g>
        <g transform="matrix(1,0,0,1,-1760.81,336.936)">
            <path d="M2282.58,885.19C2282.58,884.083 2282.16,883.139 2281.31,882.358C2280.47,881.511 2279.49,881.088 2278.38,881.088C2276.43,881.088 2272.49,883.041 2266.57,886.948C2260.45,890.919 2256.7,893.751 2255.34,895.444C2254.62,896.355 2254.26,897.299 2254.26,898.276C2254.26,899.382 2254.69,900.327 2255.53,901.108C2256.31,901.954 2257.29,902.377 2258.46,902.377C2260.35,902.377 2264.32,900.424 2270.38,896.518C2276.36,892.612 2280.08,889.78 2281.51,888.022C2282.22,887.175 2282.58,886.231 2282.58,885.19M2277.41,877.963C2283.01,877.963 2285.81,880.372 2285.81,885.19C2285.81,887.534 2285.12,890.268 2283.75,893.393C2282.39,896.453 2280.56,898.797 2278.29,900.424C2273.27,903.81 2266.99,905.502 2259.44,905.502C2253.84,905.502 2251.04,903.093 2251.04,898.276C2251.04,896.127 2251.72,893.425 2253.09,890.17C2254.39,887.045 2256.22,884.669 2258.56,883.041C2263.57,879.656 2269.85,877.963 2277.41,877.963" style="fill-rule:nonzero;"/>
        </g>
        <g transform="matrix(1,0,0,1,-1760.81,336.936)">
            <path d="M2373.78,872.69C2373.78,871.583 2373.36,870.639 2372.51,869.858C2371.67,869.011 2370.69,868.588 2369.58,868.588C2367.63,868.588 2363.69,870.541 2357.77,874.448C2351.65,878.419 2347.9,881.251 2346.54,882.944C2345.82,883.855 2345.46,884.799 2345.46,885.776C2345.46,886.882 2345.88,887.826 2346.73,888.608C2347.51,889.454 2348.49,889.877 2349.66,889.877C2351.55,889.877 2355.52,887.924 2361.57,884.018C2367.56,880.112 2371.28,877.28 2372.71,875.522C2373.42,874.675 2373.78,873.731 2373.78,872.69M2368.61,865.463C2374.2,865.463 2377,867.872 2377,872.69C2377,875.034 2376.32,877.768 2374.95,880.893C2373.59,883.953 2371.76,886.297 2369.48,887.924C2364.47,891.31 2358.19,893.002 2350.64,893.002C2345.04,893.002 2342.24,890.593 2342.24,885.776C2342.24,883.627 2342.92,880.925 2344.29,877.67C2345.59,874.545 2347.41,872.169 2349.76,870.541C2354.77,867.156 2361.05,865.463 2368.61,865.463" style="fill-rule:nonzero;"/>
        </g>
        <g transform="matrix(1,0,0,1,-1760.81,336.936)">
            <path d="M2509.65,897.69C2509.65,896.583 2509.23,895.639 2508.38,894.858C2507.54,894.011 2506.56,893.588 2505.45,893.588C2503.5,893.588 2499.56,895.541 2493.64,899.448C2487.52,903.419 2483.77,906.251 2482.41,907.944C2481.69,908.855 2481.33,909.799 2481.33,910.776C2481.33,911.883 2481.76,912.827 2482.6,913.608C2483.38,914.454 2484.36,914.877 2485.53,914.877C2487.42,914.877 2491.39,912.924 2497.45,909.018C2503.44,905.112 2507.15,902.28 2508.58,900.522C2509.29,899.675 2509.65,898.731 2509.65,897.69M2504.48,890.463C2510.08,890.463 2512.88,892.872 2512.88,897.69C2512.88,900.034 2512.19,902.768 2510.82,905.893C2509.46,908.953 2507.63,911.297 2505.36,912.924C2500.34,916.31 2494.06,918.002 2486.51,918.002C2480.91,918.002 2478.11,915.593 2478.11,910.776C2478.11,908.627 2478.79,905.925 2480.16,902.67C2481.46,899.545 2483.29,897.169 2485.63,895.541C2490.64,892.156 2496.93,890.463 2504.48,890.463" style="fill-rule:nonzero;"/>
        </g>
        <g transform="matrix(1,0,0,1,-1760.81,336.936)">
            <path d="M2620.76,885.19C2620.76,884.083 2620.33,883.139 2619.49,882.358C2618.64,881.511 2617.66,881.088 2616.56,881.088C2614.6,881.088 2610.66,883.041 2604.74,886.948C2598.62,890.919 2594.88,893.751 2593.51,895.444C2592.79,896.355 2592.44,897.299 2592.44,898.276C2592.44,899.382 2592.86,900.327 2593.7,901.108C2594.49,901.954 2595.46,902.377 2596.63,902.377C2598.52,902.377 2602.49,900.424 2608.55,896.518C2614.54,892.612 2618.25,889.78 2619.68,888.022C2620.4,887.175 2620.76,886.231 2620.76,885.19M2615.58,877.963C2621.18,877.963 2623.98,880.372 2623.98,885.19C2623.98,887.534 2623.29,890.268 2621.93,893.393C2620.56,896.453 2618.74,898.797 2616.46,900.424C2611.45,903.81 2605.16,905.502 2597.61,905.502C2592.01,905.502 2589.21,903.093 2589.21,898.276C2589.21,896.127 2589.9,893.425 2591.26,890.17C2592.57,887.045 2594.39,884.669 2596.73,883.041C2601.75,879.656 2608.03,877.963 2615.58,877.963" style="fill-rule:nonzero;"/>
        </g>
        <g transform="matrix(1,0,0,1,-1760.81,336.936)">
            <path d="M2762.46,880.502C2760.12,880.502 2758.42,881.316 2757.38,882.944C2756.21,884.506 2755.62,886.622 2755.62,889.291C2755.62,892.351 2756.44,894.988 2758.06,897.202C2759.69,899.35 2761.48,900.847 2763.44,901.694C2765.19,902.54 2767.05,902.963 2769,902.963C2771.28,902.963 2773.01,902.149 2774.18,900.522C2775.29,898.894 2775.84,896.778 2775.84,894.174C2775.84,891.114 2775.02,888.478 2773.4,886.264C2771.77,884.181 2770.01,882.683 2768.12,881.772C2766.24,880.925 2764.35,880.502 2762.46,880.502M2765.78,877.963C2772.81,877.963 2778.67,879.33 2783.36,882.065C2788.11,884.799 2790.49,888.022 2790.49,891.733C2790.49,895.704 2788.05,898.959 2783.16,901.498C2778.28,904.168 2772.49,905.502 2765.78,905.502C2758.88,905.502 2753.02,904.135 2748.2,901.401C2743.38,898.666 2740.98,895.444 2740.98,891.733C2740.98,887.761 2743.45,884.506 2748.4,881.967C2753.28,879.298 2759.07,877.963 2765.78,877.963" style="fill-rule:nonzero;"/>
        </g>
        <g transform="matrix(1,0,0,1,0,-388.615)">
            <path d="M346.971,1310.19C346.971,1309.08 346.547,1308.14 345.701,1307.36C344.855,1306.51 343.878,1306.09 342.771,1306.09C340.818,1306.09 336.88,1308.04 330.955,1311.95C324.835,1315.92 321.092,1318.75 319.725,1320.44C319.008,1321.36 318.65,1322.3 318.65,1323.28C318.65,1324.38 319.074,1325.33 319.92,1326.11C320.701,1326.95 321.678,1327.38 322.85,1327.38C324.738,1327.38 328.709,1325.42 334.764,1321.52C340.753,1317.61 344.464,1314.78 345.896,1313.02C346.613,1312.18 346.971,1311.23 346.971,1310.19M341.795,1302.96C347.394,1302.96 350.193,1305.37 350.193,1310.19C350.193,1312.53 349.51,1315.27 348.143,1318.39C346.775,1321.45 344.952,1323.8 342.674,1325.42C337.661,1328.81 331.378,1330.5 323.826,1330.5C318.227,1330.5 315.428,1328.09 315.428,1323.28C315.428,1321.13 316.111,1318.43 317.478,1315.17C318.781,1312.05 320.603,1309.67 322.947,1308.04C327.96,1304.66 334.243,1302.96 341.795,1302.96" style="fill-rule:nonzero;"/>
        </g>
        <g transform="matrix(1,0,0,1,0,-388.615)">
            <path d="M469.103,1315.46C472.228,1315.46 474.865,1316.28 477.014,1317.9C479.032,1319.66 480.041,1321.88 480.041,1324.55C480.041,1329.04 477.73,1333.24 473.107,1337.14C468.42,1341.05 463.407,1343 458.068,1343C454.943,1343 452.307,1342.19 450.158,1340.56C448.14,1338.8 447.131,1336.59 447.131,1333.92C447.131,1329.43 449.475,1325.23 454.162,1321.32C458.719,1317.42 463.7,1315.46 469.103,1315.46" style="fill-rule:nonzero;"/>
        </g>
        <g transform="matrix(1,0,0,1,0,-388.615)">
            <path d="M550.854,1302.96C553.979,1302.96 556.616,1303.78 558.764,1305.4C560.782,1307.16 561.791,1309.38 561.791,1312.05C561.791,1316.54 559.48,1320.74 554.858,1324.64C550.17,1328.55 545.157,1330.5 539.819,1330.5C536.694,1330.5 534.057,1329.69 531.909,1328.06C529.89,1326.3 528.881,1324.09 528.881,1321.42C528.881,1316.93 531.225,1312.73 535.913,1308.82C540.47,1304.92 545.45,1302.96 550.854,1302.96" style="fill-rule:nonzero;"/>
        </g>
        <g transform="matrix(1,0,0,1,0,-388.615)">
            <path d="M661.604,1290.46C664.729,1290.46 667.366,1291.28 669.515,1292.9C671.533,1294.66 672.542,1296.88 672.542,1299.55C672.542,1304.04 670.231,1308.24 665.608,1312.14C660.921,1316.05 655.908,1318 650.569,1318C647.444,1318 644.808,1317.19 642.659,1315.56C640.641,1313.8 639.632,1311.59 639.632,1308.92C639.632,1304.43 641.976,1300.23 646.663,1296.32C651.22,1292.42 656.201,1290.46 661.604,1290.46" style="fill-rule:nonzero;"/>
        </g>
        <g transform="matrix(1,0,0,1,0,-388.615)">
            <path d="M756.881,1277.96C760.006,1277.96 762.642,1278.78 764.791,1280.4C766.809,1282.16 767.818,1284.38 767.818,1287.05C767.818,1291.54 765.507,1295.74 760.885,1299.64C756.197,1303.55 751.184,1305.5 745.846,1305.5C742.721,1305.5 740.084,1304.69 737.935,1303.06C735.917,1301.3 734.908,1299.09 734.908,1296.42C734.908,1291.93 737.252,1287.73 741.939,1283.82C746.497,1279.92 751.477,1277.96 756.881,1277.96" style="fill-rule:nonzero;"/>
        </g>
        <g transform="matrix(1,0,0,1,0,-388.615)">
            <path d="M852.157,1290.46C855.282,1290.46 857.919,1291.28 860.067,1292.9C862.085,1294.66 863.094,1296.88 863.094,1299.55C863.094,1304.04 860.783,1308.24 856.161,1312.14C851.473,1316.05 846.46,1318 841.122,1318C837.997,1318 835.36,1317.19 833.212,1315.56C831.193,1313.8 830.184,1311.59 830.184,1308.92C830.184,1304.43 832.528,1300.23 837.216,1296.32C841.773,1292.42 846.753,1290.46 852.157,1290.46" style="fill-rule:nonzero;"/>
        </g>
        <g transform="matrix(1,0,0,1,0,-388.615)">
            <path d="M947.433,1302.96C950.558,1302.96 953.195,1303.78 955.343,1305.4C957.362,1307.16 958.371,1309.38 958.371,1312.05C958.371,1316.54 956.059,1320.74 951.437,1324.64C946.75,1328.55 941.737,1330.5 936.398,1330.5C933.273,1330.5 930.636,1329.69 928.488,1328.06C926.47,1326.3 925.46,1324.09 925.46,1321.42C925.46,1316.93 927.804,1312.73 932.492,1308.82C937.049,1304.92 942.03,1302.96 947.433,1302.96" style="fill-rule:nonzero;"/>
        </g>
        <g transform="matrix(1,0,0,1,0,-388.615)">
            <path d="M1096.05,1322.69C1096.05,1321.58 1095.63,1320.64 1094.78,1319.86C1093.93,1319.01 1092.96,1318.59 1091.85,1318.59C1089.9,1318.59 1085.96,1320.54 1080.03,1324.45C1073.91,1328.42 1070.17,1331.25 1068.8,1332.94C1068.09,1333.86 1067.73,1334.8 1067.73,1335.78C1067.73,1336.88 1068.15,1337.83 1069,1338.61C1069.78,1339.45 1070.76,1339.88 1071.93,1339.88C1073.82,1339.88 1077.79,1337.92 1083.84,1334.02C1089.83,1330.11 1093.54,1327.28 1094.98,1325.52C1095.69,1324.68 1096.05,1323.73 1096.05,1322.69M1090.87,1315.46C1096.47,1315.46 1099.27,1317.87 1099.27,1322.69C1099.27,1325.03 1098.59,1327.77 1097.22,1330.89C1095.85,1333.95 1094.03,1336.3 1091.75,1337.92C1086.74,1341.31 1080.46,1343 1072.9,1343C1067.31,1343 1064.51,1340.59 1064.51,1335.78C1064.51,1333.63 1065.19,1330.93 1066.56,1327.67C1067.86,1324.55 1069.68,1322.17 1072.03,1320.54C1077.04,1317.16 1083.32,1315.46 1090.87,1315.46" style="fill-rule:nonzero;"/>
        </g>
        <g transform="matrix(1,0,0,1,0,-388.615)">
            <path d="M1201.96,1347.69C1201.96,1346.58 1201.54,1345.64 1200.69,1344.86C1199.85,1344.01 1198.87,1343.59 1197.76,1343.59C1195.81,1343.59 1191.87,1345.54 1185.95,1349.45C1179.83,1353.42 1176.09,1356.25 1174.72,1357.94C1174,1358.86 1173.64,1359.8 1173.64,1360.78C1173.64,1361.88 1174.07,1362.83 1174.91,1363.61C1175.69,1364.45 1176.67,1364.88 1177.84,1364.88C1179.73,1364.88 1183.7,1362.92 1189.76,1359.02C1195.75,1355.11 1199.46,1352.28 1200.89,1350.52C1201.61,1349.68 1201.96,1348.73 1201.96,1347.69M1196.79,1340.46C1202.39,1340.46 1205.19,1342.87 1205.19,1347.69C1205.19,1350.03 1204.5,1352.77 1203.14,1355.89C1201.77,1358.95 1199.95,1361.3 1197.67,1362.92C1192.65,1366.31 1186.37,1368 1178.82,1368C1173.22,1368 1170.42,1365.59 1170.42,1360.78C1170.42,1358.63 1171.1,1355.93 1172.47,1352.67C1173.77,1349.55 1175.6,1347.17 1177.94,1345.54C1182.95,1342.16 1189.24,1340.46 1196.79,1340.46" style="fill-rule:nonzero;"/>
        </g>
        <g transform="matrix(1,0,0,1,-1745.35,130.112)">
            <path d="M2092.32,1285.19C2092.32,1284.08 2091.9,1283.14 2091.05,1282.36C2090.21,1281.51 2089.23,1281.09 2088.12,1281.09C2086.17,1281.09 2082.23,1283.04 2076.31,1286.95C2070.19,1290.92 2066.44,1293.75 2065.07,1295.44C2064.36,1296.36 2064,1297.3 2064,1298.28C2064,1299.38 2064.42,1300.33 2065.27,1301.11C2066.05,1301.95 2067.03,1302.38 2068.2,1302.38C2070.09,1302.38 2074.06,1300.42 2080.11,1296.52C2086.1,1292.61 2089.81,1289.78 2091.25,1288.02C2091.96,1287.18 2092.32,1286.23 2092.32,1285.19M2087.15,1277.96C2092.74,1277.96 2095.54,1280.37 2095.54,1285.19C2095.54,1287.53 2094.86,1290.27 2093.49,1293.39C2092.13,1296.45 2090.3,1298.8 2088.02,1300.42C2083.01,1303.81 2076.73,1305.5 2069.18,1305.5C2063.58,1305.5 2060.78,1303.09 2060.78,1298.28C2060.78,1296.13 2061.46,1293.43 2062.83,1290.17C2064.13,1287.05 2065.95,1284.67 2068.3,1283.04C2073.31,1279.66 2079.59,1277.96 2087.15,1277.96" style="fill-rule:nonzero;"/>
        </g>
        <g transform="matrix(1,0,0,1,-1745.35,130.112)">
            <path d="M2217.6,1310.19C2217.6,1309.08 2217.17,1308.14 2216.33,1307.36C2215.48,1306.51 2214.51,1306.09 2213.4,1306.09C2211.45,1306.09 2207.51,1308.04 2201.58,1311.95C2195.46,1315.92 2191.72,1318.75 2190.35,1320.44C2189.64,1321.36 2189.28,1322.3 2189.28,1323.28C2189.28,1324.38 2189.7,1325.33 2190.55,1326.11C2191.33,1326.95 2192.3,1327.38 2193.48,1327.38C2195.36,1327.38 2199.34,1325.42 2205.39,1321.52C2211.38,1317.61 2215.09,1314.78 2216.52,1313.02C2217.24,1312.18 2217.6,1311.23 2217.6,1310.19M2212.42,1302.96C2218.02,1302.96 2220.82,1305.37 2220.82,1310.19C2220.82,1312.53 2220.14,1315.27 2218.77,1318.39C2217.4,1321.45 2215.58,1323.8 2213.3,1325.42C2208.29,1328.81 2202.01,1330.5 2194.45,1330.5C2188.85,1330.5 2186.05,1328.09 2186.05,1323.28C2186.05,1321.13 2186.74,1318.43 2188.11,1315.17C2189.41,1312.05 2191.23,1309.67 2193.57,1308.04C2198.59,1304.66 2204.87,1302.96 2212.42,1302.96" style="fill-rule:nonzero;"/>
        </g>
        <g transform="matrix(1,0,0,1,-1745.35,130.112)">
            <path d="M2363.21,1315.46C2366.33,1315.46 2368.97,1316.28 2371.12,1317.9C2373.13,1319.66 2374.14,1321.88 2374.14,1324.55C2374.14,1329.04 2371.83,1333.24 2367.21,1337.14C2362.52,1341.05 2357.51,1343 2352.17,1343C2349.05,1343 2346.41,1342.19 2344.26,1340.56C2342.24,1338.8 2341.23,1336.59 2341.23,1333.92C2341.23,1329.43 2343.58,1325.23 2348.26,1321.32C2352.82,1317.42 2357.8,1315.46 2363.21,1315.46" style="fill-rule:nonzero;"/>
        </g>
        <g transform="matrix(1,0,0,1,-1745.35,130.112)">
            <path d="M2448.53,1290.46C2451.66,1290.46 2454.29,1291.28 2456.44,1292.9C2458.46,1294.66 2459.47,1296.88 2459.47,1299.55C2459.47,1304.04 2457.16,1308.24 2452.53,1312.14C2447.85,1316.05 2442.83,1318 2437.5,1318C2434.37,1318 2431.73,1317.19 2429.59,1315.56C2427.57,1313.8 2426.56,1311.59 2426.56,1308.92C2426.56,1304.43 2428.9,1300.23 2433.59,1296.32C2438.15,1292.42 2443.13,1290.46 2448.53,1290.46" style="fill-rule:nonzero;"/>
        </g>
        <g transform="matrix(1,0,0,1,-1745.35,130.112)">
            <path d="M2533.86,1302.96C2536.98,1302.96 2539.62,1303.78 2541.77,1305.4C2543.78,1307.16 2544.79,1309.38 2544.79,1312.05C2544.79,1316.54 2542.48,1320.74 2537.86,1324.64C2533.17,1328.55 2528.16,1330.5 2522.82,1330.5C2519.7,1330.5 2517.06,1329.69 2514.91,1328.06C2512.89,1326.3 2511.88,1324.09 2511.88,1321.42C2511.88,1316.93 2514.23,1312.73 2518.91,1308.82C2523.47,1304.92 2528.45,1302.96 2533.86,1302.96" style="fill-rule:nonzero;"/>
        </g>
        <g transform="matrix(1,0,0,1,-1745.35,130.112)">
            <path d="M2619.18,1315.46C2622.31,1315.46 2624.94,1316.28 2627.09,1317.9C2629.11,1319.66 2630.12,1321.88 2630.12,1324.55C2630.12,1329.04 2627.81,1333.24 2623.18,1337.14C2618.5,1341.05 2613.48,1343 2608.15,1343C2605.02,1343 2602.38,1342.19 2600.23,1340.56C2598.22,1338.8 2597.21,1336.59 2597.21,1333.92C2597.21,1329.43 2599.55,1325.23 2604.24,1321.32C2608.8,1317.42 2613.78,1315.46 2619.18,1315.46" style="fill-rule:nonzero;"/>
        </g>
        <g transform="matrix(1,0,0,1,-1745.35,130.112)">
            <path d="M2756.99,1305.5C2754.65,1305.5 2752.95,1306.32 2751.91,1307.94C2750.74,1309.51 2750.15,1311.62 2750.15,1314.29C2750.15,1317.35 2750.97,1319.99 2752.59,1322.2C2754.22,1324.35 2756.01,1325.85 2757.97,1326.69C2759.72,1327.54 2761.58,1327.96 2763.53,1327.96C2765.81,1327.96 2767.54,1327.15 2768.71,1325.52C2769.81,1323.89 2770.37,1321.78 2770.37,1319.17C2770.37,1316.11 2769.55,1313.48 2767.93,1311.26C2766.3,1309.18 2764.54,1307.68 2762.65,1306.77C2760.77,1305.93 2758.88,1305.5 2756.99,1305.5M2760.31,1302.96C2767.34,1302.96 2773.2,1304.33 2777.89,1307.07C2782.64,1309.8 2785.02,1313.02 2785.02,1316.73C2785.02,1320.7 2782.58,1323.96 2777.69,1326.5C2772.81,1329.17 2767.02,1330.5 2760.31,1330.5C2753.41,1330.5 2747.55,1329.14 2742.73,1326.4C2737.91,1323.67 2735.5,1320.44 2735.5,1316.73C2735.5,1312.76 2737.98,1309.51 2742.93,1306.97C2747.81,1304.3 2753.6,1302.96 2760.31,1302.96" style="fill-rule:nonzero;"/>
        </g>
        <g transform="matrix(1,0,0,1,0,-142.646)">
            <path d="M198.451,841.147L199.037,841.147C199.297,841.082 199.525,841.049 199.721,841.049C207.012,841.049 213.002,843.621 217.689,848.764C222.377,853.842 224.721,859.767 224.721,866.537C224.721,874.936 221.238,881.772 214.271,887.045C212.448,888.478 210.072,889.649 207.142,890.561C207.468,894.793 207.631,898.211 207.631,900.815C207.631,901.336 207.566,903.224 207.435,906.479C207.175,912.534 205.092,917.774 201.185,922.201C197.409,926.563 192.722,928.744 187.123,928.744C181.849,928.744 177.357,926.889 173.646,923.178C169.935,919.402 168.08,914.845 168.08,909.506C168.08,906.707 169.154,904.33 171.303,902.377C173.516,900.424 176.088,899.448 179.017,899.448C181.622,899.448 183.803,900.457 185.56,902.475C187.383,904.363 188.295,906.707 188.295,909.506C188.295,912.045 187.383,914.226 185.56,916.049C183.738,917.872 181.557,918.784 179.017,918.784C177.976,918.784 176.967,918.588 175.99,918.198C178.855,922.429 182.663,924.545 187.416,924.545C191.908,924.545 195.586,922.722 198.451,919.076C201.446,915.3 203.073,910.906 203.334,905.893C203.464,902.768 203.529,900.978 203.529,900.522C203.529,896.876 203.399,893.881 203.139,891.537C199.883,892.058 196.986,892.319 194.447,892.319C185.398,892.319 177.683,888.738 171.303,881.576C165.053,874.35 161.928,865.756 161.928,855.795C161.928,853.712 162.123,851.596 162.514,849.448C162.904,847.69 163.392,845.769 163.978,843.686C164.304,842.514 165.183,840.626 166.615,838.022C167.136,837.241 167.722,836.264 168.373,835.092C169.024,833.92 169.48,833.139 169.74,832.748C170.391,831.446 171.661,829.688 173.549,827.475C174.07,826.889 174.607,826.238 175.16,825.522C175.713,824.806 176.185,824.22 176.576,823.764C176.967,823.308 177.26,822.95 177.455,822.69C177.65,822.429 179.115,820.704 181.849,817.514C182.501,816.863 183.135,816.163 183.754,815.414C184.372,814.666 184.877,814.08 185.267,813.657C185.658,813.233 185.951,812.924 186.146,812.729C183.803,804.981 182.338,798.797 181.752,794.174C181.296,790.463 181.068,785.385 181.068,778.94C181.068,773.276 182.37,767.97 184.974,763.022C187.514,757.879 191.062,753.679 195.619,750.424C195.879,750.229 196.205,750.131 196.596,750.131C197.051,750.131 197.377,750.229 197.572,750.424C201.088,754.656 204.115,760.157 206.654,766.928C209.258,773.699 210.56,779.851 210.56,785.385C210.56,791.635 209.063,797.494 206.068,802.963C202.683,808.757 198.321,814.747 192.982,820.932C194.349,825.229 196.172,831.967 198.451,841.147M206.752,886.557C210.137,885.32 212.774,883.204 214.662,880.209C216.745,877.345 217.787,874.122 217.787,870.541C217.787,865.919 216.224,861.817 213.099,858.237C209.909,854.526 205.84,852.442 200.892,851.987C203.692,865.724 205.645,877.247 206.752,886.557M168.959,863.998C168.959,870.444 171.563,876.108 176.771,880.991C182.11,885.743 188.099,888.119 194.74,888.119C197.474,888.119 200.144,887.924 202.748,887.534C201.706,877.638 199.655,865.789 196.596,851.987C192.885,852.377 189.922,853.679 187.709,855.893C185.56,858.172 184.486,860.743 184.486,863.608C184.486,868.556 187.123,872.56 192.396,875.619C192.852,876.075 193.08,876.563 193.08,877.084C193.08,877.605 192.852,878.093 192.396,878.549C192.006,879.005 191.517,879.233 190.932,879.233C190.866,879.233 190.573,879.168 190.053,879.037C186.342,877.019 183.477,874.415 181.459,871.225C179.571,867.84 178.627,864.422 178.627,860.971C178.627,856.479 180.027,852.41 182.826,848.764C185.756,845.118 189.564,842.774 194.252,841.733C192.429,834.441 190.932,828.744 189.76,824.643C188.718,825.815 187.465,827.231 186,828.891C184.535,830.551 183.672,831.544 183.412,831.869C181.068,834.929 179.278,837.306 178.041,838.998C175.827,842.058 174.2,844.695 173.158,846.909C172.051,849.382 171.075,852.084 170.228,855.014C169.382,857.813 168.959,860.808 168.959,863.998M201.576,764.682C196.693,767.091 192.852,770.541 190.053,775.034C187.188,779.656 185.756,784.636 185.756,789.975C185.756,794.662 186.928,800.978 189.271,808.92C193.959,803.256 197.474,798.015 199.818,793.198C202.292,788.119 203.529,782.813 203.529,777.28C203.529,773.113 202.878,768.914 201.576,764.682" style="fill-rule:nonzero;"/>
        </g>
        <g transform="matrix(1,0,0,1,-1760.81,336.936)">
            <path d="M1959.26,841.147L1959.84,841.147C1960.1,841.082 1960.33,841.049 1960.53,841.049C1967.82,841.049 1973.81,843.621 1978.5,848.764C1983.18,853.842 1985.53,859.767 1985.53,866.537C1985.53,874.936 1982.04,881.772 1975.08,887.045C1973.26,888.478 1970.88,889.649 1967.95,890.561C1968.27,894.793 1968.44,898.211 1968.44,900.815C1968.44,901.336 1968.37,903.224 1968.24,906.479C1967.98,912.534 1965.9,917.774 1961.99,922.201C1958.22,926.563 1953.53,928.744 1947.93,928.744C1942.66,928.744 1938.16,926.889 1934.45,923.178C1930.74,919.402 1928.89,914.845 1928.89,909.506C1928.89,906.707 1929.96,904.33 1932.11,902.377C1934.32,900.424 1936.89,899.448 1939.82,899.448C1942.43,899.448 1944.61,900.457 1946.37,902.475C1948.19,904.363 1949.1,906.707 1949.1,909.506C1949.1,912.045 1948.19,914.226 1946.37,916.049C1944.54,917.872 1942.36,918.784 1939.82,918.784C1938.78,918.784 1937.77,918.588 1936.8,918.198C1939.66,922.429 1943.47,924.545 1948.22,924.545C1952.71,924.545 1956.39,922.722 1959.26,919.076C1962.25,915.3 1963.88,910.906 1964.14,905.893C1964.27,902.768 1964.34,900.978 1964.34,900.522C1964.34,896.876 1964.21,893.881 1963.95,891.537C1960.69,892.058 1957.79,892.319 1955.25,892.319C1946.2,892.319 1938.49,888.738 1932.11,881.576C1925.86,874.35 1922.73,865.756 1922.73,855.795C1922.73,853.712 1922.93,851.596 1923.32,849.448C1923.71,847.69 1924.2,845.769 1924.79,843.686C1925.11,842.514 1925.99,840.626 1927.42,838.022C1927.94,837.241 1928.53,836.264 1929.18,835.092C1929.83,833.92 1930.29,833.139 1930.55,832.748C1931.2,831.446 1932.47,829.688 1934.36,827.475C1934.88,826.889 1935.41,826.238 1935.97,825.522C1936.52,824.806 1936.99,824.22 1937.38,823.764C1937.77,823.308 1938.07,822.95 1938.26,822.69C1938.46,822.429 1939.92,820.704 1942.66,817.514C1943.31,816.863 1943.94,816.163 1944.56,815.414C1945.18,814.666 1945.68,814.08 1946.07,813.657C1946.46,813.233 1946.76,812.924 1946.95,812.729C1944.61,804.981 1943.14,798.797 1942.56,794.174C1942.1,790.463 1941.88,785.385 1941.88,778.94C1941.88,773.276 1943.18,767.97 1945.78,763.022C1948.32,757.879 1951.87,753.679 1956.43,750.424C1956.69,750.229 1957.01,750.131 1957.4,750.131C1957.86,750.131 1958.18,750.229 1958.38,750.424C1961.89,754.656 1964.92,760.157 1967.46,766.928C1970.07,773.699 1971.37,779.851 1971.37,785.385C1971.37,791.635 1969.87,797.494 1966.88,802.963C1963.49,808.757 1959.13,814.747 1953.79,820.932C1955.16,825.229 1956.98,831.967 1959.26,841.147M1967.56,886.557C1970.94,885.32 1973.58,883.204 1975.47,880.209C1977.55,877.345 1978.59,874.122 1978.59,870.541C1978.59,865.919 1977.03,861.817 1973.91,858.237C1970.72,854.526 1966.65,852.442 1961.7,851.987C1964.5,865.724 1966.45,877.247 1967.56,886.557M1929.77,863.998C1929.77,870.444 1932.37,876.108 1937.58,880.991C1942.92,885.743 1948.91,888.119 1955.55,888.119C1958.28,888.119 1960.95,887.924 1963.55,887.534C1962.51,877.638 1960.46,865.789 1957.4,851.987C1953.69,852.377 1950.73,853.679 1948.52,855.893C1946.37,858.172 1945.29,860.743 1945.29,863.608C1945.29,868.556 1947.93,872.56 1953.2,875.619C1953.66,876.075 1953.89,876.563 1953.89,877.084C1953.89,877.605 1953.66,878.093 1953.2,878.549C1952.81,879.005 1952.32,879.233 1951.74,879.233C1951.67,879.233 1951.38,879.168 1950.86,879.037C1947.15,877.019 1944.28,874.415 1942.27,871.225C1940.38,867.84 1939.43,864.422 1939.43,860.971C1939.43,856.479 1940.83,852.41 1943.63,848.764C1946.56,845.118 1950.37,842.774 1955.06,841.733C1953.24,834.441 1951.74,828.744 1950.57,824.643C1949.52,825.815 1948.27,827.231 1946.81,828.891C1945.34,830.551 1944.48,831.544 1944.22,831.869C1941.88,834.929 1940.08,837.306 1938.85,838.998C1936.63,842.058 1935.01,844.695 1933.96,846.909C1932.86,849.382 1931.88,852.084 1931.04,855.014C1930.19,857.813 1929.77,860.808 1929.77,863.998M1962.38,764.682C1957.5,767.091 1953.66,770.541 1950.86,775.034C1947.99,779.656 1946.56,784.636 1946.56,789.975C1946.56,794.662 1947.73,800.978 1950.08,808.92C1954.77,803.256 1958.28,798.015 1960.63,793.198C1963.1,788.119 1964.34,782.813 1964.34,777.28C1964.34,773.113 1963.69,768.914 1962.38,764.682" style="fill-rule:nonzero;"/>
        </g>
        <g transform="matrix(1,0,0,1,0,-388.615)">
            <path d="M198.451,1316.15L199.037,1316.15C199.297,1316.08 199.525,1316.05 199.721,1316.05C207.012,1316.05 213.002,1318.62 217.689,1323.76C222.377,1328.84 224.721,1334.77 224.721,1341.54C224.721,1349.94 221.238,1356.77 214.271,1362.05C212.448,1363.48 210.072,1364.65 207.142,1365.56C207.468,1369.79 207.631,1373.21 207.631,1375.82C207.631,1376.34 207.566,1378.22 207.435,1381.48C207.175,1387.53 205.092,1392.77 201.185,1397.2C197.409,1401.56 192.722,1403.74 187.123,1403.74C181.849,1403.74 177.357,1401.89 173.646,1398.18C169.935,1394.4 168.08,1389.85 168.08,1384.51C168.08,1381.71 169.154,1379.33 171.303,1377.38C173.516,1375.42 176.088,1374.45 179.017,1374.45C181.622,1374.45 183.803,1375.46 185.56,1377.48C187.383,1379.36 188.295,1381.71 188.295,1384.51C188.295,1387.05 187.383,1389.23 185.56,1391.05C183.738,1392.87 181.557,1393.78 179.017,1393.78C177.976,1393.78 176.967,1393.59 175.99,1393.2C178.855,1397.43 182.663,1399.55 187.416,1399.55C191.908,1399.55 195.586,1397.72 198.451,1394.08C201.446,1390.3 203.073,1385.91 203.334,1380.89C203.464,1377.77 203.529,1375.98 203.529,1375.52C203.529,1371.88 203.399,1368.88 203.139,1366.54C199.883,1367.06 196.986,1367.32 194.447,1367.32C185.398,1367.32 177.683,1363.74 171.303,1356.58C165.053,1349.35 161.928,1340.76 161.928,1330.8C161.928,1328.71 162.123,1326.6 162.514,1324.45C162.904,1322.69 163.392,1320.77 163.978,1318.69C164.304,1317.51 165.183,1315.63 166.615,1313.02C167.136,1312.24 167.722,1311.26 168.373,1310.09C169.024,1308.92 169.48,1308.14 169.74,1307.75C170.391,1306.45 171.661,1304.69 173.549,1302.48C174.07,1301.89 174.607,1301.24 175.16,1300.52C175.713,1299.81 176.185,1299.22 176.576,1298.76C176.967,1298.31 177.26,1297.95 177.455,1297.69C177.65,1297.43 179.115,1295.7 181.849,1292.51C182.501,1291.86 183.135,1291.16 183.754,1290.41C184.372,1289.67 184.877,1289.08 185.267,1288.66C185.658,1288.23 185.951,1287.92 186.146,1287.73C183.803,1279.98 182.338,1273.8 181.752,1269.17C181.296,1265.46 181.068,1260.39 181.068,1253.94C181.068,1248.28 182.37,1242.97 184.974,1238.02C187.514,1232.88 191.062,1228.68 195.619,1225.42C195.879,1225.23 196.205,1225.13 196.596,1225.13C197.051,1225.13 197.377,1225.23 197.572,1225.42C201.088,1229.66 204.115,1235.16 206.654,1241.93C209.258,1248.7 210.56,1254.85 210.56,1260.39C210.56,1266.64 209.063,1272.49 206.068,1277.96C202.683,1283.76 198.321,1289.75 192.982,1295.93C194.349,1300.23 196.172,1306.97 198.451,1316.15M206.752,1361.56C210.137,1360.32 212.774,1358.2 214.662,1355.21C216.745,1352.35 217.787,1349.12 217.787,1345.54C217.787,1340.92 216.224,1336.82 213.099,1333.24C209.909,1329.53 205.84,1327.44 200.892,1326.99C203.692,1340.72 205.645,1352.25 206.752,1361.56M168.959,1339C168.959,1345.44 171.563,1351.11 176.771,1355.99C182.11,1360.74 188.099,1363.12 194.74,1363.12C197.474,1363.12 200.144,1362.92 202.748,1362.53C201.706,1352.64 199.655,1340.79 196.596,1326.99C192.885,1327.38 189.922,1328.68 187.709,1330.89C185.56,1333.17 184.486,1335.74 184.486,1338.61C184.486,1343.56 187.123,1347.56 192.396,1350.62C192.852,1351.08 193.08,1351.56 193.08,1352.08C193.08,1352.61 192.852,1353.09 192.396,1353.55C192.006,1354.01 191.517,1354.23 190.932,1354.23C190.866,1354.23 190.573,1354.17 190.053,1354.04C186.342,1352.02 183.477,1349.42 181.459,1346.23C179.571,1342.84 178.627,1339.42 178.627,1335.97C178.627,1331.48 180.027,1327.41 182.826,1323.76C185.756,1320.12 189.564,1317.77 194.252,1316.73C192.429,1309.44 190.932,1303.74 189.76,1299.64C188.718,1300.82 187.465,1302.23 186,1303.89C184.535,1305.55 183.672,1306.54 183.412,1306.87C181.068,1309.93 179.278,1312.31 178.041,1314C175.827,1317.06 174.2,1319.7 173.158,1321.91C172.051,1324.38 171.075,1327.08 170.228,1330.01C169.382,1332.81 168.959,1335.81 168.959,1339M201.576,1239.68C196.693,1242.09 192.852,1245.54 190.053,1250.03C187.188,1254.66 185.756,1259.64 185.756,1264.98C185.756,1269.66 186.928,1275.98 189.271,1283.92C193.959,1278.26 197.474,1273.02 199.818,1268.2C202.292,1263.12 203.529,1257.81 203.529,1252.28C203.529,1248.11 202.878,1243.91 201.576,1239.68" style="fill-rule:nonzero;"/>
        </g>
        <g transform="matrix(1,0,0,1,-1745.35,130.112)">
            <path d="M1943.8,1316.15L1944.39,1316.15C1944.65,1316.08 1944.88,1316.05 1945.07,1316.05C1952.36,1316.05 1958.35,1318.62 1963.04,1323.76C1967.73,1328.84 1970.07,1334.77 1970.07,1341.54C1970.07,1349.94 1966.59,1356.77 1959.62,1362.05C1957.8,1363.48 1955.42,1364.65 1952.49,1365.56C1952.82,1369.79 1952.98,1373.21 1952.98,1375.82C1952.98,1376.34 1952.92,1378.22 1952.79,1381.48C1952.53,1387.53 1950.44,1392.77 1946.54,1397.2C1942.76,1401.56 1938.07,1403.74 1932.47,1403.74C1927.2,1403.74 1922.71,1401.89 1919,1398.18C1915.29,1394.4 1913.43,1389.85 1913.43,1384.51C1913.43,1381.71 1914.5,1379.33 1916.65,1377.38C1918.87,1375.42 1921.44,1374.45 1924.37,1374.45C1926.97,1374.45 1929.15,1375.46 1930.91,1377.48C1932.73,1379.36 1933.65,1381.71 1933.65,1384.51C1933.65,1387.05 1932.73,1389.23 1930.91,1391.05C1929.09,1392.87 1926.91,1393.78 1924.37,1393.78C1923.33,1393.78 1922.32,1393.59 1921.34,1393.2C1924.2,1397.43 1928.01,1399.55 1932.77,1399.55C1937.26,1399.55 1940.94,1397.72 1943.8,1394.08C1946.8,1390.3 1948.42,1385.91 1948.68,1380.89C1948.81,1377.77 1948.88,1375.98 1948.88,1375.52C1948.88,1371.88 1948.75,1368.88 1948.49,1366.54C1945.23,1367.06 1942.34,1367.32 1939.8,1367.32C1930.75,1367.32 1923.03,1363.74 1916.65,1356.58C1910.4,1349.35 1907.28,1340.76 1907.28,1330.8C1907.28,1328.71 1907.47,1326.6 1907.86,1324.45C1908.25,1322.69 1908.74,1320.77 1909.33,1318.69C1909.65,1317.51 1910.53,1315.63 1911.97,1313.02C1912.49,1312.24 1913.07,1311.26 1913.72,1310.09C1914.37,1308.92 1914.83,1308.14 1915.09,1307.75C1915.74,1306.45 1917.01,1304.69 1918.9,1302.48C1919.42,1301.89 1919.96,1301.24 1920.51,1300.52C1921.06,1299.81 1921.54,1299.22 1921.93,1298.76C1922.32,1298.31 1922.61,1297.95 1922.81,1297.69C1923,1297.43 1924.47,1295.7 1927.2,1292.51C1927.85,1291.86 1928.49,1291.16 1929.1,1290.41C1929.72,1289.67 1930.23,1289.08 1930.62,1288.66C1931.01,1288.23 1931.3,1287.92 1931.5,1287.73C1929.15,1279.98 1927.69,1273.8 1927.1,1269.17C1926.65,1265.46 1926.42,1260.39 1926.42,1253.94C1926.42,1248.28 1927.72,1242.97 1930.32,1238.02C1932.86,1232.88 1936.41,1228.68 1940.97,1225.42C1941.23,1225.23 1941.56,1225.13 1941.95,1225.13C1942.4,1225.13 1942.73,1225.23 1942.92,1225.42C1946.44,1229.66 1949.47,1235.16 1952,1241.93C1954.61,1248.7 1955.91,1254.85 1955.91,1260.39C1955.91,1266.64 1954.41,1272.49 1951.42,1277.96C1948.03,1283.76 1943.67,1289.75 1938.33,1295.93C1939.7,1300.23 1941.52,1306.97 1943.8,1316.15M1952.1,1361.56C1955.49,1360.32 1958.12,1358.2 1960.01,1355.21C1962.1,1352.35 1963.14,1349.12 1963.14,1345.54C1963.14,1340.92 1961.57,1336.82 1958.45,1333.24C1955.26,1329.53 1951.19,1327.44 1946.24,1326.99C1949.04,1340.72 1951,1352.25 1952.1,1361.56M1914.31,1339C1914.31,1345.44 1916.91,1351.11 1922.12,1355.99C1927.46,1360.74 1933.45,1363.12 1940.09,1363.12C1942.82,1363.12 1945.49,1362.92 1948.1,1362.53C1947.06,1352.64 1945.01,1340.79 1941.95,1326.99C1938.23,1327.38 1935.27,1328.68 1933.06,1330.89C1930.91,1333.17 1929.84,1335.74 1929.84,1338.61C1929.84,1343.56 1932.47,1347.56 1937.75,1350.62C1938.2,1351.08 1938.43,1351.56 1938.43,1352.08C1938.43,1352.61 1938.2,1353.09 1937.75,1353.55C1937.36,1354.01 1936.87,1354.23 1936.28,1354.23C1936.22,1354.23 1935.92,1354.17 1935.4,1354.04C1931.69,1352.02 1928.83,1349.42 1926.81,1346.23C1924.92,1342.84 1923.98,1339.42 1923.98,1335.97C1923.98,1331.48 1925.38,1327.41 1928.18,1323.76C1931.11,1320.12 1934.91,1317.77 1939.6,1316.73C1937.78,1309.44 1936.28,1303.74 1935.11,1299.64C1934.07,1300.82 1932.81,1302.23 1931.35,1303.89C1929.89,1305.55 1929.02,1306.54 1928.76,1306.87C1926.42,1309.93 1924.63,1312.31 1923.39,1314C1921.18,1317.06 1919.55,1319.7 1918.51,1321.91C1917.4,1324.38 1916.42,1327.08 1915.58,1330.01C1914.73,1332.81 1914.31,1335.81 1914.31,1339M1946.93,1239.68C1942.04,1242.09 1938.2,1245.54 1935.4,1250.03C1932.54,1254.66 1931.11,1259.64 1931.11,1264.98C1931.11,1269.66 1932.28,1275.98 1934.62,1283.92C1939.31,1278.26 1942.82,1273.02 1945.17,1268.2C1947.64,1263.12 1948.88,1257.81 1948.88,1252.28C1948.88,1248.11 1948.23,1243.91 1946.93,1239.68" style="fill-rule:nonzero;"/>
        </g>
    </g>
</svg>
