<?xml version="1.0" encoding="UTF-8" standalone="no"?>
<!DOCTYPE svg PUBLIC "-//W3C//DTD SVG 1.1//EN" "http://www.w3.org/Graphics/SVG/1.1/DTD/svg11.dtd">
<svg width="100%" height="100%" viewBox="0 0 2779 179" version="1.1" xmlns="http://www.w3.org/2000/svg" xmlns:xlink="http://www.w3.org/1999/xlink" xml:space="preserve" xmlns:serif="http://www.serif.com/" style="fill-rule:evenodd;clip-rule:evenodd;stroke-linejoin:bevel;">
    <g transform="matrix(1,0,0,1,-140.732,-2175.13)">
        <path d="M141.732,2216.73L2918.27,2216.73" style="fill:none;fill-rule:nonzero;stroke:black;stroke-width:2px;"/>
        <path d="M141.732,2241.73L2918.27,2241.73" style="fill:none;fill-rule:nonzero;stroke:black;stroke-width:2px;"/>
        <path d="M141.732,2266.73L2918.27,2266.73" style="fill:none;fill-rule:nonzero;stroke:black;stroke-width:2px;"/>
        <path d="M141.732,2291.73L2918.27,2291.73" style="fill:none;fill-rule:nonzero;stroke:black;stroke-width:2px;"/>
        <path d="M141.732,2316.73L2918.27,2316.73" style="fill:none;fill-rule:nonzero;stroke:black;stroke-width:2px;"/>
        <path d="M536.616,2215.73L536.616,2317.73" style="fill:none;fill-rule:nonzero;stroke:black;stroke-width:4px;"/>
        <path d="M827.831,2215.73L827.831,2317.73" style="fill:none;fill-rule:nonzero;stroke:black;stroke-width:4px;"/>
        <path d="M1120.85,2215.73L1120.85,2317.73" style="fill:none;fill-rule:nonzero;stroke:black;stroke-width:4px;"/>
        <path d="M1134.85,2215.73L1134.85,2317.73" style="fill:none;fill-rule:nonzero;stroke:black;stroke-width:4px;"/>
        <path d="M1426.07,2215.73L1426.07,2317.73" style="fill:none;fill-rule:nonzero;stroke:black;stroke-width:4px;"/>
        <path d="M1702.33,2215.73L1702.33,2317.73" style="fill:none;fill-rule:nonzero;stroke:black;stroke-width:4px;"/>
        <path d="M2018.4,2215.73L2018.4,2317.73" style="fill:none;fill-rule:nonzero;stroke:black;stroke-width:4px;"/>
        <path d="M2032.4,2215.73L2032.4,2317.73" style="fill:none;fill-rule:nonzero;stroke:black;stroke-width:4px;"/>
        <path d="M2309.93,2215.73L2309.93,2317.73" style="fill:none;fill-rule:nonzero;stroke:black;stroke-width:4px;"/>
        <path d="M2586.2,2215.73L2586.2,2317.73" style="fill:none;fill-rule:nonzero;stroke:black;stroke-width:4px;"/>
        <path d="M2902.27,2215.73L2902.27,2317.73" style="fill:none;fill-rule:nonzero;stroke:black;stroke-width:4px;"/>
        <path d="M2916.27,2215.73L2916.27,2317.73" style="fill:none;fill-rule:nonzero;stroke:black;stroke-width:4px;"/>
        <path d="M555.303,2275.13L555.303,2282.85C555.303,2285.58 555.433,2287.76 555.694,2289.39C557.842,2287.57 559.372,2286.2 560.284,2285.29C561.325,2284.25 562.367,2282.81 563.409,2280.99C564.45,2279.17 564.971,2277.35 564.971,2275.52C564.971,2273.7 564.58,2272.14 563.799,2270.84C563.018,2269.53 561.976,2268.88 560.674,2268.88C559.112,2268.88 557.81,2269.47 556.768,2270.64C555.791,2271.94 555.303,2273.44 555.303,2275.13M551.202,2293L549.932,2233.53C550.843,2233.01 551.755,2232.75 552.666,2232.75C553.578,2232.75 554.489,2233.01 555.401,2233.53L554.62,2268C557.289,2265.72 560.349,2264.59 563.799,2264.59C566.338,2264.59 568.454,2265.63 570.147,2267.71C571.84,2269.79 572.686,2272.17 572.686,2274.84C572.686,2276.53 572.133,2278.32 571.026,2280.21C569.984,2281.97 568.877,2283.34 567.705,2284.31C567.054,2284.83 565.394,2286.13 562.725,2288.22C561.944,2288.8 561.016,2289.49 559.942,2290.27C558.868,2291.05 558.2,2291.54 557.94,2291.73C557.484,2291.99 557.061,2292.51 556.67,2293.3C556.215,2293.95 555.694,2294.5 555.108,2294.96C554.652,2295.35 554.099,2295.54 553.448,2295.54C552.797,2295.54 552.276,2295.31 551.885,2294.86C551.429,2294.4 551.202,2293.78 551.202,2293" style="fill-rule:nonzero;"/>
        <path d="M848.323,2262.63L848.323,2270.35C848.323,2273.08 848.453,2275.26 848.714,2276.89C850.862,2275.07 852.392,2273.7 853.304,2272.79C854.345,2271.75 855.387,2270.31 856.429,2268.49C857.47,2266.67 857.991,2264.85 857.991,2263.02C857.991,2261.2 857.6,2259.64 856.819,2258.34C856.038,2257.03 854.996,2256.38 853.694,2256.38C852.132,2256.38 850.83,2256.97 849.788,2258.14C848.811,2259.44 848.323,2260.94 848.323,2262.63M844.222,2280.5L842.952,2221.03C843.863,2220.51 844.775,2220.25 845.686,2220.25C846.598,2220.25 847.509,2220.51 848.421,2221.03L847.639,2255.5C850.309,2253.22 853.369,2252.09 856.819,2252.09C859.358,2252.09 861.474,2253.13 863.167,2255.21C864.86,2257.29 865.706,2259.67 865.706,2262.34C865.706,2264.03 865.152,2265.82 864.046,2267.71C863.004,2269.47 861.897,2270.84 860.725,2271.81C860.074,2272.33 858.414,2273.63 855.745,2275.72C854.964,2276.3 854.036,2276.99 852.962,2277.77C851.888,2278.55 851.22,2279.04 850.96,2279.23C850.504,2279.49 850.081,2280.01 849.69,2280.8C849.235,2281.45 848.714,2282 848.128,2282.46C847.672,2282.85 847.119,2283.04 846.468,2283.04C845.817,2283.04 845.296,2282.81 844.905,2282.36C844.449,2281.9 844.222,2281.28 844.222,2280.5" style="fill-rule:nonzero;"/>
        <path d="M1153.54,2275.13L1153.54,2282.85C1153.54,2285.58 1153.67,2287.76 1153.93,2289.39C1156.08,2287.57 1157.61,2286.2 1158.52,2285.29C1159.56,2284.25 1160.6,2282.81 1161.64,2280.99C1162.69,2279.17 1163.21,2277.35 1163.21,2275.52C1163.21,2273.7 1162.82,2272.14 1162.03,2270.84C1161.25,2269.53 1160.21,2268.88 1158.91,2268.88C1157.35,2268.88 1156.04,2269.47 1155,2270.64C1154.03,2271.94 1153.54,2273.44 1153.54,2275.13M1149.44,2293L1148.17,2233.53C1149.08,2233.01 1149.99,2232.75 1150.9,2232.75C1151.81,2232.75 1152.72,2233.01 1153.64,2233.53L1152.85,2268C1155.52,2265.72 1158.58,2264.59 1162.03,2264.59C1164.57,2264.59 1166.69,2265.63 1168.38,2267.71C1170.07,2269.79 1170.92,2272.17 1170.92,2274.84C1170.92,2276.53 1170.37,2278.32 1169.26,2280.21C1168.22,2281.97 1167.11,2283.34 1165.94,2284.31C1165.29,2284.83 1163.63,2286.13 1160.96,2288.22C1160.18,2288.8 1159.25,2289.49 1158.18,2290.27C1157.1,2291.05 1156.44,2291.54 1156.18,2291.73C1155.72,2291.99 1155.3,2292.51 1154.91,2293.3C1154.45,2293.95 1153.93,2294.5 1153.34,2294.96C1152.89,2295.35 1152.33,2295.54 1151.68,2295.54C1151.03,2295.54 1150.51,2295.31 1150.12,2294.86C1149.66,2294.4 1149.44,2293.78 1149.44,2293" style="fill-rule:nonzero;"/>
        <path d="M1849.79,2237.63L1849.79,2245.35C1849.79,2248.08 1849.92,2250.26 1850.18,2251.89C1852.32,2250.07 1853.85,2248.7 1854.77,2247.79C1855.81,2246.75 1856.85,2245.31 1857.89,2243.49C1858.93,2241.67 1859.45,2239.85 1859.45,2238.02C1859.45,2236.2 1859.06,2234.64 1858.28,2233.34C1857.5,2232.03 1856.46,2231.38 1855.16,2231.38C1853.59,2231.38 1852.29,2231.97 1851.25,2233.14C1850.27,2234.44 1849.79,2235.94 1849.79,2237.63M1845.68,2255.5L1844.41,2196.03C1845.33,2195.51 1846.24,2195.25 1847.15,2195.25C1848.06,2195.25 1848.97,2195.51 1849.88,2196.03L1849.1,2230.5C1851.77,2228.22 1854.83,2227.09 1858.28,2227.09C1860.82,2227.09 1862.94,2228.13 1864.63,2230.21C1866.32,2232.29 1867.17,2234.67 1867.17,2237.34C1867.17,2239.03 1866.61,2240.82 1865.51,2242.71C1864.47,2244.47 1863.36,2245.84 1862.19,2246.81C1861.54,2247.33 1859.88,2248.63 1857.21,2250.72C1856.43,2251.3 1855.5,2251.99 1854.42,2252.77C1853.35,2253.55 1852.68,2254.04 1852.42,2254.23C1851.97,2254.49 1851.54,2255.01 1851.15,2255.8C1850.7,2256.45 1850.18,2257 1849.59,2257.46C1849.13,2257.85 1848.58,2258.04 1847.93,2258.04C1847.28,2258.04 1846.76,2257.81 1846.37,2257.36C1845.91,2256.9 1845.68,2256.28 1845.68,2255.5" style="fill-rule:nonzero;"/>
        <path d="M2733.65,2262.63L2733.65,2270.35C2733.65,2273.08 2733.78,2275.26 2734.04,2276.89C2736.19,2275.07 2737.72,2273.7 2738.63,2272.79C2739.67,2271.75 2740.71,2270.31 2741.76,2268.49C2742.8,2266.67 2743.32,2264.85 2743.32,2263.02C2743.32,2261.2 2742.93,2259.64 2742.15,2258.34C2741.37,2257.03 2740.32,2256.38 2739.02,2256.38C2737.46,2256.38 2736.16,2256.97 2735.12,2258.14C2734.14,2259.44 2733.65,2260.94 2733.65,2262.63M2729.55,2280.5L2728.28,2221.03C2729.19,2220.51 2730.1,2220.25 2731.01,2220.25C2731.93,2220.25 2732.84,2220.51 2733.75,2221.03L2732.97,2255.5C2735.64,2253.22 2738.7,2252.09 2742.15,2252.09C2744.69,2252.09 2746.8,2253.13 2748.49,2255.21C2750.19,2257.29 2751.03,2259.67 2751.03,2262.34C2751.03,2264.03 2750.48,2265.82 2749.37,2267.71C2748.33,2269.47 2747.22,2270.84 2746.05,2271.81C2745.4,2272.33 2743.74,2273.63 2741.07,2275.72C2740.29,2276.3 2739.36,2276.99 2738.29,2277.77C2737.21,2278.55 2736.55,2279.04 2736.29,2279.23C2735.83,2279.49 2735.41,2280.01 2735.02,2280.8C2734.56,2281.45 2734.04,2282 2733.46,2282.46C2733,2282.85 2732.45,2283.04 2731.79,2283.04C2731.14,2283.04 2730.62,2282.81 2730.23,2282.36C2729.78,2281.9 2729.55,2281.28 2729.55,2280.5" style="fill-rule:nonzero;"/>
        <path d="M320.264,2287.89L320.264,2207.36" style="fill:none;fill-rule:nonzero;stroke:black;stroke-width:3.25px;stroke-linecap:round;"/>
        <path d="M443.535,2325.39L443.535,2241.73" style="fill:none;fill-rule:nonzero;stroke:black;stroke-width:3.25px;stroke-linecap:round;"/>
        <path d="M611.479,2275.39L611.479,2197.98" style="fill:none;fill-rule:nonzero;stroke:black;stroke-width:3.25px;stroke-linecap:round;"/>
        <path d="M734.751,2287.89L734.751,2207.36" style="fill:none;fill-rule:nonzero;stroke:black;stroke-width:3.25px;stroke-linecap:round;"/>
        <path d="M873.03,2270.65L873.03,2344.86" style="fill:none;fill-rule:nonzero;stroke:black;stroke-width:3.25px;stroke-linecap:round;"/>
        <path d="M1027.77,2275.39L1027.77,2197.98" style="fill:none;fill-rule:nonzero;stroke:black;stroke-width:3.25px;stroke-linecap:round;"/>
        <path d="M1209.71,2275.39L1209.71,2197.98" style="fill:none;fill-rule:nonzero;stroke:black;stroke-width:3.25px;stroke-linecap:round;"/>
        <path d="M1332.99,2287.89L1332.99,2207.36" style="fill:none;fill-rule:nonzero;stroke:black;stroke-width:3.25px;stroke-linecap:round;"/>
        <path d="M1455.59,2258.15L1455.59,2335.48" style="fill:none;fill-rule:nonzero;stroke:black;stroke-width:3.25px;stroke-linecap:round;"/>
        <path d="M1578.32,2270.65L1578.32,2344.86" style="fill:none;fill-rule:nonzero;stroke:black;stroke-width:3.25px;stroke-linecap:round;"/>
        <path d="M1731.86,2258.15L1731.86,2335.48" style="fill:none;fill-rule:nonzero;stroke:black;stroke-width:3.25px;stroke-linecap:round;"/>
        <path d="M1874.49,2245.65L1874.49,2326.11" style="fill:none;fill-rule:nonzero;stroke:black;stroke-width:3.25px;stroke-linecap:round;"/>
        <path d="M2092.5,2287.89L2092.5,2207.36" style="fill:none;fill-rule:nonzero;stroke:black;stroke-width:3.25px;stroke-linecap:round;"/>
        <path d="M2184.84,2245.65L2184.84,2326.11" style="fill:none;fill-rule:nonzero;stroke:black;stroke-width:3.25px;stroke-linecap:round;"/>
        <path d="M2339.46,2233.15L2339.46,2316.73" style="fill:none;fill-rule:nonzero;stroke:black;stroke-width:3.25px;stroke-linecap:round;"/>
        <path d="M2462.19,2245.65L2462.19,2326.11" style="fill:none;fill-rule:nonzero;stroke:black;stroke-width:3.25px;stroke-linecap:round;"/>
        <path d="M2615.72,2258.15L2615.72,2335.48" style="fill:none;fill-rule:nonzero;stroke:black;stroke-width:3.25px;stroke-linecap:round;"/>
        <path d="M2758.36,2270.65L2758.36,2344.86" style="fill:none;fill-rule:nonzero;stroke:black;stroke-width:3.25px;stroke-linecap:round;"/>
        <path d="M318.713,2285.19C318.713,2284.08 318.29,2283.14 317.443,2282.36C316.597,2281.51 315.62,2281.09 314.514,2281.09C312.561,2281.09 308.622,2283.04 302.697,2286.95C296.577,2290.92 292.834,2293.75 291.467,2295.44C290.751,2296.36 290.393,2297.3 290.393,2298.28C290.393,2299.38 290.816,2300.33 291.662,2301.11C292.443,2301.95 293.42,2302.38 294.592,2302.38C296.48,2302.38 300.451,2300.43 306.506,2296.52C312.495,2292.61 316.206,2289.78 317.639,2288.02C318.355,2287.18 318.713,2286.23 318.713,2285.19M313.537,2277.96C319.136,2277.96 321.936,2280.37 321.936,2285.19C321.936,2287.53 321.252,2290.27 319.885,2293.39C318.518,2296.45 316.695,2298.8 314.416,2300.43C309.403,2303.81 303.12,2305.5 295.568,2305.5C289.969,2305.5 287.17,2303.09 287.17,2298.28C287.17,2296.13 287.853,2293.43 289.221,2290.17C290.523,2287.05 292.346,2284.67 294.689,2283.04C299.702,2279.66 305.985,2277.96 313.537,2277.96" style="fill-rule:nonzero;"/>
        <path d="M441.985,2322.69C441.985,2321.58 441.561,2320.64 440.715,2319.86C439.869,2319.01 438.892,2318.59 437.785,2318.59C435.832,2318.59 431.893,2320.54 425.969,2324.45C419.849,2328.42 416.106,2331.25 414.738,2332.94C414.022,2333.86 413.664,2334.8 413.664,2335.78C413.664,2336.88 414.087,2337.83 414.934,2338.61C415.715,2339.46 416.692,2339.88 417.863,2339.88C419.751,2339.88 423.723,2337.93 429.777,2334.02C435.767,2330.11 439.478,2327.28 440.91,2325.52C441.626,2324.68 441.985,2323.73 441.985,2322.69M436.809,2315.46C442.408,2315.46 445.207,2317.87 445.207,2322.69C445.207,2325.03 444.524,2327.77 443.156,2330.89C441.789,2333.95 439.966,2336.3 437.688,2337.93C432.675,2341.31 426.392,2343 418.84,2343C413.241,2343 410.442,2340.59 410.442,2335.78C410.442,2333.63 411.125,2330.93 412.492,2327.67C413.794,2324.55 415.617,2322.17 417.961,2320.54C422.974,2317.16 429.257,2315.46 436.809,2315.46" style="fill-rule:nonzero;"/>
        <path d="M609.928,2272.69C609.928,2271.58 609.505,2270.64 608.659,2269.86C607.812,2269.01 606.836,2268.59 605.729,2268.59C603.776,2268.59 599.837,2270.54 593.912,2274.45C587.793,2278.42 584.049,2281.25 582.682,2282.94C581.966,2283.86 581.608,2284.8 581.608,2285.78C581.608,2286.88 582.031,2287.83 582.877,2288.61C583.659,2289.45 584.635,2289.88 585.807,2289.88C587.695,2289.88 591.666,2287.93 597.721,2284.02C603.711,2280.11 607.422,2277.28 608.854,2275.52C609.57,2274.68 609.928,2273.73 609.928,2272.69M604.752,2265.46C610.351,2265.46 613.151,2267.87 613.151,2272.69C613.151,2275.03 612.467,2277.77 611.1,2280.89C609.733,2283.95 607.91,2286.3 605.631,2287.93C600.618,2291.31 594.336,2293 586.784,2293C581.185,2293 578.385,2290.59 578.385,2285.78C578.385,2283.63 579.069,2280.93 580.436,2277.67C581.738,2274.55 583.561,2272.17 585.905,2270.54C590.918,2267.16 597.2,2265.46 604.752,2265.46" style="fill-rule:nonzero;"/>
        <path d="M733.2,2285.19C733.2,2284.08 732.777,2283.14 731.93,2282.36C731.084,2281.51 730.107,2281.09 729.001,2281.09C727.047,2281.09 723.109,2283.04 717.184,2286.95C711.064,2290.92 707.321,2293.75 705.954,2295.44C705.238,2296.36 704.879,2297.3 704.879,2298.28C704.879,2299.38 705.303,2300.33 706.149,2301.11C706.93,2301.95 707.907,2302.38 709.079,2302.38C710.967,2302.38 714.938,2300.43 720.993,2296.52C726.982,2292.61 730.693,2289.78 732.126,2288.02C732.842,2287.18 733.2,2286.23 733.2,2285.19M728.024,2277.96C733.623,2277.96 736.422,2280.37 736.422,2285.19C736.422,2287.53 735.739,2290.27 734.372,2293.39C733.004,2296.45 731.182,2298.8 728.903,2300.43C723.89,2303.81 717.607,2305.5 710.055,2305.5C704.456,2305.5 701.657,2303.09 701.657,2298.28C701.657,2296.13 702.34,2293.43 703.708,2290.17C705.01,2287.05 706.833,2284.67 709.176,2283.04C714.189,2279.66 720.472,2277.96 728.024,2277.96" style="fill-rule:nonzero;"/>
        <path d="M902.948,2260.19C902.948,2259.08 902.525,2258.14 901.679,2257.36C900.832,2256.51 899.856,2256.09 898.749,2256.09C896.796,2256.09 892.857,2258.04 886.932,2261.95C880.813,2265.92 877.069,2268.75 875.702,2270.44C874.986,2271.36 874.628,2272.3 874.628,2273.28C874.628,2274.38 875.051,2275.33 875.897,2276.11C876.679,2276.95 877.655,2277.38 878.827,2277.38C880.715,2277.38 884.686,2275.43 890.741,2271.52C896.731,2267.61 900.442,2264.78 901.874,2263.02C902.59,2262.18 902.948,2261.23 902.948,2260.19M897.772,2252.96C903.371,2252.96 906.171,2255.37 906.171,2260.19C906.171,2262.53 905.487,2265.27 904.12,2268.39C902.753,2271.45 900.93,2273.8 898.651,2275.43C893.638,2278.81 887.356,2280.5 879.804,2280.5C874.205,2280.5 871.405,2278.09 871.405,2273.28C871.405,2271.13 872.089,2268.43 873.456,2265.17C874.758,2262.05 876.581,2259.67 878.925,2258.04C883.938,2254.66 890.22,2252.96 897.772,2252.96" style="fill-rule:nonzero;"/>
        <path d="M1026.22,2272.69C1026.22,2271.58 1025.8,2270.64 1024.95,2269.86C1024.1,2269.01 1023.13,2268.59 1022.02,2268.59C1020.07,2268.59 1016.13,2270.54 1010.2,2274.45C1004.08,2278.42 1000.34,2281.25 998.974,2282.94C998.258,2283.86 997.899,2284.8 997.899,2285.78C997.899,2286.88 998.323,2287.83 999.169,2288.61C999.95,2289.45 1000.93,2289.88 1002.1,2289.88C1003.99,2289.88 1007.96,2287.93 1014.01,2284.02C1020,2280.11 1023.71,2277.28 1025.15,2275.52C1025.86,2274.68 1026.22,2273.73 1026.22,2272.69M1021.04,2265.46C1026.64,2265.46 1029.44,2267.87 1029.44,2272.69C1029.44,2275.03 1028.76,2277.77 1027.39,2280.89C1026.02,2283.95 1024.2,2286.3 1021.92,2287.93C1016.91,2291.31 1010.63,2293 1003.08,2293C997.476,2293 994.677,2290.59 994.677,2285.78C994.677,2283.63 995.36,2280.93 996.728,2277.67C998.03,2274.55 999.853,2272.17 1002.2,2270.54C1007.21,2267.16 1013.49,2265.46 1021.04,2265.46" style="fill-rule:nonzero;"/>
        <path d="M1208.16,2272.69C1208.16,2271.58 1207.74,2270.64 1206.89,2269.86C1206.05,2269.01 1205.07,2268.59 1203.96,2268.59C1202.01,2268.59 1198.07,2270.54 1192.15,2274.45C1186.03,2278.42 1182.28,2281.25 1180.92,2282.94C1180.2,2283.86 1179.84,2284.8 1179.84,2285.78C1179.84,2286.88 1180.27,2287.83 1181.11,2288.61C1181.89,2289.45 1182.87,2289.88 1184.04,2289.88C1185.93,2289.88 1189.9,2287.93 1195.96,2284.02C1201.95,2280.11 1205.66,2277.28 1207.09,2275.52C1207.81,2274.68 1208.16,2273.73 1208.16,2272.69M1202.99,2265.46C1208.59,2265.46 1211.39,2267.87 1211.39,2272.69C1211.39,2275.03 1210.7,2277.77 1209.34,2280.89C1207.97,2283.95 1206.15,2286.3 1203.87,2287.93C1198.85,2291.31 1192.57,2293 1185.02,2293C1179.42,2293 1176.62,2290.59 1176.62,2285.78C1176.62,2283.63 1177.3,2280.93 1178.67,2277.67C1179.97,2274.55 1181.8,2272.17 1184.14,2270.54C1189.15,2267.16 1195.44,2265.46 1202.99,2265.46" style="fill-rule:nonzero;"/>
        <path d="M1331.44,2285.19C1331.44,2284.08 1331.01,2283.14 1330.17,2282.36C1329.32,2281.51 1328.34,2281.09 1327.24,2281.09C1325.28,2281.09 1321.34,2283.04 1315.42,2286.95C1309.3,2290.92 1305.56,2293.75 1304.19,2295.44C1303.47,2296.36 1303.11,2297.3 1303.11,2298.28C1303.11,2299.38 1303.54,2300.33 1304.38,2301.11C1305.17,2301.95 1306.14,2302.38 1307.31,2302.38C1309.2,2302.38 1313.17,2300.43 1319.23,2296.52C1325.22,2292.61 1328.93,2289.78 1330.36,2288.02C1331.08,2287.18 1331.44,2286.23 1331.44,2285.19M1326.26,2277.96C1331.86,2277.96 1334.66,2280.37 1334.66,2285.19C1334.66,2287.53 1333.97,2290.27 1332.61,2293.39C1331.24,2296.45 1329.42,2298.8 1327.14,2300.43C1322.13,2303.81 1315.84,2305.5 1308.29,2305.5C1302.69,2305.5 1299.89,2303.09 1299.89,2298.28C1299.89,2296.13 1300.58,2293.43 1301.94,2290.17C1303.24,2287.05 1305.07,2284.67 1307.41,2283.04C1312.42,2279.66 1318.71,2277.96 1326.26,2277.96" style="fill-rule:nonzero;"/>
        <path d="M1485.51,2247.69C1485.51,2246.58 1485.09,2245.64 1484.24,2244.86C1483.4,2244.01 1482.42,2243.59 1481.31,2243.59C1479.36,2243.59 1475.42,2245.54 1469.5,2249.45C1463.38,2253.42 1459.63,2256.25 1458.27,2257.94C1457.55,2258.86 1457.19,2259.8 1457.19,2260.78C1457.19,2261.88 1457.61,2262.83 1458.46,2263.61C1459.24,2264.45 1460.22,2264.88 1461.39,2264.88C1463.28,2264.88 1467.25,2262.93 1473.3,2259.02C1479.29,2255.11 1483,2252.28 1484.44,2250.52C1485.15,2249.68 1485.51,2248.73 1485.51,2247.69M1480.34,2240.46C1485.93,2240.46 1488.73,2242.87 1488.73,2247.69C1488.73,2250.03 1488.05,2252.77 1486.68,2255.89C1485.32,2258.95 1483.49,2261.3 1481.21,2262.93C1476.2,2266.31 1469.92,2268 1462.37,2268C1456.77,2268 1453.97,2265.59 1453.97,2260.78C1453.97,2258.63 1454.65,2255.93 1456.02,2252.67C1457.32,2249.55 1459.14,2247.17 1461.49,2245.54C1466.5,2242.16 1472.78,2240.46 1480.34,2240.46" style="fill-rule:nonzero;"/>
        <path d="M1608.24,2260.19C1608.24,2259.08 1607.82,2258.14 1606.97,2257.36C1606.13,2256.51 1605.15,2256.09 1604.04,2256.09C1602.09,2256.09 1598.15,2258.04 1592.23,2261.95C1586.11,2265.92 1582.36,2268.75 1581,2270.44C1580.28,2271.36 1579.92,2272.3 1579.92,2273.28C1579.92,2274.38 1580.34,2275.33 1581.19,2276.11C1581.97,2276.95 1582.95,2277.38 1584.12,2277.38C1586.01,2277.38 1589.98,2275.43 1596.03,2271.52C1602.02,2267.61 1605.74,2264.78 1607.17,2263.02C1607.88,2262.18 1608.24,2261.23 1608.24,2260.19M1603.07,2252.96C1608.66,2252.96 1611.46,2255.37 1611.46,2260.19C1611.46,2262.53 1610.78,2265.27 1609.41,2268.39C1608.05,2271.45 1606.22,2273.8 1603.94,2275.43C1598.93,2278.81 1592.65,2280.5 1585.1,2280.5C1579.5,2280.5 1576.7,2278.09 1576.7,2273.28C1576.7,2271.13 1577.38,2268.43 1578.75,2265.17C1580.05,2262.05 1581.87,2259.67 1584.22,2258.04C1589.23,2254.66 1595.51,2252.96 1603.07,2252.96" style="fill-rule:nonzero;"/>
        <path d="M1761.78,2247.69C1761.78,2246.58 1761.35,2245.64 1760.51,2244.86C1759.66,2244.01 1758.68,2243.59 1757.58,2243.59C1755.62,2243.59 1751.69,2245.54 1745.76,2249.45C1739.64,2253.42 1735.9,2256.25 1734.53,2257.94C1733.81,2258.86 1733.46,2259.8 1733.46,2260.78C1733.46,2261.88 1733.88,2262.83 1734.73,2263.61C1735.51,2264.45 1736.48,2264.88 1737.66,2264.88C1739.54,2264.88 1743.51,2262.93 1749.57,2259.02C1755.56,2255.11 1759.27,2252.28 1760.7,2250.52C1761.42,2249.68 1761.78,2248.73 1761.78,2247.69M1756.6,2240.46C1762.2,2240.46 1765,2242.87 1765,2247.69C1765,2250.03 1764.32,2252.77 1762.95,2255.89C1761.58,2258.95 1759.76,2261.3 1757.48,2262.93C1752.47,2266.31 1746.18,2268 1738.63,2268C1733.03,2268 1730.23,2265.59 1730.23,2260.78C1730.23,2258.63 1730.92,2255.93 1732.28,2252.67C1733.59,2249.55 1735.41,2247.17 1737.75,2245.54C1742.77,2242.16 1749.05,2240.46 1756.6,2240.46" style="fill-rule:nonzero;"/>
        <path d="M1904.41,2235.19C1904.41,2234.08 1903.99,2233.14 1903.14,2232.36C1902.29,2231.51 1901.32,2231.09 1900.21,2231.09C1898.26,2231.09 1894.32,2233.04 1888.39,2236.95C1882.27,2240.92 1878.53,2243.75 1877.16,2245.44C1876.45,2246.36 1876.09,2247.3 1876.09,2248.28C1876.09,2249.38 1876.51,2250.33 1877.36,2251.11C1878.14,2251.95 1879.12,2252.38 1880.29,2252.38C1882.18,2252.38 1886.15,2250.43 1892.2,2246.52C1898.19,2242.61 1901.9,2239.78 1903.34,2238.02C1904.05,2237.18 1904.41,2236.23 1904.41,2235.19M1899.23,2227.96C1904.83,2227.96 1907.63,2230.37 1907.63,2235.19C1907.63,2237.53 1906.95,2240.27 1905.58,2243.39C1904.21,2246.45 1902.39,2248.8 1900.11,2250.43C1895.1,2253.81 1888.82,2255.5 1881.27,2255.5C1875.67,2255.5 1872.87,2253.09 1872.87,2248.28C1872.87,2246.13 1873.55,2243.43 1874.92,2240.17C1876.22,2237.05 1878.04,2234.67 1880.39,2233.04C1885.4,2229.66 1891.68,2227.96 1899.23,2227.96" style="fill-rule:nonzero;"/>
        <path d="M2090.95,2285.19C2090.95,2284.08 2090.52,2283.14 2089.68,2282.36C2088.83,2281.51 2087.85,2281.09 2086.75,2281.09C2084.79,2281.09 2080.85,2283.04 2074.93,2286.95C2068.81,2290.92 2065.07,2293.75 2063.7,2295.44C2062.98,2296.36 2062.63,2297.3 2062.63,2298.28C2062.63,2299.38 2063.05,2300.33 2063.9,2301.11C2064.68,2301.95 2065.65,2302.38 2066.82,2302.38C2068.71,2302.38 2072.68,2300.43 2078.74,2296.52C2084.73,2292.61 2088.44,2289.78 2089.87,2288.02C2090.59,2287.18 2090.95,2286.23 2090.95,2285.19M2085.77,2277.96C2091.37,2277.96 2094.17,2280.37 2094.17,2285.19C2094.17,2287.53 2093.48,2290.27 2092.12,2293.39C2090.75,2296.45 2088.93,2298.8 2086.65,2300.43C2081.64,2303.81 2075.35,2305.5 2067.8,2305.5C2062.2,2305.5 2059.4,2303.09 2059.4,2298.28C2059.4,2296.13 2060.09,2293.43 2061.45,2290.17C2062.76,2287.05 2064.58,2284.67 2066.92,2283.04C2071.94,2279.66 2078.22,2277.96 2085.77,2277.96" style="fill-rule:nonzero;"/>
        <path d="M2214.76,2235.19C2214.76,2234.08 2214.34,2233.14 2213.49,2232.36C2212.64,2231.51 2211.67,2231.09 2210.56,2231.09C2208.61,2231.09 2204.67,2233.04 2198.74,2236.95C2192.62,2240.92 2188.88,2243.75 2187.51,2245.44C2186.8,2246.36 2186.44,2247.3 2186.44,2248.28C2186.44,2249.38 2186.86,2250.33 2187.71,2251.11C2188.49,2251.95 2189.47,2252.38 2190.64,2252.38C2192.53,2252.38 2196.5,2250.43 2202.55,2246.52C2208.54,2242.61 2212.25,2239.78 2213.68,2238.02C2214.4,2237.18 2214.76,2236.23 2214.76,2235.19M2209.58,2227.96C2215.18,2227.96 2217.98,2230.37 2217.98,2235.19C2217.98,2237.53 2217.3,2240.27 2215.93,2243.39C2214.56,2246.45 2212.74,2248.8 2210.46,2250.43C2205.45,2253.81 2199.17,2255.5 2191.61,2255.5C2186.02,2255.5 2183.22,2253.09 2183.22,2248.28C2183.22,2246.13 2183.9,2243.43 2185.27,2240.17C2186.57,2237.05 2188.39,2234.67 2190.74,2233.04C2195.75,2229.66 2202.03,2227.96 2209.58,2227.96" style="fill-rule:nonzero;"/>
        <path d="M2369.38,2222.69C2369.38,2221.58 2368.95,2220.64 2368.11,2219.86C2367.26,2219.01 2366.28,2218.59 2365.18,2218.59C2363.22,2218.59 2359.29,2220.54 2353.36,2224.45C2347.24,2228.42 2343.5,2231.25 2342.13,2232.94C2341.41,2233.86 2341.06,2234.8 2341.06,2235.78C2341.06,2236.88 2341.48,2237.83 2342.33,2238.61C2343.11,2239.45 2344.08,2239.88 2345.26,2239.88C2347.14,2239.88 2351.12,2237.93 2357.17,2234.02C2363.16,2230.11 2366.87,2227.28 2368.3,2225.52C2369.02,2224.68 2369.38,2223.73 2369.38,2222.69M2364.2,2215.46C2369.8,2215.46 2372.6,2217.87 2372.6,2222.69C2372.6,2225.03 2371.92,2227.77 2370.55,2230.89C2369.18,2233.95 2367.36,2236.3 2365.08,2237.93C2360.07,2241.31 2353.78,2243 2346.23,2243C2340.63,2243 2337.83,2240.59 2337.83,2235.78C2337.83,2233.63 2338.52,2230.93 2339.88,2227.67C2341.19,2224.55 2343.01,2222.17 2345.35,2220.54C2350.37,2217.16 2356.65,2215.46 2364.2,2215.46" style="fill-rule:nonzero;"/>
        <path d="M2492.11,2235.19C2492.11,2234.08 2491.68,2233.14 2490.84,2232.36C2489.99,2231.51 2489.01,2231.09 2487.91,2231.09C2485.95,2231.09 2482.02,2233.04 2476.09,2236.95C2469.97,2240.92 2466.23,2243.75 2464.86,2245.44C2464.14,2246.36 2463.79,2247.3 2463.79,2248.28C2463.79,2249.38 2464.21,2250.33 2465.06,2251.11C2465.84,2251.95 2466.81,2252.38 2467.99,2252.38C2469.87,2252.38 2473.85,2250.43 2479.9,2246.52C2485.89,2242.61 2489.6,2239.78 2491.03,2238.02C2491.75,2237.18 2492.11,2236.23 2492.11,2235.19M2486.93,2227.96C2492.53,2227.96 2495.33,2230.37 2495.33,2235.19C2495.33,2237.53 2494.65,2240.27 2493.28,2243.39C2491.91,2246.45 2490.09,2248.8 2487.81,2250.43C2482.8,2253.81 2476.51,2255.5 2468.96,2255.5C2463.36,2255.5 2460.56,2253.09 2460.56,2248.28C2460.56,2246.13 2461.25,2243.43 2462.61,2240.17C2463.92,2237.05 2465.74,2234.67 2468.08,2233.04C2473.1,2229.66 2479.38,2227.96 2486.93,2227.96" style="fill-rule:nonzero;"/>
        <path d="M2645.64,2247.69C2645.64,2246.58 2645.22,2245.64 2644.37,2244.86C2643.53,2244.01 2642.55,2243.59 2641.44,2243.59C2639.49,2243.59 2635.55,2245.54 2629.63,2249.45C2623.51,2253.42 2619.76,2256.25 2618.4,2257.94C2617.68,2258.86 2617.32,2259.8 2617.32,2260.78C2617.32,2261.88 2617.74,2262.83 2618.59,2263.61C2619.37,2264.45 2620.35,2264.88 2621.52,2264.88C2623.41,2264.88 2627.38,2262.93 2633.44,2259.02C2639.42,2255.11 2643.14,2252.28 2644.57,2250.52C2645.28,2249.68 2645.64,2248.73 2645.64,2247.69M2640.47,2240.46C2646.07,2240.46 2648.86,2242.87 2648.86,2247.69C2648.86,2250.03 2648.18,2252.77 2646.81,2255.89C2645.45,2258.95 2643.62,2261.3 2641.35,2262.93C2636.33,2266.31 2630.05,2268 2622.5,2268C2616.9,2268 2614.1,2265.59 2614.1,2260.78C2614.1,2258.63 2614.78,2255.93 2616.15,2252.67C2617.45,2249.55 2619.27,2247.17 2621.62,2245.54C2626.63,2242.16 2632.91,2240.46 2640.47,2240.46" style="fill-rule:nonzero;"/>
        <path d="M2788.28,2260.19C2788.28,2259.08 2787.85,2258.14 2787.01,2257.36C2786.16,2256.51 2785.18,2256.09 2784.08,2256.09C2782.12,2256.09 2778.18,2258.04 2772.26,2261.95C2766.14,2265.92 2762.4,2268.75 2761.03,2270.44C2760.31,2271.36 2759.96,2272.3 2759.96,2273.28C2759.96,2274.38 2760.38,2275.33 2761.22,2276.11C2762.01,2276.95 2762.98,2277.38 2764.15,2277.38C2766.04,2277.38 2770.01,2275.43 2776.07,2271.52C2782.06,2267.61 2785.77,2264.78 2787.2,2263.02C2787.92,2262.18 2788.28,2261.23 2788.28,2260.19M2783.1,2252.96C2788.7,2252.96 2791.5,2255.37 2791.5,2260.19C2791.5,2262.53 2790.81,2265.27 2789.45,2268.39C2788.08,2271.45 2786.26,2273.8 2783.98,2275.43C2778.97,2278.81 2772.68,2280.5 2765.13,2280.5C2759.53,2280.5 2756.73,2278.09 2756.73,2273.28C2756.73,2271.13 2757.42,2268.43 2758.78,2265.17C2760.09,2262.05 2761.91,2259.67 2764.25,2258.04C2769.27,2254.66 2775.55,2252.96 2783.1,2252.96" style="fill-rule:nonzero;"/>
        <path d="M198.451,2266.15L199.037,2266.15C199.297,2266.08 199.525,2266.05 199.721,2266.05C207.012,2266.05 213.002,2268.62 217.689,2273.76C222.377,2278.84 224.721,2284.77 224.721,2291.54C224.721,2299.94 221.238,2306.77 214.271,2312.05C212.448,2313.48 210.072,2314.65 207.142,2315.56C207.468,2319.79 207.631,2323.21 207.631,2325.82C207.631,2326.34 207.566,2328.22 207.435,2331.48C207.175,2337.53 205.092,2342.78 201.185,2347.2C197.409,2351.56 192.722,2353.75 187.123,2353.75C181.849,2353.75 177.357,2351.89 173.646,2348.18C169.935,2344.4 168.08,2339.85 168.08,2334.51C168.08,2331.71 169.154,2329.33 171.303,2327.38C173.516,2325.43 176.088,2324.45 179.017,2324.45C181.622,2324.45 183.803,2325.46 185.56,2327.48C187.383,2329.36 188.295,2331.71 188.295,2334.51C188.295,2337.05 187.383,2339.23 185.56,2341.05C183.738,2342.87 181.557,2343.78 179.017,2343.78C177.976,2343.78 176.967,2343.59 175.99,2343.2C178.855,2347.43 182.663,2349.55 187.416,2349.55C191.908,2349.55 195.586,2347.72 198.451,2344.08C201.446,2340.3 203.073,2335.91 203.334,2330.89C203.464,2327.77 203.529,2325.98 203.529,2325.52C203.529,2321.88 203.399,2318.88 203.139,2316.54C199.883,2317.06 196.986,2317.32 194.447,2317.32C185.398,2317.32 177.683,2313.74 171.303,2306.58C165.053,2299.35 161.928,2290.76 161.928,2280.8C161.928,2278.71 162.123,2276.6 162.514,2274.45C162.904,2272.69 163.392,2270.77 163.978,2268.69C164.304,2267.51 165.183,2265.63 166.615,2263.02C167.136,2262.24 167.722,2261.26 168.373,2260.09C169.024,2258.92 169.48,2258.14 169.74,2257.75C170.391,2256.45 171.661,2254.69 173.549,2252.48C174.07,2251.89 174.607,2251.24 175.16,2250.52C175.713,2249.81 176.185,2249.22 176.576,2248.76C176.967,2248.31 177.26,2247.95 177.455,2247.69C177.65,2247.43 179.115,2245.7 181.849,2242.51C182.501,2241.86 183.135,2241.16 183.754,2240.42C184.372,2239.67 184.877,2239.08 185.267,2238.66C185.658,2238.23 185.951,2237.93 186.146,2237.73C183.803,2229.98 182.338,2223.8 181.752,2219.18C181.296,2215.46 181.068,2210.39 181.068,2203.94C181.068,2198.28 182.37,2192.97 184.974,2188.02C187.514,2182.88 191.062,2178.68 195.619,2175.43C195.879,2175.23 196.205,2175.13 196.596,2175.13C197.051,2175.13 197.377,2175.23 197.572,2175.43C201.088,2179.66 204.115,2185.16 206.654,2191.93C209.258,2198.7 210.56,2204.85 210.56,2210.39C210.56,2216.64 209.063,2222.5 206.068,2227.96C202.683,2233.76 198.321,2239.75 192.982,2245.93C194.349,2250.23 196.172,2256.97 198.451,2266.15M206.752,2311.56C210.137,2310.32 212.774,2308.2 214.662,2305.21C216.745,2302.35 217.787,2299.12 217.787,2295.54C217.787,2290.92 216.224,2286.82 213.099,2283.24C209.909,2279.53 205.84,2277.44 200.892,2276.99C203.692,2290.72 205.645,2302.25 206.752,2311.56M168.959,2289C168.959,2295.44 171.563,2301.11 176.771,2305.99C182.11,2310.74 188.099,2313.12 194.74,2313.12C197.474,2313.12 200.144,2312.93 202.748,2312.53C201.706,2302.64 199.655,2290.79 196.596,2276.99C192.885,2277.38 189.922,2278.68 187.709,2280.89C185.56,2283.17 184.486,2285.74 184.486,2288.61C184.486,2293.56 187.123,2297.56 192.396,2300.62C192.852,2301.08 193.08,2301.56 193.08,2302.09C193.08,2302.61 192.852,2303.09 192.396,2303.55C192.006,2304.01 191.517,2304.23 190.932,2304.23C190.866,2304.23 190.573,2304.17 190.053,2304.04C186.342,2302.02 183.477,2299.42 181.459,2296.23C179.571,2292.84 178.627,2289.42 178.627,2285.97C178.627,2281.48 180.027,2277.41 182.826,2273.76C185.756,2270.12 189.564,2267.78 194.252,2266.73C192.429,2259.44 190.932,2253.75 189.76,2249.64C188.718,2250.82 187.465,2252.23 186,2253.89C184.535,2255.55 183.672,2256.54 183.412,2256.87C181.068,2259.93 179.278,2262.31 178.041,2264C175.827,2267.06 174.2,2269.7 173.158,2271.91C172.051,2274.38 171.075,2277.09 170.228,2280.01C169.382,2282.81 168.959,2285.81 168.959,2289M201.576,2189.68C196.693,2192.09 192.852,2195.54 190.053,2200.03C187.188,2204.66 185.756,2209.64 185.756,2214.98C185.756,2219.66 186.928,2225.98 189.271,2233.92C193.959,2228.26 197.474,2223.02 199.818,2218.2C202.292,2213.12 203.529,2207.81 203.529,2202.28C203.529,2198.11 202.878,2193.91 201.576,2189.68" style="fill-rule:nonzero;"/>
    </g>
</svg>
