<?xml version="1.0" encoding="UTF-8" standalone="no"?><!DOCTYPE svg PUBLIC "-//W3C//DTD SVG 1.1//EN" "http://www.w3.org/Graphics/SVG/1.1/DTD/svg11.dtd"><svg width="100%" height="100%" viewBox="0 0 397 95" version="1.1" xmlns="http://www.w3.org/2000/svg" xmlns:xlink="http://www.w3.org/1999/xlink" xml:space="preserve" xmlns:serif="http://www.serif.com/" style="fill-rule:evenodd;clip-rule:evenodd;stroke-linecap:round;stroke-linejoin:round;stroke-miterlimit:1.5;"><path d="M51.913,0.75l0,92.582" style="fill:none;stroke:#000;stroke-width:1.5px;"/><path d="M396.038,93.332l0,-92.582" style="fill:none;stroke:#000;stroke-width:1.5px;"/><path d="M59.903,0.75l0,92.582" style="fill:none;stroke:#000;stroke-width:1.5px;"/><path d="M388.048,93.332l0,-92.582" style="fill:none;stroke:#000;stroke-width:1.5px;"/><circle cx="74.815" cy="26.672" r="3.944" style="fill:none;stroke:#000;stroke-width:1.5px;"/><circle cx="373.136" cy="67.41" r="3.944" style="fill:none;stroke:#000;stroke-width:1.5px;"/><circle cx="74.815" cy="69.01" r="3.944" style="fill:none;stroke:#000;stroke-width:1.5px;"/><text x="-1.19px" y="88.425px" style="font-family:'TsukuARdGothic-Regular', 'Tsukushi A Round Gothic', serif;font-size:14px;">inst</text><text x="-1.19px" y="48.755px" style="font-family:'TsukuARdGothic-Regular', 'Tsukushi A Round Gothic', serif;font-size:14px;">mouth</text><text x="99.846px" y="50.277px" style="font-family:'TsukuARdGothic-Regular', 'Tsukushi A Round Gothic', serif;font-size:12px;">purse lips</text><g><text x="194.293px" y="89.163px" style="font-family:'TsukuARdGothic-Regular', 'Tsukushi A Round Gothic', serif;font-size:12px;">B</text><text x="201.939px" y="83.625px" style="font-family:'Maestro';font-size:21.924px;">i</text></g><text x="101.278px" y="89.182px" style="font-family:'TsukuARdGothic-Regular', 'Tsukushi A Round Gothic', serif;font-size:12px;">tasto tremolo on</text><g><text x="318.141px" y="89.163px" style="font-family:'TsukuARdGothic-Regular', 'Tsukushi A Round Gothic', serif;font-size:12px;">B</text><text x="325.302px" y="81.245px" style="font-family:'Maestro';font-size:13.551px;">n</text></g><text x="284.21px" y="50.277px" style="font-family:'TsukuARdGothic-Regular', 'Tsukushi A Round Gothic', serif;font-size:12px;">show teeth</text><text x="210.872px" y="9.361px" style="font-family:'TsukuARdGothic-Regular', 'Tsukushi A Round Gothic', serif;font-size:12px;">lean forward</text><text x="99.846px" y="9.361px" style="font-family:'TsukuARdGothic-Regular', 'Tsukushi A Round Gothic', serif;font-size:12px;">lean left</text><text x="-1.19px" y="11.065px" style="font-family:'TsukuARdGothic-Regular', 'Tsukushi A Round Gothic', serif;font-size:14px;">body</text><circle cx="373.136" cy="25.072" r="3.944" style="fill:none;stroke:#000;stroke-width:1.5px;"/><path d="M193.297,4.991l0,-2.487l3.262,3.261l-3.262,3.262l0,-2.487l-37.67,0l0,-1.549l37.67,0Z"/><path d="M331.07,4.991l0,-2.487l3.261,3.261l-3.261,3.262l0,-2.487l-37.671,0l0,-1.549l37.671,0Z"/><path d="M103.181,26.843l240.104,0" style="fill:none;stroke:#000;stroke-width:1.5px;stroke-dasharray:1.5,4.5,1.5,3;"/><path d="M103.181,67.867l240.104,0" style="fill:none;stroke:#000;stroke-width:1.5px;stroke-dasharray:1.5,4.5,1.5,3;"/><path d="M218.023,86.239c2.856,1.491 5.861,-2.414 8.611,-2.414c2.408,0 5.521,3.776 7.93,3.776c2.72,0 5.525,-3.776 8.394,-3.776c2.703,0 6.113,3.776 8.817,3.776c3.065,0 6.574,-3.776 9.576,-3.776c2.577,0 5.859,3.776 8.435,3.776c3.137,0 7.356,-3.776 10.383,-3.776c2.358,0 5.422,3.776 7.779,3.776c2.651,0 5.338,-3.776 8.126,-3.776c2.633,0 5.695,2.815 8.564,2.414" style="fill:none;stroke:#000;stroke-width:1px;"/></svg>