<?xml version="1.0" encoding="UTF-8" standalone="no"?><!DOCTYPE svg PUBLIC "-//W3C//DTD SVG 1.1//EN" "http://www.w3.org/Graphics/SVG/1.1/DTD/svg11.dtd"><svg width="100%" height="100%" viewBox="0 0 398 112" version="1.1" xmlns="http://www.w3.org/2000/svg" xmlns:xlink="http://www.w3.org/1999/xlink" xml:space="preserve" xmlns:serif="http://www.serif.com/" style="fill-rule:evenodd;clip-rule:evenodd;stroke-linecap:round;stroke-linejoin:round;stroke-miterlimit:1.5;"><path d="M52.305,1.309l0,92.582" style="fill:none;stroke:#000;stroke-width:1.5px;"/><path d="M396.43,93.891l0,-92.582" style="fill:none;stroke:#000;stroke-width:1.5px;"/><path d="M60.295,1.309l0,92.582" style="fill:none;stroke:#000;stroke-width:1.5px;"/><path d="M388.44,93.891l0,-92.582" style="fill:none;stroke:#000;stroke-width:1.5px;"/><circle cx="75.207" cy="27.23" r="3.944" style="fill:none;stroke:#000;stroke-width:1.5px;"/><circle cx="373.528" cy="67.969" r="3.944" style="fill:none;stroke:#000;stroke-width:1.5px;"/><circle cx="75.207" cy="69.569" r="3.944" style="fill:none;stroke:#000;stroke-width:1.5px;"/><text x="-0.798px" y="88.984px" style="font-family:'TsukuARdGothic-Regular', 'Tsukushi A Round Gothic', serif;font-size:14px;">inst</text><text x="-0.798px" y="49.313px" style="font-family:'TsukuARdGothic-Regular', 'Tsukushi A Round Gothic', serif;font-size:14px;">head</text><text x="100.238px" y="50.835px" style="font-family:'TsukuARdGothic-Regular', 'Tsukushi A Round Gothic', serif;font-size:12px;">normal</text><text x="100.238px" y="87.616px" style="font-family:'TsukuARdGothic-Regular', 'Tsukushi A Round Gothic', serif;font-size:12px;">A</text><text x="100.238px" y="108.437px" style="font-family:'TsukuARdGothic-Regular', 'Tsukushi A Round Gothic', serif;font-size:10px;">(frog)</text><text x="317.737px" y="108.437px" style="font-family:'TsukuARdGothic-Regular', 'Tsukushi A Round Gothic', serif;font-size:10px;">(tip)</text><text x="151.126px" y="97.465px" style="font-family:'TsukuARdGothic-Regular', 'Tsukushi A Round Gothic', serif;font-size:12px;">E</text><text x="236.177px" y="50.835px" style="font-family:'TsukuARdGothic-Regular', 'Tsukushi A Round Gothic', serif;font-size:12px;">head on L shoulder</text><text x="268.527px" y="9.92px" style="font-family:'TsukuARdGothic-Regular', 'Tsukushi A Round Gothic', serif;font-size:12px;">roll up + left</text><text x="-0.798px" y="11.624px" style="font-family:'TsukuARdGothic-Regular', 'Tsukushi A Round Gothic', serif;font-size:14px;">eyes</text><circle cx="373.528" cy="25.631" r="3.944" style="fill:none;stroke:#000;stroke-width:1.5px;"/><path d="M102.997,10.988l1.758,1.759l-4.612,0l0,-4.613l1.758,1.759l9.893,-9.893l1.095,1.096l-9.892,9.892Z"/><path d="M190.624,7.464l0.74,-2.76l2.787,4.471l-4.649,2.478l0.739,-2.759l-12.945,-3.469l0.383,-1.43l12.945,3.469Z"/><path d="M103.573,27.402l240.104,0" style="fill:none;stroke:#000;stroke-width:1.5px;stroke-dasharray:1.5,4.5,1.5,3;"/><path d="M103.573,68.426l240.104,0" style="fill:none;stroke:#000;stroke-width:1.5px;stroke-dasharray:1.5,4.5,1.5,3;"/><text x="107.884px" y="82.077px" style="font-family:'Maestro';font-size:21.924px;">i</text><text x="158.773px" y="91.927px" style="font-family:'Maestro';font-size:21.924px;">i</text><path d="M117.614,82.287l139.192,0" style="fill:none;stroke:#000;stroke-width:1px;"/><path d="M171.614,92.287l132.129,0" style="fill:none;stroke:#000;stroke-width:1px;"/></svg>