<?xml version="1.0" encoding="UTF-8" standalone="no"?><!DOCTYPE svg PUBLIC "-//W3C//DTD SVG 1.1//EN" "http://www.w3.org/Graphics/SVG/1.1/DTD/svg11.dtd"><svg width="100%" height="100%" viewBox="0 0 398 112" version="1.1" xmlns="http://www.w3.org/2000/svg" xmlns:xlink="http://www.w3.org/1999/xlink" xml:space="preserve" xmlns:serif="http://www.serif.com/" style="fill-rule:evenodd;clip-rule:evenodd;stroke-linecap:round;stroke-linejoin:round;stroke-miterlimit:1.5;"><path d="M52.305,1.309l0,92.582" style="fill:none;stroke:#000;stroke-width:1.5px;"/><path d="M396.43,93.891l0,-92.582" style="fill:none;stroke:#000;stroke-width:1.5px;"/><path d="M60.295,1.309l0,92.582" style="fill:none;stroke:#000;stroke-width:1.5px;"/><path d="M388.44,93.891l0,-92.582" style="fill:none;stroke:#000;stroke-width:1.5px;"/><circle cx="75.207" cy="27.23" r="3.944" style="fill:none;stroke:#000;stroke-width:1.5px;"/><circle cx="373.528" cy="67.969" r="3.944" style="fill:none;stroke:#000;stroke-width:1.5px;"/><circle cx="75.207" cy="69.569" r="3.944" style="fill:none;stroke:#000;stroke-width:1.5px;"/><path d="M1.75,79.226c0,-0.532 -0.476,-0.644 -0.686,-0.644c-0.28,0 -0.672,0.21 -0.672,0.644c0,0.084 0,0.686 0.658,0.686c0.35,0 0.7,-0.252 0.7,-0.686Zm-0.238,9.254c-0.014,-0.784 -0.028,-1.82 -0.028,-2.814c0,-1.204 0.014,-2.352 0.028,-2.94l0,-0.014c0,-0.252 -0.224,-0.378 -0.434,-0.378c-0.224,0 -0.448,0.14 -0.448,0.392l0,0.014c0.014,0.392 0.014,0.966 0.014,1.624c0,1.302 -0.014,2.94 -0.014,4.13c0,0.28 0.224,0.42 0.434,0.42c0.224,0 0.448,-0.14 0.448,-0.42l0,-0.014Z" style="fill-rule:nonzero;"/><path d="M8.792,88.55c0,0.252 0.21,0.392 0.42,0.392c0.21,0 0.406,-0.126 0.406,-0.406c0.014,-0.378 0.014,-0.952 0.014,-1.54c0,-0.966 -0.014,-2.002 -0.028,-2.45c-0.056,-1.484 -1.176,-2.24 -2.338,-2.24c-0.77,0 -1.568,0.336 -2.072,1.008c-0.014,0.028 -0.042,0.042 -0.056,0.042c0,0 -0.014,-0.014 -0.014,-0.056l0,-0.532c0,-0.266 -0.196,-0.378 -0.392,-0.378c-0.224,0 -0.448,0.14 -0.448,0.364l0,0.014c0.014,0.616 0.028,1.344 0.028,2.128c0,1.19 -0.028,2.492 -0.056,3.626l0,0.014c0,0.252 0.224,0.392 0.434,0.392c0.21,0 0.406,-0.126 0.406,-0.378l0,-0.014c-0.014,-0.504 -0.014,-0.966 -0.014,-1.414c0,-0.966 0.014,-1.736 0.028,-2.17c0.028,-1.12 1.134,-1.876 2.114,-1.876c0.784,0 1.498,0.476 1.568,1.61c0.014,0.224 0.028,0.714 0.028,1.288c0,0.882 -0.014,1.974 -0.028,2.562l0,0.014Z" style="fill-rule:nonzero;"/><path d="M15.946,87.206c0,-0.644 -0.378,-1.302 -1.246,-1.75c-0.434,-0.224 -1.078,-0.49 -1.47,-0.672c-0.462,-0.224 -0.686,-0.574 -0.686,-0.91c0,-0.462 0.406,-0.882 1.12,-0.882c0.602,0 0.952,0.224 1.176,0.49c0.112,0.14 0.252,0.196 0.364,0.196c0.224,0 0.406,-0.182 0.406,-0.406c0,-0.378 -0.756,-0.98 -1.946,-0.98c-1.232,0 -1.904,0.784 -1.904,1.61c0,0.602 0.364,1.218 1.134,1.554c1.624,0.728 2.226,1.008 2.226,1.75c0,0.602 -0.602,1.05 -1.4,1.05c-0.686,0 -1.19,-0.266 -1.498,-0.7c-0.098,-0.126 -0.224,-0.182 -0.35,-0.182c-0.21,0 -0.42,0.168 -0.42,0.406c0,0.392 0.812,1.232 2.268,1.232c1.568,0 2.226,-1.008 2.226,-1.806Z" style="fill-rule:nonzero;"/><path d="M20.678,83.174c0.266,0 0.392,-0.182 0.392,-0.364c0,-0.182 -0.126,-0.364 -0.392,-0.364l-1.246,0c-0.182,0 -0.21,0 -0.21,-0.154c0,0 0.028,-1.12 0.028,-1.526c0,-0.294 -0.196,-0.434 -0.406,-0.434c-0.196,0 -0.406,0.14 -0.406,0.406l0,0.35c0,0.49 -0.014,1.162 -0.014,1.218c0,0.126 -0.028,0.14 -0.154,0.14l-0.812,0c-0.266,0 -0.392,0.182 -0.392,0.364c0,0.182 0.126,0.364 0.392,0.364l0.826,0c0.098,0 0.14,0.028 0.14,0.168l0,0.224c0,0.686 -0.028,2.394 -0.028,3.29c0,0.616 0,2.142 1.792,2.142c0.56,0 0.896,-0.07 0.896,-0.434c0,-0.182 -0.126,-0.364 -0.336,-0.364l-0.056,0c-0.14,0.014 -0.266,0.028 -0.392,0.028c-1.092,0 -1.12,-0.742 -1.12,-1.834c0,-1.036 0.042,-2.478 0.042,-3.01c0,-0.182 0,-0.21 0.224,-0.21l1.232,0Z" style="fill-rule:nonzero;"/><path d="M5.054,48.865c0,0.252 0.21,0.392 0.42,0.392c0.196,0 0.406,-0.14 0.406,-0.42c0.014,-0.378 0.014,-0.952 0.014,-1.54c0,-0.966 -0.014,-2.002 -0.028,-2.45c-0.056,-1.526 -1.176,-2.254 -2.338,-2.254c-0.784,0 -1.582,0.322 -2.072,0.952c-0.028,0.028 -0.042,0.056 -0.056,0.056c-0.014,0 -0.028,-0.028 -0.028,-0.07c0,-0.294 0.014,-3.612 0.014,-4.13c0,-0.266 -0.21,-0.392 -0.42,-0.392c-0.21,0 -0.42,0.126 -0.42,0.35l0,0.014c0.014,0.644 0.014,2.058 0.014,3.626c0,2.226 -0.014,4.76 -0.042,5.852l0,0.014c0,0.252 0.224,0.392 0.434,0.392c0.21,0 0.406,-0.126 0.406,-0.378l0,-0.014c-0.014,-0.504 -0.014,-0.98 -0.014,-1.428c0,-0.994 0.014,-1.82 0.028,-2.254c0.042,-1.092 1.106,-1.82 2.072,-1.82c0.798,0 1.54,0.476 1.61,1.638c0.014,0.224 0.028,0.714 0.028,1.288c0,0.882 -0.014,1.974 -0.028,2.562l0,0.014Z" style="fill-rule:nonzero;"/><path d="M13.692,47.941c0,-0.224 -0.21,-0.406 -0.42,-0.406c-0.098,0 -0.196,0.042 -0.28,0.126c-0.434,0.49 -1.008,0.924 -2.03,0.924c-1.344,0 -2.352,-0.938 -2.352,-2.464c0,-0.196 0.028,-0.252 0.168,-0.252c0.308,0 1.498,0.014 2.548,0.014c0.518,0 0.994,0 1.316,-0.014c0.7,-0.014 1.022,-0.406 1.022,-0.938c0,-0.798 -0.84,-2.296 -2.758,-2.296c-1.652,0 -3.122,1.344 -3.122,3.388c0,1.974 1.386,3.304 3.164,3.304c1.764,0 2.744,-1.064 2.744,-1.386Zm-0.854,-3.15c0,0.224 -0.126,0.378 -0.462,0.392c-0.392,0.014 -1.176,0.014 -1.904,0.014c-1.624,0 -1.75,0 -1.75,-0.14c0,-0.518 0.854,-1.722 2.198,-1.722c1.428,0 1.918,1.05 1.918,1.456Z" style="fill-rule:nonzero;"/><path d="M19.712,48.137c0.028,0 0.028,0.014 0.042,0.056c0.196,0.77 0.896,0.966 0.98,0.966c0.252,0 0.42,-0.238 0.42,-0.434c0,-0.112 -0.042,-0.224 -0.154,-0.28c-0.56,-0.294 -0.784,-0.574 -0.784,-1.736c0,-0.462 0.028,-1.092 0.07,-1.554c0.014,-0.14 0.014,-0.266 0.014,-0.392c0,-1.568 -0.882,-2.142 -2.184,-2.142c-1.204,0 -2.38,0.602 -2.38,1.134c0,0.224 0.182,0.378 0.392,0.378c0.098,0 0.21,-0.042 0.294,-0.14c0.322,-0.35 0.882,-0.672 1.638,-0.672c1.134,0 1.456,0.602 1.456,1.372c0,0.07 -0.014,0.154 -0.014,0.224c0,0.098 -0.056,0.14 -0.224,0.168c-0.588,0.098 -1.722,0.308 -2.59,0.574c-1.036,0.322 -1.498,1.036 -1.498,1.736c0,0.966 0.854,1.932 2.268,1.932c0.854,0 1.792,-0.434 2.212,-1.148c0.014,-0.028 0.042,-0.042 0.042,-0.042Zm-2.268,0.448c-0.938,0 -1.498,-0.588 -1.498,-1.176c0,-0.98 1.162,-1.26 3.36,-1.61l0.042,0c0.098,0 0.14,0.042 0.14,0.154c0,0.168 -0.014,0.322 -0.014,0.476c0,1.19 -0.742,2.156 -2.03,2.156Z" style="fill-rule:nonzero;"/><path d="M29.316,48.753c0,-0.084 -0.014,-0.154 -0.056,-0.238c-0.49,-0.896 -0.49,-0.994 -0.49,-5.404c0,-1.624 0.014,-3.094 0.042,-3.696l0,-0.028c0,-0.28 -0.21,-0.434 -0.434,-0.434c-0.14,0 -0.434,0.07 -0.42,0.448c0.014,0.602 0.028,2.492 0.028,4.172c0,0.196 -0.014,0.266 -0.028,0.266c-0.028,0 -0.084,-0.07 -0.154,-0.168c-0.504,-0.644 -1.316,-1.036 -2.212,-1.036c-1.82,0 -3.192,1.358 -3.192,3.318c0,2.03 1.372,3.346 3.192,3.346c0.924,0 1.848,-0.42 2.45,-1.316c0.056,-0.07 0.084,-0.126 0.098,-0.126c0.028,0 0.042,0.056 0.07,0.21c0.042,0.266 0.224,0.756 0.294,0.882c0.098,0.168 0.238,0.224 0.378,0.224c0.224,0 0.434,-0.182 0.434,-0.42Zm-3.696,-0.224c-1.4,0 -2.38,-0.98 -2.38,-2.576c0,-1.61 0.966,-2.59 2.38,-2.59c1.33,0 2.366,1.022 2.366,2.59c0,1.554 -1.05,2.576 -2.366,2.576Z" style="fill-rule:nonzero;"/><path d="M105.254,50.463c0,0.216 0.18,0.336 0.36,0.336c0.18,0 0.348,-0.108 0.348,-0.348c0.012,-0.324 0.012,-0.816 0.012,-1.32c0,-0.828 -0.012,-1.716 -0.024,-2.1c-0.048,-1.272 -1.008,-1.92 -2.004,-1.92c-0.66,0 -1.344,0.288 -1.776,0.864c-0.012,0.024 -0.036,0.036 -0.048,0.036c0,0 -0.012,-0.012 -0.012,-0.048l0,-0.456c0,-0.228 -0.168,-0.324 -0.336,-0.324c-0.192,0 -0.384,0.12 -0.384,0.312l0,0.012c0.012,0.528 0.024,1.152 0.024,1.824c0,1.02 -0.024,2.136 -0.048,3.108l0,0.012c0,0.216 0.192,0.336 0.372,0.336c0.18,0 0.348,-0.108 0.348,-0.324l0,-0.012c-0.012,-0.432 -0.012,-0.828 -0.012,-1.212c0,-0.828 0.012,-1.488 0.024,-1.86c0.024,-0.96 0.972,-1.608 1.812,-1.608c0.672,0 1.284,0.408 1.344,1.38c0.012,0.192 0.024,0.612 0.024,1.104c0,0.756 -0.012,1.692 -0.024,2.196l0,0.012Z" style="fill-rule:nonzero;"/><path d="M110.33,50.847c1.596,0 2.796,-1.152 2.796,-2.88c0,-1.668 -1.2,-2.868 -2.796,-2.868c-1.596,0 -2.772,1.2 -2.772,2.868c0,1.728 1.176,2.88 2.772,2.88Zm0,-0.648c-1.152,0 -2.076,-0.888 -2.076,-2.232c0,-1.356 0.924,-2.244 2.076,-2.244c1.152,0 2.088,0.888 2.088,2.244c0,1.344 -0.936,2.232 -2.088,2.232Z" style="fill-rule:nonzero;"/><path d="M115.622,50.451c-0.012,-0.588 -0.012,-1.152 -0.012,-1.644c0,-0.684 0,-1.236 0.012,-1.548c0.024,-0.924 0.972,-1.464 1.824,-1.464c0.24,0 0.372,-0.18 0.372,-0.348c0,-0.168 -0.12,-0.324 -0.372,-0.324c-0.144,0 -1.224,0.072 -1.752,0.804c-0.012,0.024 -0.036,0.048 -0.048,0.048c0,0 -0.012,-0.024 -0.012,-0.06c0,-0.168 0.012,-0.252 0.012,-0.432c0,-0.228 -0.18,-0.336 -0.36,-0.336c-0.18,0 -0.372,0.12 -0.372,0.312l0,0.012c0.012,0.528 0.024,1.164 0.024,1.836c0,1.032 -0.024,2.16 -0.048,3.132l0,0.012c0,0.216 0.192,0.336 0.384,0.336c0.18,0 0.348,-0.108 0.348,-0.324l0,-0.012Z" style="fill-rule:nonzero;"/><path d="M126.278,50.451c0,0.228 0.18,0.36 0.36,0.36c0.168,0 0.348,-0.132 0.348,-0.396l0,-0.54c0,-0.936 -0.012,-2.46 -0.024,-2.964c-0.036,-1.176 -0.888,-1.8 -1.812,-1.8c-0.696,0 -1.416,0.348 -1.872,1.056c-0.24,-0.72 -0.912,-1.056 -1.608,-1.056c-0.612,0 -1.26,0.264 -1.644,0.756c-0.012,0.024 -0.024,0.036 -0.036,0.036c-0.012,0 -0.012,-0.024 -0.012,-0.072l0,-0.324c0,-0.228 -0.168,-0.336 -0.336,-0.336c-0.18,0 -0.348,0.108 -0.348,0.324l0,0.012c0.012,0.444 0.012,1.008 0.012,1.596c0,1.116 -0.012,2.376 -0.036,3.324l0,0.012c0,0.24 0.18,0.372 0.36,0.372c0.168,0 0.336,-0.12 0.336,-0.36l0,-0.012c-0.012,-0.54 -0.024,-1.44 -0.024,-2.172c0,-0.456 0,-0.852 0.012,-1.056c0.036,-0.888 0.864,-1.5 1.62,-1.5c0.588,0 1.14,0.384 1.188,1.32c0.012,0.204 0.012,0.696 0.012,1.26c0,0.768 0,1.668 -0.012,2.148l0,0.012c0,0.228 0.168,0.336 0.336,0.336c0.18,0 0.36,-0.12 0.36,-0.336l0,-0.012c-0.012,-0.624 -0.024,-1.524 -0.024,-2.256c0,-0.444 0,-0.828 0.012,-1.032c0.036,-0.816 0.876,-1.404 1.644,-1.404c0.588,0 1.14,0.36 1.188,1.284c0.012,0.204 0.012,0.696 0.012,1.26c0,0.768 0,1.668 -0.012,2.148l0,0.012Z" style="fill-rule:nonzero;"/><path d="M132.566,49.827c0.024,0 0.024,0.012 0.036,0.048c0.168,0.66 0.768,0.828 0.84,0.828c0.216,0 0.36,-0.204 0.36,-0.372c0,-0.096 -0.036,-0.192 -0.132,-0.24c-0.48,-0.252 -0.672,-0.492 -0.672,-1.488c0,-0.396 0.024,-0.936 0.06,-1.332c0.012,-0.12 0.012,-0.228 0.012,-0.336c0,-1.344 -0.756,-1.836 -1.872,-1.836c-1.032,0 -2.04,0.516 -2.04,0.972c0,0.192 0.156,0.324 0.336,0.324c0.084,0 0.18,-0.036 0.252,-0.12c0.276,-0.3 0.756,-0.576 1.404,-0.576c0.972,0 1.248,0.516 1.248,1.176c0,0.06 -0.012,0.132 -0.012,0.192c0,0.084 -0.048,0.12 -0.192,0.144c-0.504,0.084 -1.476,0.264 -2.22,0.492c-0.888,0.276 -1.284,0.888 -1.284,1.488c0,0.828 0.732,1.656 1.944,1.656c0.732,0 1.536,-0.372 1.896,-0.984c0.012,-0.024 0.036,-0.036 0.036,-0.036Zm-1.944,0.384c-0.804,0 -1.284,-0.504 -1.284,-1.008c0,-0.84 0.996,-1.08 2.88,-1.38l0.036,0c0.084,0 0.12,0.036 0.12,0.132c0,0.144 -0.012,0.276 -0.012,0.408c0,1.02 -0.636,1.848 -1.74,1.848Z" style="fill-rule:nonzero;"/><path d="M136.142,50.343c-0.012,-0.852 -0.024,-2.364 -0.024,-3.852c0,-1.812 0.012,-3.6 0.024,-4.152l0,-0.012c0,-0.24 -0.18,-0.36 -0.36,-0.36c-0.192,0 -0.384,0.12 -0.384,0.384l0,0.012c0.024,0.492 0.024,2.064 0.024,3.72c0,1.644 0,3.396 -0.024,4.26l0,0.012c0,0.252 0.18,0.372 0.372,0.372c0.192,0 0.372,-0.12 0.372,-0.372l0,-0.012Z" style="fill-rule:nonzero;"/><path d="M107.75,87.148c0,-0.06 -0.012,-0.12 -0.036,-0.18c-0.408,-0.96 -1.992,-5.34 -2.784,-7.548c-0.156,-0.432 -0.504,-0.648 -0.852,-0.648c-0.324,0 -0.66,0.204 -0.816,0.636c-0.576,1.656 -1.98,5.508 -2.652,7.68c-0.012,0.036 -0.024,0.084 -0.024,0.12c0,0.204 0.192,0.324 0.372,0.324c0.156,0 0.324,-0.084 0.384,-0.288c0.18,-0.588 0.552,-1.716 0.864,-2.676c0.024,-0.072 0.072,-0.144 0.18,-0.144c0.252,-0.012 1.2,-0.012 2.052,-0.012c0.612,0 1.188,0 1.38,0.012c0.12,0 0.156,0.048 0.192,0.144c0.372,1.104 0.828,2.34 0.972,2.688c0.072,0.192 0.228,0.276 0.372,0.276c0.204,0 0.396,-0.156 0.396,-0.384Zm-2.052,-3.456c0,0.036 -0.024,0.06 -0.108,0.06c-0.18,0 -0.792,0.012 -1.428,0.012c-0.624,0 -1.272,-0.012 -1.512,-0.012c-0.096,0 -0.132,-0.024 -0.132,-0.072c0,-0.096 1.068,-3.18 1.32,-3.864c0.072,-0.192 0.168,-0.288 0.264,-0.288c0.096,0 0.18,0.084 0.24,0.264c0.192,0.6 0.96,2.664 1.332,3.792c0.012,0.036 0.024,0.072 0.024,0.108Z" style="fill-rule:nonzero;"/><path d="M103.368,109.237c0.17,0 0.31,-0.15 0.31,-0.32c0,-0.08 -0.04,-0.17 -0.12,-0.24c-1.08,-0.94 -1.62,-2.45 -1.62,-3.95c0,-1.49 0.53,-2.98 1.6,-3.91c0.09,-0.08 0.13,-0.17 0.13,-0.26c0,-0.15 -0.12,-0.27 -0.27,-0.27c-0.08,0 -0.16,0.03 -0.24,0.1c-1.18,1.1 -1.76,2.74 -1.76,4.38c0,1.66 0.6,3.32 1.78,4.39c0.06,0.06 0.13,0.08 0.19,0.08Z" style="fill-rule:nonzero;"/><path d="M105.688,108.057c0,0.21 0.15,0.31 0.3,0.31c0.16,0 0.31,-0.11 0.31,-0.32c0,-0.83 -0.02,-3.61 -0.02,-3.61c0,-0.12 0.01,-0.13 0.11,-0.13l1.05,0c0.17,0 0.26,-0.14 0.26,-0.28c0,-0.13 -0.09,-0.27 -0.26,-0.27l-1.04,0c-0.1,0 -0.12,-0.01 -0.12,-0.1c-0.01,-0.13 -0.01,-0.35 -0.01,-0.59l0,-0.31c0.03,-0.65 0.41,-1.18 1.06,-1.18l0.12,0c0.19,0 0.3,-0.13 0.3,-0.27c0,-0.27 -0.35,-0.28 -0.45,-0.28c-0.78,0 -1.58,0.59 -1.61,1.67l0,0.26c0,0.32 0.01,0.59 0.01,0.69c0,0.1 -0.03,0.11 -0.14,0.11l-0.64,0c-0.17,0 -0.26,0.14 -0.26,0.28c0,0.14 0.09,0.27 0.26,0.27l0.64,0c0.12,0 0.13,0.01 0.13,0.13c0,0 0.01,1.22 0.01,2.29c0,0.54 0,1.03 -0.01,1.32l0,0.01Z" style="fill-rule:nonzero;"/><path d="M109.458,108.117c-0.01,-0.49 -0.01,-0.96 -0.01,-1.37c0,-0.57 0,-1.03 0.01,-1.29c0.02,-0.77 0.81,-1.22 1.52,-1.22c0.2,0 0.31,-0.15 0.31,-0.29c0,-0.14 -0.1,-0.27 -0.31,-0.27c-0.12,0 -1.02,0.06 -1.46,0.67c-0.01,0.02 -0.03,0.04 -0.04,0.04c0,0 -0.01,-0.02 -0.01,-0.05c0,-0.14 0.01,-0.21 0.01,-0.36c0,-0.19 -0.15,-0.28 -0.3,-0.28c-0.15,0 -0.31,0.1 -0.31,0.26l0,0.01c0.01,0.44 0.02,0.97 0.02,1.53c0,0.86 -0.02,1.8 -0.04,2.61l0,0.01c0,0.18 0.16,0.28 0.32,0.28c0.15,0 0.29,-0.09 0.29,-0.27l0,-0.01Z" style="fill-rule:nonzero;"/><path d="M114.438,108.447c1.33,0 2.33,-0.96 2.33,-2.4c0,-1.39 -1,-2.39 -2.33,-2.39c-1.33,0 -2.31,1 -2.31,2.39c0,1.44 0.98,2.4 2.31,2.4Zm0,-0.54c-0.96,0 -1.73,-0.74 -1.73,-1.86c0,-1.13 0.77,-1.87 1.73,-1.87c0.96,0 1.74,0.74 1.74,1.87c0,1.12 -0.78,1.86 -1.74,1.86Z" style="fill-rule:nonzero;"/><path d="M119.878,103.687c-0.94,0 -1.81,0.56 -1.81,1.59c0,0.57 0.33,1.01 0.71,1.23c0.07,0.04 0.13,0.06 0.13,0.08c0,0.02 -0.03,0.04 -0.1,0.08c-0.63,0.32 -0.7,0.71 -0.7,0.91c0,0.35 0.26,0.57 0.59,0.67c0.09,0.03 0.15,0.03 0.15,0.04c0,0.01 -0.04,0.02 -0.11,0.05c-0.52,0.2 -0.94,0.62 -0.94,1.18c0,1.01 1.18,1.49 2.27,1.49c1.54,0 2.51,-0.76 2.51,-1.77c0,-0.73 -0.58,-1.19 -1.34,-1.3c-0.25,-0.04 -0.32,-0.05 -1.62,-0.05c-0.48,0 -0.96,-0.03 -0.96,-0.35c0,-0.39 0.61,-0.71 1.27,-0.74c1.17,-0.04 1.82,-0.66 1.82,-1.53c0,-0.17 -0.02,-0.42 -0.12,-0.64c-0.01,-0.03 -0.02,-0.05 -0.02,-0.07c0,-0.12 0.19,-0.29 0.52,-0.29c0.05,0 0.11,0 0.16,0.01c0.02,0 0.05,0.01 0.07,0.01c0.17,0 0.26,-0.14 0.26,-0.27c0,-0.13 -0.06,-0.3 -0.46,-0.3c-0.28,0 -0.51,0.09 -0.77,0.27c-0.04,0.03 -0.08,0.04 -0.12,0.04c-0.04,0 -0.08,-0.01 -0.13,-0.04c-0.39,-0.22 -0.79,-0.3 -1.24,-0.3l-0.02,0Zm2.11,5.57c0,0.8 -0.95,1.22 -1.99,1.22c-1.17,0 -1.65,-0.52 -1.65,-0.99c0,-0.64 0.75,-1.06 1.44,-1.1c0.13,-0.01 0.29,-0.01 0.45,-0.01c0.7,0 1.75,0.01 1.75,0.88Zm-0.79,-4.02c0,1.05 -1.19,1.1 -1.32,1.1c-0.09,0 -1.25,0 -1.25,-1.09c0,-0.72 0.62,-1.1 1.28,-1.1c0.16,0 1.29,0.05 1.29,1.09Z" style="fill-rule:nonzero;"/><path d="M123.978,109.147c1.18,-1.07 1.78,-2.73 1.78,-4.39c0,-1.63 -0.58,-3.27 -1.76,-4.36c-0.08,-0.07 -0.17,-0.11 -0.24,-0.11c-0.15,0 -0.27,0.13 -0.27,0.28c0,0.08 0.04,0.17 0.13,0.25c1.06,0.92 1.59,2.41 1.59,3.91c0,1.51 -0.54,3.02 -1.61,3.95c-0.08,0.07 -0.12,0.16 -0.12,0.24c0,0.16 0.14,0.31 0.3,0.31c0.07,0 0.14,-0.02 0.2,-0.08Z" style="fill-rule:nonzero;"/><path d="M320.867,109.237c0.17,0 0.31,-0.15 0.31,-0.32c0,-0.08 -0.04,-0.17 -0.12,-0.24c-1.08,-0.94 -1.62,-2.45 -1.62,-3.95c0,-1.49 0.53,-2.98 1.6,-3.91c0.09,-0.08 0.13,-0.17 0.13,-0.26c0,-0.15 -0.12,-0.27 -0.27,-0.27c-0.08,0 -0.16,0.03 -0.24,0.1c-1.18,1.1 -1.76,2.74 -1.76,4.38c0,1.66 0.6,3.32 1.78,4.39c0.06,0.06 0.13,0.08 0.19,0.08Z" style="fill-rule:nonzero;"/><path d="M324.667,104.287c0.19,0 0.28,-0.13 0.28,-0.26c0,-0.13 -0.09,-0.26 -0.28,-0.26l-0.89,0c-0.13,0 -0.15,0 -0.15,-0.11c0,0 0.02,-0.8 0.02,-1.09c0,-0.21 -0.14,-0.31 -0.29,-0.31c-0.14,0 -0.29,0.1 -0.29,0.29l0,0.25c0,0.35 -0.01,0.83 -0.01,0.87c0,0.09 -0.02,0.1 -0.11,0.1l-0.58,0c-0.19,0 -0.28,0.13 -0.28,0.26c0,0.13 0.09,0.26 0.28,0.26l0.59,0c0.07,0 0.1,0.02 0.1,0.12l0,0.16c0,0.49 -0.02,1.71 -0.02,2.35c0,0.44 0,1.53 1.28,1.53c0.4,0 0.64,-0.05 0.64,-0.31c0,-0.13 -0.09,-0.26 -0.24,-0.26l-0.04,0c-0.1,0.01 -0.19,0.02 -0.28,0.02c-0.78,0 -0.8,-0.53 -0.8,-1.31c0,-0.74 0.03,-1.77 0.03,-2.15c0,-0.13 0,-0.15 0.16,-0.15l0.88,0Z" style="fill-rule:nonzero;"/><path d="M327.167,101.467c0,-0.38 -0.34,-0.46 -0.49,-0.46c-0.2,0 -0.48,0.15 -0.48,0.46c0,0.06 0,0.49 0.47,0.49c0.25,0 0.5,-0.18 0.5,-0.49Zm-0.17,6.61c-0.01,-0.56 -0.02,-1.3 -0.02,-2.01c0,-0.86 0.01,-1.68 0.02,-2.1l0,-0.01c0,-0.18 -0.16,-0.27 -0.31,-0.27c-0.16,0 -0.32,0.1 -0.32,0.28l0,0.01c0.01,0.28 0.01,0.69 0.01,1.16c0,0.93 -0.01,2.1 -0.01,2.95c0,0.2 0.16,0.3 0.31,0.3c0.16,0 0.32,-0.1 0.32,-0.3l0,-0.01Z" style="fill-rule:nonzero;"/><path d="M329.017,110.647c0,0.23 0.15,0.34 0.3,0.34c0.3,0 0.3,-0.23 0.3,-0.64c0,-0.72 -0.01,-2.34 -0.01,-2.6c0,-0.12 0,-0.16 0.02,-0.16c0.02,0 0.05,0.05 0.11,0.12c0.4,0.49 0.99,0.73 1.58,0.73c1.3,0 2.27,-0.94 2.27,-2.37c0,-1.41 -0.97,-2.39 -2.27,-2.39c-0.68,0 -1.26,0.3 -1.61,0.77c-0.04,0.05 -0.06,0.08 -0.08,0.08c-0.02,0 -0.02,-0.04 -0.02,-0.1c0,-0.09 0.01,-0.27 0.01,-0.38c0,-0.2 -0.16,-0.3 -0.31,-0.3c-0.15,0 -0.29,0.1 -0.29,0.32l0,0.01c0.01,0.5 0.02,1.59 0.02,2.78c0,1.44 -0.01,3.01 -0.02,3.78l0,0.01Zm2.28,-2.74c-0.95,0 -1.7,-0.72 -1.7,-1.84c0,-1.12 0.75,-1.86 1.7,-1.86c0.95,0 1.7,0.74 1.7,1.86c0,1.12 -0.75,1.84 -1.7,1.84Z" style="fill-rule:nonzero;"/><path d="M335.287,109.147c1.18,-1.07 1.78,-2.73 1.78,-4.39c0,-1.63 -0.58,-3.27 -1.76,-4.36c-0.08,-0.07 -0.17,-0.11 -0.24,-0.11c-0.15,0 -0.27,0.13 -0.27,0.28c0,0.08 0.04,0.17 0.13,0.25c1.06,0.92 1.59,2.41 1.59,3.91c0,1.51 -0.54,3.02 -1.61,3.95c-0.08,0.07 -0.12,0.16 -0.12,0.24c0,0.16 0.14,0.31 0.3,0.31c0.07,0 0.14,-0.02 0.2,-0.08Z" style="fill-rule:nonzero;"/><path d="M157.51,97.009c0,-0.168 -0.132,-0.324 -0.372,-0.324l-0.036,0c-0.216,0.012 -0.888,0.012 -1.56,0.012c-0.66,0 -1.32,0 -1.524,-0.012c-0.636,-0.048 -0.888,-0.312 -0.936,-0.768c-0.036,-0.288 -0.036,-0.852 -0.036,-2.7c0,-0.24 0.012,-0.24 1.5,-0.24c0.624,0 1.296,0 1.668,0.024l0.024,0c0.264,0 0.408,-0.192 0.408,-0.372c0,-0.084 -0.036,-0.36 -0.408,-0.348c-0.24,0.012 -0.864,0.012 -1.476,0.012c-0.612,0 -1.224,0 -1.464,-0.012c-0.12,0 -0.24,0 -0.24,-0.228c0.012,-0.708 0,-1.716 0.024,-2.004c0.06,-0.732 0.444,-0.732 1.656,-0.732c0.852,0 1.992,0.012 2.052,0.012c0.264,0 0.408,-0.168 0.408,-0.336c0,-0.168 -0.132,-0.336 -0.384,-0.348c-0.18,-0.012 -0.828,-0.024 -1.5,-0.024c-0.66,0 -1.332,0.012 -1.56,0.024c-0.888,0.048 -1.368,0.516 -1.392,1.296c-0.024,0.756 -0.036,2.34 -0.036,3.768c0,0.948 0,1.812 0.024,2.316c0.036,0.78 0.552,1.26 1.608,1.344c0.156,0.012 0.864,0.012 1.56,0.012c0.708,0 1.416,0 1.572,-0.012c0.288,-0.012 0.42,-0.192 0.42,-0.36Z" style="fill-rule:nonzero;"/><path d="M241.193,50.451c0,0.216 0.18,0.336 0.36,0.336c0.168,0 0.348,-0.12 0.348,-0.36c0.012,-0.324 0.012,-0.816 0.012,-1.32c0,-0.828 -0.012,-1.716 -0.024,-2.1c-0.048,-1.308 -1.008,-1.932 -2.004,-1.932c-0.672,0 -1.356,0.276 -1.776,0.816c-0.024,0.024 -0.036,0.048 -0.048,0.048c-0.012,0 -0.024,-0.024 -0.024,-0.06c0,-0.252 0.012,-3.096 0.012,-3.54c0,-0.228 -0.18,-0.336 -0.36,-0.336c-0.18,0 -0.36,0.108 -0.36,0.3l0,0.012c0.012,0.552 0.012,1.764 0.012,3.108c0,1.908 -0.012,4.08 -0.036,5.016l0,0.012c0,0.216 0.192,0.336 0.372,0.336c0.18,0 0.348,-0.108 0.348,-0.324l0,-0.012c-0.012,-0.432 -0.012,-0.84 -0.012,-1.224c0,-0.852 0.012,-1.56 0.024,-1.932c0.036,-0.936 0.948,-1.56 1.776,-1.56c0.684,0 1.32,0.408 1.38,1.404c0.012,0.192 0.024,0.612 0.024,1.104c0,0.756 -0.012,1.692 -0.024,2.196l0,0.012Z" style="fill-rule:nonzero;"/><path d="M248.597,49.659c0,-0.192 -0.18,-0.348 -0.36,-0.348c-0.084,0 -0.168,0.036 -0.24,0.108c-0.372,0.42 -0.864,0.792 -1.74,0.792c-1.152,0 -2.016,-0.804 -2.016,-2.112c0,-0.168 0.024,-0.216 0.144,-0.216c0.264,0 1.284,0.012 2.184,0.012c0.444,0 0.852,0 1.128,-0.012c0.6,-0.012 0.876,-0.348 0.876,-0.804c0,-0.684 -0.72,-1.968 -2.364,-1.968c-1.416,0 -2.676,1.152 -2.676,2.904c0,1.692 1.188,2.832 2.712,2.832c1.512,0 2.352,-0.912 2.352,-1.188Zm-0.732,-2.7c0,0.192 -0.108,0.324 -0.396,0.336c-0.336,0.012 -1.008,0.012 -1.632,0.012c-1.392,0 -1.5,0 -1.5,-0.12c0,-0.444 0.732,-1.476 1.884,-1.476c1.224,0 1.644,0.9 1.644,1.248Z" style="fill-rule:nonzero;"/><path d="M253.757,49.827c0.024,0 0.024,0.012 0.036,0.048c0.168,0.66 0.768,0.828 0.84,0.828c0.216,0 0.36,-0.204 0.36,-0.372c0,-0.096 -0.036,-0.192 -0.132,-0.24c-0.48,-0.252 -0.672,-0.492 -0.672,-1.488c0,-0.396 0.024,-0.936 0.06,-1.332c0.012,-0.12 0.012,-0.228 0.012,-0.336c0,-1.344 -0.756,-1.836 -1.872,-1.836c-1.032,0 -2.04,0.516 -2.04,0.972c0,0.192 0.156,0.324 0.336,0.324c0.084,0 0.18,-0.036 0.252,-0.12c0.276,-0.3 0.756,-0.576 1.404,-0.576c0.972,0 1.248,0.516 1.248,1.176c0,0.06 -0.012,0.132 -0.012,0.192c0,0.084 -0.048,0.12 -0.192,0.144c-0.504,0.084 -1.476,0.264 -2.22,0.492c-0.888,0.276 -1.284,0.888 -1.284,1.488c0,0.828 0.732,1.656 1.944,1.656c0.732,0 1.536,-0.372 1.896,-0.984c0.012,-0.024 0.036,-0.036 0.036,-0.036Zm-1.944,0.384c-0.804,0 -1.284,-0.504 -1.284,-1.008c0,-0.84 0.996,-1.08 2.88,-1.38l0.036,0c0.084,0 0.12,0.036 0.12,0.132c0,0.144 -0.012,0.276 -0.012,0.408c0,1.02 -0.636,1.848 -1.74,1.848Z" style="fill-rule:nonzero;"/><path d="M261.989,50.355c0,-0.072 -0.012,-0.132 -0.048,-0.204c-0.42,-0.768 -0.42,-0.852 -0.42,-4.632c0,-1.392 0.012,-2.652 0.036,-3.168l0,-0.024c0,-0.24 -0.18,-0.372 -0.372,-0.372c-0.12,0 -0.372,0.06 -0.36,0.384c0.012,0.516 0.024,2.136 0.024,3.576c0,0.168 -0.012,0.228 -0.024,0.228c-0.024,0 -0.072,-0.06 -0.132,-0.144c-0.432,-0.552 -1.128,-0.888 -1.896,-0.888c-1.56,0 -2.736,1.164 -2.736,2.844c0,1.74 1.176,2.868 2.736,2.868c0.792,0 1.584,-0.36 2.1,-1.128c0.048,-0.06 0.072,-0.108 0.084,-0.108c0.024,0 0.036,0.048 0.06,0.18c0.036,0.228 0.192,0.648 0.252,0.756c0.084,0.144 0.204,0.192 0.324,0.192c0.192,0 0.372,-0.156 0.372,-0.36Zm-3.168,-0.192c-1.2,0 -2.04,-0.84 -2.04,-2.208c0,-1.38 0.828,-2.22 2.04,-2.22c1.14,0 2.028,0.876 2.028,2.22c0,1.332 -0.9,2.208 -2.028,2.208Z" style="fill-rule:nonzero;"/><path d="M269.729,50.847c1.596,0 2.796,-1.152 2.796,-2.88c0,-1.668 -1.2,-2.868 -2.796,-2.868c-1.596,0 -2.772,1.2 -2.772,2.868c0,1.728 1.176,2.88 2.772,2.88Zm0,-0.648c-1.152,0 -2.076,-0.888 -2.076,-2.232c0,-1.356 0.924,-2.244 2.076,-2.244c1.152,0 2.088,0.888 2.088,2.244c0,1.344 -0.936,2.232 -2.088,2.232Z" style="fill-rule:nonzero;"/><path d="M278.189,50.463c0,0.216 0.18,0.336 0.36,0.336c0.18,0 0.348,-0.108 0.348,-0.348c0.012,-0.324 0.012,-0.816 0.012,-1.32c0,-0.828 -0.012,-1.716 -0.024,-2.1c-0.048,-1.272 -1.008,-1.92 -2.004,-1.92c-0.66,0 -1.344,0.288 -1.776,0.864c-0.012,0.024 -0.036,0.036 -0.048,0.036c0,0 -0.012,-0.012 -0.012,-0.048l0,-0.456c0,-0.228 -0.168,-0.324 -0.336,-0.324c-0.192,0 -0.384,0.12 -0.384,0.312l0,0.012c0.012,0.528 0.024,1.152 0.024,1.824c0,1.02 -0.024,2.136 -0.048,3.108l0,0.012c0,0.216 0.192,0.336 0.372,0.336c0.18,0 0.348,-0.108 0.348,-0.324l0,-0.012c-0.012,-0.432 -0.012,-0.828 -0.012,-1.212c0,-0.828 0.012,-1.488 0.024,-1.86c0.024,-0.96 0.972,-1.608 1.812,-1.608c0.672,0 1.284,0.408 1.344,1.38c0.012,0.192 0.024,0.612 0.024,1.104c0,0.756 -0.012,1.692 -0.024,2.196l0,0.012Z" style="fill-rule:nonzero;"/><path d="M289.877,50.307c0,-0.18 -0.144,-0.36 -0.396,-0.36l-0.036,0c-0.24,0.012 -1.032,0.024 -1.764,0.024c-1.884,0 -2.16,-0.048 -2.208,-0.756c-0.012,-0.228 -0.024,-0.9 -0.024,-1.752c0,-1.764 0.036,-4.272 0.072,-5.028l0,-0.024c0,-0.264 -0.204,-0.408 -0.408,-0.408c-0.204,0 -0.396,0.132 -0.396,0.396l0,0.264c0,1.212 -0.048,3.912 -0.048,5.604c0,0.468 0,0.852 0.012,1.116c0.024,0.84 0.492,1.212 1.548,1.296c0.156,0.012 0.888,0.012 1.608,0.012c0.732,0 1.464,0 1.62,-0.012c0.288,-0.012 0.42,-0.192 0.42,-0.372Z" style="fill-rule:nonzero;"/><path d="M298.361,49.311c0,-0.552 -0.324,-1.116 -1.068,-1.5c-0.372,-0.192 -0.924,-0.42 -1.26,-0.576c-0.396,-0.192 -0.588,-0.492 -0.588,-0.78c0,-0.396 0.348,-0.756 0.96,-0.756c0.516,0 0.816,0.192 1.008,0.42c0.096,0.12 0.216,0.168 0.312,0.168c0.192,0 0.348,-0.156 0.348,-0.348c0,-0.324 -0.648,-0.84 -1.668,-0.84c-1.056,0 -1.632,0.672 -1.632,1.38c0,0.516 0.312,1.044 0.972,1.332c1.392,0.624 1.908,0.864 1.908,1.5c0,0.516 -0.516,0.9 -1.2,0.9c-0.588,0 -1.02,-0.228 -1.284,-0.6c-0.084,-0.108 -0.192,-0.156 -0.3,-0.156c-0.18,0 -0.36,0.144 -0.36,0.348c0,0.336 0.696,1.056 1.944,1.056c1.344,0 1.908,-0.864 1.908,-1.548Z" style="fill-rule:nonzero;"/><path d="M304.037,50.451c0,0.216 0.18,0.336 0.36,0.336c0.168,0 0.348,-0.12 0.348,-0.36c0.012,-0.324 0.012,-0.816 0.012,-1.32c0,-0.828 -0.012,-1.716 -0.024,-2.1c-0.048,-1.308 -1.008,-1.932 -2.004,-1.932c-0.672,0 -1.356,0.276 -1.776,0.816c-0.024,0.024 -0.036,0.048 -0.048,0.048c-0.012,0 -0.024,-0.024 -0.024,-0.06c0,-0.252 0.012,-3.096 0.012,-3.54c0,-0.228 -0.18,-0.336 -0.36,-0.336c-0.18,0 -0.36,0.108 -0.36,0.3l0,0.012c0.012,0.552 0.012,1.764 0.012,3.108c0,1.908 -0.012,4.08 -0.036,5.016l0,0.012c0,0.216 0.192,0.336 0.372,0.336c0.18,0 0.348,-0.108 0.348,-0.324l0,-0.012c-0.012,-0.432 -0.012,-0.84 -0.012,-1.224c0,-0.852 0.012,-1.56 0.024,-1.932c0.036,-0.936 0.948,-1.56 1.776,-1.56c0.684,0 1.32,0.408 1.38,1.404c0.012,0.192 0.024,0.612 0.024,1.104c0,0.756 -0.012,1.692 -0.024,2.196l0,0.012Z" style="fill-rule:nonzero;"/><path d="M309.113,50.847c1.596,0 2.796,-1.152 2.796,-2.88c0,-1.668 -1.2,-2.868 -2.796,-2.868c-1.596,0 -2.772,1.2 -2.772,2.868c0,1.728 1.176,2.88 2.772,2.88Zm0,-0.648c-1.152,0 -2.076,-0.888 -2.076,-2.232c0,-1.356 0.924,-2.244 2.076,-2.244c1.152,0 2.088,0.888 2.088,2.244c0,1.344 -0.936,2.232 -2.088,2.232Z" style="fill-rule:nonzero;"/><path d="M318.209,45.495c0,-0.216 -0.192,-0.336 -0.372,-0.336c-0.18,0 -0.348,0.108 -0.348,0.324l0,0.012c0.012,0.636 0.024,1.26 0.024,1.896c0,0.408 -0.012,0.816 -0.024,1.224c-0.024,0.984 -0.936,1.62 -1.776,1.62c-0.672,0 -1.296,-0.408 -1.356,-1.392c-0.012,-0.192 -0.024,-0.612 -0.024,-1.116c0,-0.78 0.012,-1.728 0.024,-2.232l0,-0.012c0,-0.216 -0.18,-0.336 -0.36,-0.336c-0.18,0 -0.348,0.108 -0.348,0.348c-0.012,0.252 -0.012,0.6 -0.012,0.972c0,0.912 0.024,2.028 0.036,2.46c0.036,1.32 0.996,1.92 1.992,1.92c0.756,0 1.524,-0.336 1.932,-0.96c0.012,-0.024 0.024,-0.024 0.036,-0.024c0.012,0 0.012,0.012 0.024,0.06c0.024,0.204 0.192,0.84 0.588,0.84c0.192,0 0.372,-0.144 0.372,-0.336c0,-0.072 -0.024,-0.156 -0.084,-0.24c-0.312,-0.444 -0.36,-0.996 -0.36,-1.764c0,-1.008 0.012,-1.992 0.036,-2.916l0,-0.012Z" style="fill-rule:nonzero;"/><path d="M321.137,50.343c-0.012,-0.852 -0.024,-2.364 -0.024,-3.852c0,-1.812 0.012,-3.6 0.024,-4.152l0,-0.012c0,-0.24 -0.18,-0.36 -0.36,-0.36c-0.192,0 -0.384,0.12 -0.384,0.384l0,0.012c0.024,0.492 0.024,2.064 0.024,3.72c0,1.644 0,3.396 -0.024,4.26l0,0.012c0,0.252 0.18,0.372 0.372,0.372c0.192,0 0.372,-0.12 0.372,-0.372l0,-0.012Z" style="fill-rule:nonzero;"/><path d="M328.913,50.355c0,-0.072 -0.012,-0.132 -0.048,-0.204c-0.42,-0.768 -0.42,-0.852 -0.42,-4.632c0,-1.392 0.012,-2.652 0.036,-3.168l0,-0.024c0,-0.24 -0.18,-0.372 -0.372,-0.372c-0.12,0 -0.372,0.06 -0.36,0.384c0.012,0.516 0.024,2.136 0.024,3.576c0,0.168 -0.012,0.228 -0.024,0.228c-0.024,0 -0.072,-0.06 -0.132,-0.144c-0.432,-0.552 -1.128,-0.888 -1.896,-0.888c-1.56,0 -2.736,1.164 -2.736,2.844c0,1.74 1.176,2.868 2.736,2.868c0.792,0 1.584,-0.36 2.1,-1.128c0.048,-0.06 0.072,-0.108 0.084,-0.108c0.024,0 0.036,0.048 0.06,0.18c0.036,0.228 0.192,0.648 0.252,0.756c0.084,0.144 0.204,0.192 0.324,0.192c0.192,0 0.372,-0.156 0.372,-0.36Zm-3.168,-0.192c-1.2,0 -2.04,-0.84 -2.04,-2.208c0,-1.38 0.828,-2.22 2.04,-2.22c1.14,0 2.028,0.876 2.028,2.22c0,1.332 -0.9,2.208 -2.028,2.208Z" style="fill-rule:nonzero;"/><path d="M335.381,49.659c0,-0.192 -0.18,-0.348 -0.36,-0.348c-0.084,0 -0.168,0.036 -0.24,0.108c-0.372,0.42 -0.864,0.792 -1.74,0.792c-1.152,0 -2.016,-0.804 -2.016,-2.112c0,-0.168 0.024,-0.216 0.144,-0.216c0.264,0 1.284,0.012 2.184,0.012c0.444,0 0.852,0 1.128,-0.012c0.6,-0.012 0.876,-0.348 0.876,-0.804c0,-0.684 -0.72,-1.968 -2.364,-1.968c-1.416,0 -2.676,1.152 -2.676,2.904c0,1.692 1.188,2.832 2.712,2.832c1.512,0 2.352,-0.912 2.352,-1.188Zm-0.732,-2.7c0,0.192 -0.108,0.324 -0.396,0.336c-0.336,0.012 -1.008,0.012 -1.632,0.012c-1.392,0 -1.5,0 -1.5,-0.12c0,-0.444 0.732,-1.476 1.884,-1.476c1.224,0 1.644,0.9 1.644,1.248Z" style="fill-rule:nonzero;"/><path d="M337.829,50.451c-0.012,-0.588 -0.012,-1.152 -0.012,-1.644c0,-0.684 0,-1.236 0.012,-1.548c0.024,-0.924 0.972,-1.464 1.824,-1.464c0.24,0 0.372,-0.18 0.372,-0.348c0,-0.168 -0.12,-0.324 -0.372,-0.324c-0.144,0 -1.224,0.072 -1.752,0.804c-0.012,0.024 -0.036,0.048 -0.048,0.048c0,0 -0.012,-0.024 -0.012,-0.06c0,-0.168 0.012,-0.252 0.012,-0.432c0,-0.228 -0.18,-0.336 -0.36,-0.336c-0.18,0 -0.372,0.12 -0.372,0.312l0,0.012c0.012,0.528 0.024,1.164 0.024,1.836c0,1.032 -0.024,2.16 -0.048,3.132l0,0.012c0,0.216 0.192,0.336 0.384,0.336c0.18,0 0.348,-0.108 0.348,-0.324l0,-0.012Z" style="fill-rule:nonzero;"/><path d="M270.375,9.536c-0.012,-0.588 -0.012,-1.152 -0.012,-1.644c0,-0.684 0,-1.236 0.012,-1.548c0.024,-0.924 0.972,-1.464 1.824,-1.464c0.24,0 0.372,-0.18 0.372,-0.348c0,-0.168 -0.12,-0.324 -0.372,-0.324c-0.144,0 -1.224,0.072 -1.752,0.804c-0.012,0.024 -0.036,0.048 -0.048,0.048c0,0 -0.012,-0.024 -0.012,-0.06c0,-0.168 0.012,-0.252 0.012,-0.432c0,-0.228 -0.18,-0.336 -0.36,-0.336c-0.18,0 -0.372,0.12 -0.372,0.312l0,0.012c0.012,0.528 0.024,1.164 0.024,1.836c0,1.032 -0.024,2.16 -0.048,3.132l0,0.012c0,0.216 0.192,0.336 0.384,0.336c0.18,0 0.348,-0.108 0.348,-0.324l0,-0.012Z" style="fill-rule:nonzero;"/><path d="M276.351,9.932c1.596,0 2.796,-1.152 2.796,-2.88c0,-1.668 -1.2,-2.868 -2.796,-2.868c-1.596,0 -2.772,1.2 -2.772,2.868c0,1.728 1.176,2.88 2.772,2.88Zm0,-0.648c-1.152,0 -2.076,-0.888 -2.076,-2.232c0,-1.356 0.924,-2.244 2.076,-2.244c1.152,0 2.088,0.888 2.088,2.244c0,1.344 -0.936,2.232 -2.088,2.232Z" style="fill-rule:nonzero;"/><path d="M281.727,9.428c-0.012,-0.852 -0.024,-2.364 -0.024,-3.852c0,-1.812 0.012,-3.6 0.024,-4.152l0,-0.012c0,-0.24 -0.18,-0.36 -0.36,-0.36c-0.192,0 -0.384,0.12 -0.384,0.384l0,0.012c0.024,0.492 0.024,2.064 0.024,3.72c0,1.644 0,3.396 -0.024,4.26l0,0.012c0,0.252 0.18,0.372 0.372,0.372c0.192,0 0.372,-0.12 0.372,-0.372l0,-0.012Z" style="fill-rule:nonzero;"/><path d="M284.847,9.428c-0.012,-0.852 -0.024,-2.364 -0.024,-3.852c0,-1.812 0.012,-3.6 0.024,-4.152l0,-0.012c0,-0.24 -0.18,-0.36 -0.36,-0.36c-0.192,0 -0.384,0.12 -0.384,0.384l0,0.012c0.024,0.492 0.024,2.064 0.024,3.72c0,1.644 0,3.396 -0.024,4.26l0,0.012c0,0.252 0.18,0.372 0.372,0.372c0.192,0 0.372,-0.12 0.372,-0.372l0,-0.012Z" style="fill-rule:nonzero;"/><path d="M295.287,4.58c0,-0.216 -0.192,-0.336 -0.372,-0.336c-0.18,0 -0.348,0.108 -0.348,0.324l0,0.012c0.012,0.636 0.024,1.26 0.024,1.896c0,0.408 -0.012,0.816 -0.024,1.224c-0.024,0.984 -0.936,1.62 -1.776,1.62c-0.672,0 -1.296,-0.408 -1.356,-1.392c-0.012,-0.192 -0.024,-0.612 -0.024,-1.116c0,-0.78 0.012,-1.728 0.024,-2.232l0,-0.012c0,-0.216 -0.18,-0.336 -0.36,-0.336c-0.18,0 -0.348,0.108 -0.348,0.348c-0.012,0.252 -0.012,0.6 -0.012,0.972c0,0.912 0.024,2.028 0.036,2.46c0.036,1.32 0.996,1.92 1.992,1.92c0.756,0 1.524,-0.336 1.932,-0.96c0.012,-0.024 0.024,-0.024 0.036,-0.024c0.012,0 0.012,0.012 0.024,0.06c0.024,0.204 0.192,0.84 0.588,0.84c0.192,0 0.372,-0.144 0.372,-0.336c0,-0.072 -0.024,-0.156 -0.084,-0.24c-0.312,-0.444 -0.36,-0.996 -0.36,-1.764c0,-1.008 0.012,-1.992 0.036,-2.916l0,-0.012Z" style="fill-rule:nonzero;"/><path d="M297.483,12.572c0,0.276 0.18,0.408 0.36,0.408c0.36,0 0.36,-0.276 0.36,-0.768c0,-0.864 -0.012,-2.808 -0.012,-3.12c0,-0.144 0,-0.192 0.024,-0.192c0.024,0 0.06,0.06 0.132,0.144c0.48,0.588 1.188,0.876 1.896,0.876c1.56,0 2.724,-1.128 2.724,-2.844c0,-1.692 -1.164,-2.868 -2.724,-2.868c-0.816,0 -1.512,0.36 -1.932,0.924c-0.048,0.06 -0.072,0.096 -0.096,0.096c-0.024,0 -0.024,-0.048 -0.024,-0.12c0,-0.108 0.012,-0.324 0.012,-0.456c0,-0.24 -0.192,-0.36 -0.372,-0.36c-0.18,0 -0.348,0.12 -0.348,0.384l0,0.012c0.012,0.6 0.024,1.908 0.024,3.336c0,1.728 -0.012,3.612 -0.024,4.536l0,0.012Zm2.736,-3.288c-1.14,0 -2.04,-0.864 -2.04,-2.208c0,-1.344 0.9,-2.232 2.04,-2.232c1.14,0 2.04,0.888 2.04,2.232c0,1.344 -0.9,2.208 -2.04,2.208Z" style="fill-rule:nonzero;"/><path d="M310.899,9.284l0,-1.764c0,-0.132 0.012,-0.192 0.168,-0.192c0.468,0 1.164,0.012 1.68,0.012c0.228,0 0.348,-0.168 0.348,-0.324c0,-0.156 -0.12,-0.312 -0.336,-0.312l-0.012,0c-0.372,0.012 -1.104,0.012 -1.668,0.012c-0.144,0 -0.18,-0.036 -0.18,-0.18l0,-1.656c0,-0.204 -0.168,-0.312 -0.336,-0.312c-0.336,0 -0.336,0.264 -0.336,0.336c0.024,0.456 0.024,1.152 0.024,1.644c0,0.096 -0.024,0.168 -0.156,0.168c-0.6,0 -1.368,0 -1.728,-0.012l-0.012,0c-0.204,0 -0.3,0.156 -0.3,0.312c0,0.144 0.096,0.336 0.336,0.324c0.06,0 0.228,-0.012 1.668,-0.012c0.156,0 0.192,0.012 0.192,0.168c-0.012,0.492 -0.024,1.236 -0.024,1.776c0,0.228 0.168,0.336 0.336,0.336c0.168,0 0.336,-0.108 0.336,-0.324Z" style="fill-rule:nonzero;"/><path d="M319.479,9.428c-0.012,-0.852 -0.024,-2.364 -0.024,-3.852c0,-1.812 0.012,-3.6 0.024,-4.152l0,-0.012c0,-0.24 -0.18,-0.36 -0.36,-0.36c-0.192,0 -0.384,0.12 -0.384,0.384l0,0.012c0.024,0.492 0.024,2.064 0.024,3.72c0,1.644 0,3.396 -0.024,4.26l0,0.012c0,0.252 0.18,0.372 0.372,0.372c0.192,0 0.372,-0.12 0.372,-0.372l0,-0.012Z" style="fill-rule:nonzero;"/><path d="M326.415,8.744c0,-0.192 -0.18,-0.348 -0.36,-0.348c-0.084,0 -0.168,0.036 -0.24,0.108c-0.372,0.42 -0.864,0.792 -1.74,0.792c-1.152,0 -2.016,-0.804 -2.016,-2.112c0,-0.168 0.024,-0.216 0.144,-0.216c0.264,0 1.284,0.012 2.184,0.012c0.444,0 0.852,0 1.128,-0.012c0.6,-0.012 0.876,-0.348 0.876,-0.804c0,-0.684 -0.72,-1.968 -2.364,-1.968c-1.416,0 -2.676,1.152 -2.676,2.904c0,1.692 1.188,2.832 2.712,2.832c1.512,0 2.352,-0.912 2.352,-1.188Zm-0.732,-2.7c0,0.192 -0.108,0.324 -0.396,0.336c-0.336,0.012 -1.008,0.012 -1.632,0.012c-1.392,0 -1.5,0 -1.5,-0.12c0,-0.444 0.732,-1.476 1.884,-1.476c1.224,0 1.644,0.9 1.644,1.248Z" style="fill-rule:nonzero;"/><path d="M328.635,9.464c0,0.252 0.18,0.372 0.36,0.372c0.192,0 0.372,-0.132 0.372,-0.384c0,-0.996 -0.024,-4.332 -0.024,-4.332c0,-0.144 0.012,-0.156 0.132,-0.156l1.26,0c0.204,0 0.312,-0.168 0.312,-0.336c0,-0.156 -0.108,-0.324 -0.312,-0.324l-1.248,0c-0.12,0 -0.144,-0.012 -0.144,-0.12c-0.012,-0.156 -0.012,-0.42 -0.012,-0.708l0,-0.372c0.036,-0.78 0.492,-1.416 1.272,-1.416l0.144,0c0.228,0 0.36,-0.156 0.36,-0.324c0,-0.324 -0.42,-0.336 -0.54,-0.336c-0.936,0 -1.896,0.708 -1.932,2.004l0,0.312c0,0.384 0.012,0.708 0.012,0.828c0,0.12 -0.036,0.132 -0.168,0.132l-0.768,0c-0.204,0 -0.312,0.168 -0.312,0.336c0,0.168 0.108,0.324 0.312,0.324l0.768,0c0.144,0 0.156,0.012 0.156,0.156c0,0 0.012,1.464 0.012,2.748c0,0.648 0,1.236 -0.012,1.584l0,0.012Z" style="fill-rule:nonzero;"/><path d="M334.707,4.94c0.228,0 0.336,-0.156 0.336,-0.312c0,-0.156 -0.108,-0.312 -0.336,-0.312l-1.068,0c-0.156,0 -0.18,0 -0.18,-0.132c0,0 0.024,-0.96 0.024,-1.308c0,-0.252 -0.168,-0.372 -0.348,-0.372c-0.168,0 -0.348,0.12 -0.348,0.348l0,0.3c0,0.42 -0.012,0.996 -0.012,1.044c0,0.108 -0.024,0.12 -0.132,0.12l-0.696,0c-0.228,0 -0.336,0.156 -0.336,0.312c0,0.156 0.108,0.312 0.336,0.312l0.708,0c0.084,0 0.12,0.024 0.12,0.144l0,0.192c0,0.588 -0.024,2.052 -0.024,2.82c0,0.528 0,1.836 1.536,1.836c0.48,0 0.768,-0.06 0.768,-0.372c0,-0.156 -0.108,-0.312 -0.288,-0.312l-0.048,0c-0.12,0.012 -0.228,0.024 -0.336,0.024c-0.936,0 -0.96,-0.636 -0.96,-1.572c0,-0.888 0.036,-2.124 0.036,-2.58c0,-0.156 0,-0.18 0.192,-0.18l1.056,0Z" style="fill-rule:nonzero;"/><path d="M5.908,10.252c0,-0.224 -0.21,-0.406 -0.42,-0.406c-0.098,0 -0.196,0.042 -0.28,0.126c-0.434,0.49 -1.008,0.924 -2.03,0.924c-1.344,0 -2.352,-0.938 -2.352,-2.464c0,-0.196 0.028,-0.252 0.168,-0.252c0.308,0 1.498,0.014 2.548,0.014c0.518,0 0.994,0 1.316,-0.014c0.7,-0.014 1.022,-0.406 1.022,-0.938c0,-0.798 -0.84,-2.296 -2.758,-2.296c-1.652,0 -3.122,1.344 -3.122,3.388c0,1.974 1.386,3.304 3.164,3.304c1.764,0 2.744,-1.064 2.744,-1.386Zm-0.854,-3.15c0,0.224 -0.126,0.378 -0.462,0.392c-0.392,0.014 -1.176,0.014 -1.904,0.014c-1.624,0 -1.75,0 -1.75,-0.14c0,-0.518 0.854,-1.722 2.198,-1.722c1.428,0 1.918,1.05 1.918,1.456Z" style="fill-rule:nonzero;"/><path d="M10.178,12.366c0.854,-2.044 2.128,-5.04 2.814,-6.72c0.028,-0.07 0.042,-0.126 0.042,-0.182c0,-0.252 -0.224,-0.406 -0.462,-0.406c-0.168,0 -0.35,0.084 -0.42,0.308c-0.014,0.056 -1.834,5.152 -2.072,5.152c-0.042,0 -0.084,-0.07 -0.14,-0.196c-0.406,-0.924 -1.624,-4.06 -1.974,-4.998c-0.07,-0.196 -0.224,-0.28 -0.392,-0.28c-0.21,0 -0.42,0.154 -0.42,0.392c0,0.056 0,0.112 0.028,0.182c0.35,0.952 1.932,4.704 2.366,5.782c0.042,0.098 0.07,0.182 0.07,0.266c0,0.056 -0.014,0.112 -0.042,0.182c-0.742,1.722 -1.232,2.492 -2.366,2.492c-0.322,0 -0.476,0.21 -0.476,0.406c0,0.21 0.154,0.42 0.448,0.42c1.54,0 2.268,-1.036 2.996,-2.8Z" style="fill-rule:nonzero;"/><path d="M20.216,10.252c0,-0.224 -0.21,-0.406 -0.42,-0.406c-0.098,0 -0.196,0.042 -0.28,0.126c-0.434,0.49 -1.008,0.924 -2.03,0.924c-1.344,0 -2.352,-0.938 -2.352,-2.464c0,-0.196 0.028,-0.252 0.168,-0.252c0.308,0 1.498,0.014 2.548,0.014c0.518,0 0.994,0 1.316,-0.014c0.7,-0.014 1.022,-0.406 1.022,-0.938c0,-0.798 -0.84,-2.296 -2.758,-2.296c-1.652,0 -3.122,1.344 -3.122,3.388c0,1.974 1.386,3.304 3.164,3.304c1.764,0 2.744,-1.064 2.744,-1.386Zm-0.854,-3.15c0,0.224 -0.126,0.378 -0.462,0.392c-0.392,0.014 -1.176,0.014 -1.904,0.014c-1.624,0 -1.75,0 -1.75,-0.14c0,-0.518 0.854,-1.722 2.198,-1.722c1.428,0 1.918,1.05 1.918,1.456Z" style="fill-rule:nonzero;"/><path d="M26.138,9.846c0,-0.644 -0.378,-1.302 -1.246,-1.75c-0.434,-0.224 -1.078,-0.49 -1.47,-0.672c-0.462,-0.224 -0.686,-0.574 -0.686,-0.91c0,-0.462 0.406,-0.882 1.12,-0.882c0.602,0 0.952,0.224 1.176,0.49c0.112,0.14 0.252,0.196 0.364,0.196c0.224,0 0.406,-0.182 0.406,-0.406c0,-0.378 -0.756,-0.98 -1.946,-0.98c-1.232,0 -1.904,0.784 -1.904,1.61c0,0.602 0.364,1.218 1.134,1.554c1.624,0.728 2.226,1.008 2.226,1.75c0,0.602 -0.602,1.05 -1.4,1.05c-0.686,0 -1.19,-0.266 -1.498,-0.7c-0.098,-0.126 -0.224,-0.182 -0.35,-0.182c-0.21,0 -0.42,0.168 -0.42,0.406c0,0.392 0.812,1.232 2.268,1.232c1.568,0 2.226,-1.008 2.226,-1.806Z" style="fill-rule:nonzero;"/><circle cx="373.528" cy="25.631" r="3.944" style="fill:none;stroke:#000;stroke-width:1.5px;"/><path d="M102.997,10.988l1.758,1.759l-4.612,0l0,-4.613l1.758,1.759l9.893,-9.893l1.095,1.096l-9.892,9.892Z"/><path d="M190.624,7.464l0.74,-2.76l2.787,4.471l-4.649,2.478l0.739,-2.759l-12.945,-3.469l0.383,-1.43l12.945,3.469Z"/><path d="M103.573,27.402l240.104,0" style="fill:none;stroke:#000;stroke-width:1.5px;stroke-dasharray:1.5,4.5,1.5,3;"/><path d="M103.573,68.426l240.104,0" style="fill:none;stroke:#000;stroke-width:1.5px;stroke-dasharray:1.5,4.5,1.5,3;"/><path d="M108.476,79.512l0,1.009c0.263,-0.234 0.501,-0.395 0.713,-0.483c0.212,-0.087 0.442,-0.131 0.69,-0.131c0.351,0 0.607,0.124 0.768,0.373c0.161,0.248 0.248,0.511 0.263,0.789c0,0.161 -0.022,0.314 -0.066,0.46c-0.044,0.146 -0.088,0.278 -0.131,0.395c-0.074,0.161 -0.154,0.299 -0.242,0.416c-0.087,0.117 -0.19,0.234 -0.307,0.351c-0.073,0.073 -0.23,0.194 -0.471,0.362c-0.241,0.168 -0.497,0.34 -0.767,0.515c-0.271,0.175 -0.515,0.333 -0.735,0.471c-0.219,0.139 -0.328,0.209 -0.328,0.209l0,-8.463l0.613,0l0,3.727Zm1.118,1.338c-0.043,-0.059 -0.106,-0.106 -0.186,-0.143c-0.08,-0.036 -0.168,-0.055 -0.263,-0.055c-0.095,0 -0.186,0.026 -0.274,0.077c-0.088,0.051 -0.168,0.15 -0.241,0.296c-0.088,0.175 -0.135,0.376 -0.143,0.603c-0.007,0.226 -0.011,0.449 -0.011,0.669l0,1.227c0.103,-0.073 0.198,-0.153 0.285,-0.241l0.483,-0.46c0.117,-0.117 0.223,-0.249 0.318,-0.395c0.095,-0.146 0.171,-0.321 0.23,-0.526c0.117,-0.439 0.051,-0.789 -0.198,-1.052Z" style="fill-rule:nonzero;"/><path d="M159.365,89.362l0,1.008c0.263,-0.234 0.501,-0.394 0.712,-0.482c0.212,-0.088 0.443,-0.132 0.691,-0.132c0.351,0 0.607,0.125 0.767,0.373c0.161,0.249 0.249,0.512 0.263,0.789c0,0.161 -0.021,0.315 -0.065,0.461c-0.044,0.146 -0.088,0.277 -0.132,0.394c-0.073,0.161 -0.153,0.3 -0.241,0.417c-0.088,0.117 -0.19,0.234 -0.307,0.351c-0.073,0.073 -0.23,0.193 -0.471,0.361c-0.241,0.169 -0.497,0.34 -0.768,0.516c-0.27,0.175 -0.515,0.332 -0.734,0.471c-0.219,0.139 -0.329,0.208 -0.329,0.208l0,-8.462l0.614,0l0,3.727Zm1.118,1.337c-0.044,-0.058 -0.106,-0.106 -0.186,-0.142c-0.081,-0.037 -0.168,-0.055 -0.263,-0.055c-0.095,0 -0.187,0.025 -0.274,0.077c-0.088,0.051 -0.169,0.149 -0.242,0.296c-0.087,0.175 -0.135,0.376 -0.142,0.602c-0.007,0.227 -0.011,0.45 -0.011,0.669l0,1.228c0.102,-0.073 0.197,-0.154 0.285,-0.241l0.482,-0.461c0.117,-0.117 0.223,-0.248 0.318,-0.394c0.095,-0.147 0.172,-0.322 0.23,-0.527c0.117,-0.438 0.052,-0.789 -0.197,-1.052Z" style="fill-rule:nonzero;"/><path d="M117.614,82.287l139.192,0" style="fill:none;stroke:#000;stroke-width:1px;"/><path d="M171.614,92.287l132.129,0" style="fill:none;stroke:#000;stroke-width:1px;"/></svg>