<?xml version="1.0" encoding="UTF-8" standalone="no"?><!DOCTYPE svg PUBLIC "-//W3C//DTD SVG 1.1//EN" "http://www.w3.org/Graphics/SVG/1.1/DTD/svg11.dtd"><svg width="100%" height="100%" viewBox="0 0 397 95" version="1.1" xmlns="http://www.w3.org/2000/svg" xmlns:xlink="http://www.w3.org/1999/xlink" xml:space="preserve" xmlns:serif="http://www.serif.com/" style="fill-rule:evenodd;clip-rule:evenodd;stroke-linecap:round;stroke-linejoin:round;stroke-miterlimit:1.5;"><path d="M51.913,0.75l0,92.582" style="fill:none;stroke:#000;stroke-width:1.5px;"/><path d="M396.038,93.332l0,-92.582" style="fill:none;stroke:#000;stroke-width:1.5px;"/><path d="M59.903,0.75l0,92.582" style="fill:none;stroke:#000;stroke-width:1.5px;"/><path d="M388.048,93.332l0,-92.582" style="fill:none;stroke:#000;stroke-width:1.5px;"/><circle cx="74.815" cy="26.672" r="3.944" style="fill:none;stroke:#000;stroke-width:1.5px;"/><circle cx="373.136" cy="67.41" r="3.944" style="fill:none;stroke:#000;stroke-width:1.5px;"/><circle cx="74.815" cy="69.01" r="3.944" style="fill:none;stroke:#000;stroke-width:1.5px;"/><path d="M1.358,78.667c0,-0.532 -0.476,-0.644 -0.686,-0.644c-0.28,0 -0.672,0.21 -0.672,0.644c0,0.084 0,0.686 0.658,0.686c0.35,0 0.7,-0.252 0.7,-0.686Zm-0.238,9.254c-0.014,-0.784 -0.028,-1.82 -0.028,-2.814c0,-1.204 0.014,-2.352 0.028,-2.94l0,-0.014c0,-0.252 -0.224,-0.378 -0.434,-0.378c-0.224,0 -0.448,0.14 -0.448,0.392l0,0.014c0.014,0.392 0.014,0.966 0.014,1.624c0,1.302 -0.014,2.94 -0.014,4.13c0,0.28 0.224,0.42 0.434,0.42c0.224,0 0.448,-0.14 0.448,-0.42l0,-0.014Z" style="fill-rule:nonzero;"/><path d="M8.4,87.991c0,0.252 0.21,0.392 0.42,0.392c0.21,0 0.406,-0.126 0.406,-0.406c0.014,-0.378 0.014,-0.952 0.014,-1.54c0,-0.966 -0.014,-2.002 -0.028,-2.45c-0.056,-1.484 -1.176,-2.24 -2.338,-2.24c-0.77,0 -1.568,0.336 -2.072,1.008c-0.014,0.028 -0.042,0.042 -0.056,0.042c0,0 -0.014,-0.014 -0.014,-0.056l0,-0.532c0,-0.266 -0.196,-0.378 -0.392,-0.378c-0.224,0 -0.448,0.14 -0.448,0.364l0,0.014c0.014,0.616 0.028,1.344 0.028,2.128c0,1.19 -0.028,2.492 -0.056,3.626l0,0.014c0,0.252 0.224,0.392 0.434,0.392c0.21,0 0.406,-0.126 0.406,-0.378l0,-0.014c-0.014,-0.504 -0.014,-0.966 -0.014,-1.414c0,-0.966 0.014,-1.736 0.028,-2.17c0.028,-1.12 1.134,-1.876 2.114,-1.876c0.784,0 1.498,0.476 1.568,1.61c0.014,0.224 0.028,0.714 0.028,1.288c0,0.882 -0.014,1.974 -0.028,2.562l0,0.014Z" style="fill-rule:nonzero;"/><path d="M15.554,86.647c0,-0.644 -0.378,-1.302 -1.246,-1.75c-0.434,-0.224 -1.078,-0.49 -1.47,-0.672c-0.462,-0.224 -0.686,-0.574 -0.686,-0.91c0,-0.462 0.406,-0.882 1.12,-0.882c0.602,0 0.952,0.224 1.176,0.49c0.112,0.14 0.252,0.196 0.364,0.196c0.224,0 0.406,-0.182 0.406,-0.406c0,-0.378 -0.756,-0.98 -1.946,-0.98c-1.232,0 -1.904,0.784 -1.904,1.61c0,0.602 0.364,1.218 1.134,1.554c1.624,0.728 2.226,1.008 2.226,1.75c0,0.602 -0.602,1.05 -1.4,1.05c-0.686,0 -1.19,-0.266 -1.498,-0.7c-0.098,-0.126 -0.224,-0.182 -0.35,-0.182c-0.21,0 -0.42,0.168 -0.42,0.406c0,0.392 0.812,1.232 2.268,1.232c1.568,0 2.226,-1.008 2.226,-1.806Z" style="fill-rule:nonzero;"/><path d="M20.286,82.615c0.266,0 0.392,-0.182 0.392,-0.364c0,-0.182 -0.126,-0.364 -0.392,-0.364l-1.246,0c-0.182,0 -0.21,0 -0.21,-0.154c0,0 0.028,-1.12 0.028,-1.526c0,-0.294 -0.196,-0.434 -0.406,-0.434c-0.196,0 -0.406,0.14 -0.406,0.406l0,0.35c0,0.49 -0.014,1.162 -0.014,1.218c0,0.126 -0.028,0.14 -0.154,0.14l-0.812,0c-0.266,0 -0.392,0.182 -0.392,0.364c0,0.182 0.126,0.364 0.392,0.364l0.826,0c0.098,0 0.14,0.028 0.14,0.168l0,0.224c0,0.686 -0.028,2.394 -0.028,3.29c0,0.616 0,2.142 1.792,2.142c0.56,0 0.896,-0.07 0.896,-0.434c0,-0.182 -0.126,-0.364 -0.336,-0.364l-0.056,0c-0.14,0.014 -0.266,0.028 -0.392,0.028c-1.092,0 -1.12,-0.742 -1.12,-1.834c0,-1.036 0.042,-2.478 0.042,-3.01c0,-0.182 0,-0.21 0.224,-0.21l1.232,0Z" style="fill-rule:nonzero;"/><path d="M8.26,48.307c0,0.266 0.21,0.42 0.42,0.42c0.196,0 0.406,-0.154 0.406,-0.462l0,-0.63c0,-1.092 -0.014,-2.87 -0.028,-3.458c-0.042,-1.372 -1.036,-2.1 -2.114,-2.1c-0.812,0 -1.652,0.406 -2.184,1.232c-0.28,-0.84 -1.064,-1.232 -1.876,-1.232c-0.714,0 -1.47,0.308 -1.918,0.882c-0.014,0.028 -0.028,0.042 -0.042,0.042c-0.014,0 -0.014,-0.028 -0.014,-0.084l0,-0.378c0,-0.266 -0.196,-0.392 -0.392,-0.392c-0.21,0 -0.406,0.126 -0.406,0.378l0,0.014c0.014,0.518 0.014,1.176 0.014,1.862c0,1.302 -0.014,2.772 -0.042,3.878l0,0.014c0,0.28 0.21,0.434 0.42,0.434c0.196,0 0.392,-0.14 0.392,-0.42l0,-0.014c-0.014,-0.63 -0.028,-1.68 -0.028,-2.534c0,-0.532 0,-0.994 0.014,-1.232c0.042,-1.036 1.008,-1.75 1.89,-1.75c0.686,0 1.33,0.448 1.386,1.54c0.014,0.238 0.014,0.812 0.014,1.47c0,0.896 0,1.946 -0.014,2.506l0,0.014c0,0.266 0.196,0.392 0.392,0.392c0.21,0 0.42,-0.14 0.42,-0.392l0,-0.014c-0.014,-0.728 -0.028,-1.778 -0.028,-2.632c0,-0.518 0,-0.966 0.014,-1.204c0.042,-0.952 1.022,-1.638 1.918,-1.638c0.686,0 1.33,0.42 1.386,1.498c0.014,0.238 0.014,0.812 0.014,1.47c0,0.896 0,1.946 -0.014,2.506l0,0.014Z" style="fill-rule:nonzero;"/><path d="M14.266,48.769c1.862,0 3.262,-1.344 3.262,-3.36c0,-1.946 -1.4,-3.346 -3.262,-3.346c-1.862,0 -3.234,1.4 -3.234,3.346c0,2.016 1.372,3.36 3.234,3.36Zm0,-0.756c-1.344,0 -2.422,-1.036 -2.422,-2.604c0,-1.582 1.078,-2.618 2.422,-2.618c1.344,0 2.436,1.036 2.436,2.618c0,1.568 -1.092,2.604 -2.436,2.604Z" style="fill-rule:nonzero;"/><path d="M24.878,42.525c0,-0.252 -0.224,-0.392 -0.434,-0.392c-0.21,0 -0.406,0.126 -0.406,0.378l0,0.014c0.014,0.742 0.028,1.47 0.028,2.212c0,0.476 -0.014,0.952 -0.028,1.428c-0.028,1.148 -1.092,1.89 -2.072,1.89c-0.784,0 -1.512,-0.476 -1.582,-1.624c-0.014,-0.224 -0.028,-0.714 -0.028,-1.302c0,-0.91 0.014,-2.016 0.028,-2.604l0,-0.014c0,-0.252 -0.21,-0.392 -0.42,-0.392c-0.21,0 -0.406,0.126 -0.406,0.406c-0.014,0.294 -0.014,0.7 -0.014,1.134c0,1.064 0.028,2.366 0.042,2.87c0.042,1.54 1.162,2.24 2.324,2.24c0.882,0 1.778,-0.392 2.254,-1.12c0.014,-0.028 0.028,-0.028 0.042,-0.028c0.014,0 0.014,0.014 0.028,0.07c0.028,0.238 0.224,0.98 0.686,0.98c0.224,0 0.434,-0.168 0.434,-0.392c0,-0.084 -0.028,-0.182 -0.098,-0.28c-0.364,-0.518 -0.42,-1.162 -0.42,-2.058c0,-1.176 0.014,-2.324 0.042,-3.402l0,-0.014Z" style="fill-rule:nonzero;"/><path d="M30.002,42.945c0.266,0 0.392,-0.182 0.392,-0.364c0,-0.182 -0.126,-0.364 -0.392,-0.364l-1.246,0c-0.182,0 -0.21,0 -0.21,-0.154c0,0 0.028,-1.12 0.028,-1.526c0,-0.294 -0.196,-0.434 -0.406,-0.434c-0.196,0 -0.406,0.14 -0.406,0.406l0,0.35c0,0.49 -0.014,1.162 -0.014,1.218c0,0.126 -0.028,0.14 -0.154,0.14l-0.812,0c-0.266,0 -0.392,0.182 -0.392,0.364c0,0.182 0.126,0.364 0.392,0.364l0.826,0c0.098,0 0.14,0.028 0.14,0.168l0,0.224c0,0.686 -0.028,2.394 -0.028,3.29c0,0.616 0,2.142 1.792,2.142c0.56,0 0.896,-0.07 0.896,-0.434c0,-0.182 -0.126,-0.364 -0.336,-0.364l-0.056,0c-0.14,0.014 -0.266,0.028 -0.392,0.028c-1.092,0 -1.12,-0.742 -1.12,-1.834c0,-1.036 0.042,-2.478 0.042,-3.01c0,-0.182 0,-0.21 0.224,-0.21l1.232,0Z" style="fill-rule:nonzero;"/><path d="M36.806,48.307c0,0.252 0.21,0.392 0.42,0.392c0.196,0 0.406,-0.14 0.406,-0.42c0.014,-0.378 0.014,-0.952 0.014,-1.54c0,-0.966 -0.014,-2.002 -0.028,-2.45c-0.056,-1.526 -1.176,-2.254 -2.338,-2.254c-0.784,0 -1.582,0.322 -2.072,0.952c-0.028,0.028 -0.042,0.056 -0.056,0.056c-0.014,0 -0.028,-0.028 -0.028,-0.07c0,-0.294 0.014,-3.612 0.014,-4.13c0,-0.266 -0.21,-0.392 -0.42,-0.392c-0.21,0 -0.42,0.126 -0.42,0.35l0,0.014c0.014,0.644 0.014,2.058 0.014,3.626c0,2.226 -0.014,4.76 -0.042,5.852l0,0.014c0,0.252 0.224,0.392 0.434,0.392c0.21,0 0.406,-0.126 0.406,-0.378l0,-0.014c-0.014,-0.504 -0.014,-0.98 -0.014,-1.428c0,-0.994 0.014,-1.82 0.028,-2.254c0.042,-1.092 1.106,-1.82 2.072,-1.82c0.798,0 1.54,0.476 1.61,1.638c0.014,0.224 0.028,0.714 0.028,1.288c0,0.882 -0.014,1.974 -0.028,2.562l0,0.014Z" style="fill-rule:nonzero;"/><path d="M101.046,52.929c0,0.276 0.18,0.408 0.36,0.408c0.36,0 0.36,-0.276 0.36,-0.768c0,-0.864 -0.012,-2.808 -0.012,-3.12c0,-0.144 0,-0.192 0.024,-0.192c0.024,0 0.06,0.06 0.132,0.144c0.48,0.588 1.188,0.876 1.896,0.876c1.56,0 2.724,-1.128 2.724,-2.844c0,-1.692 -1.164,-2.868 -2.724,-2.868c-0.816,0 -1.512,0.36 -1.932,0.924c-0.048,0.06 -0.072,0.096 -0.096,0.096c-0.024,0 -0.024,-0.048 -0.024,-0.12c0,-0.108 0.012,-0.324 0.012,-0.456c0,-0.24 -0.192,-0.36 -0.372,-0.36c-0.18,0 -0.348,0.12 -0.348,0.384l0,0.012c0.012,0.6 0.024,1.908 0.024,3.336c0,1.728 -0.012,3.612 -0.024,4.536l0,0.012Zm2.736,-3.288c-1.14,0 -2.04,-0.864 -2.04,-2.208c0,-1.344 0.9,-2.232 2.04,-2.232c1.14,0 2.04,0.888 2.04,2.232c0,1.344 -0.9,2.208 -2.04,2.208Z" style="fill-rule:nonzero;"/><path d="M112.818,44.937c0,-0.216 -0.192,-0.336 -0.372,-0.336c-0.18,0 -0.348,0.108 -0.348,0.324l0,0.012c0.012,0.636 0.024,1.26 0.024,1.896c0,0.408 -0.012,0.816 -0.024,1.224c-0.024,0.984 -0.936,1.62 -1.776,1.62c-0.672,0 -1.296,-0.408 -1.356,-1.392c-0.012,-0.192 -0.024,-0.612 -0.024,-1.116c0,-0.78 0.012,-1.728 0.024,-2.232l0,-0.012c0,-0.216 -0.18,-0.336 -0.36,-0.336c-0.18,0 -0.348,0.108 -0.348,0.348c-0.012,0.252 -0.012,0.6 -0.012,0.972c0,0.912 0.024,2.028 0.036,2.46c0.036,1.32 0.996,1.92 1.992,1.92c0.756,0 1.524,-0.336 1.932,-0.96c0.012,-0.024 0.024,-0.024 0.036,-0.024c0.012,0 0.012,0.012 0.024,0.06c0.024,0.204 0.192,0.84 0.588,0.84c0.192,0 0.372,-0.144 0.372,-0.336c0,-0.072 -0.024,-0.156 -0.084,-0.24c-0.312,-0.444 -0.36,-0.996 -0.36,-1.764c0,-1.008 0.012,-1.992 0.036,-2.916l0,-0.012Z" style="fill-rule:nonzero;"/><path d="M115.662,49.893c-0.012,-0.588 -0.012,-1.152 -0.012,-1.644c0,-0.684 0,-1.236 0.012,-1.548c0.024,-0.924 0.972,-1.464 1.824,-1.464c0.24,0 0.372,-0.18 0.372,-0.348c0,-0.168 -0.12,-0.324 -0.372,-0.324c-0.144,0 -1.224,0.072 -1.752,0.804c-0.012,0.024 -0.036,0.048 -0.048,0.048c0,0 -0.012,-0.024 -0.012,-0.06c0,-0.168 0.012,-0.252 0.012,-0.432c0,-0.228 -0.18,-0.336 -0.36,-0.336c-0.18,0 -0.372,0.12 -0.372,0.312l0,0.012c0.012,0.528 0.024,1.164 0.024,1.836c0,1.032 -0.024,2.16 -0.048,3.132l0,0.012c0,0.216 0.192,0.336 0.384,0.336c0.18,0 0.348,-0.108 0.348,-0.324l0,-0.012Z" style="fill-rule:nonzero;"/><path d="M122.694,48.753c0,-0.552 -0.324,-1.116 -1.068,-1.5c-0.372,-0.192 -0.924,-0.42 -1.26,-0.576c-0.396,-0.192 -0.588,-0.492 -0.588,-0.78c0,-0.396 0.348,-0.756 0.96,-0.756c0.516,0 0.816,0.192 1.008,0.42c0.096,0.12 0.216,0.168 0.312,0.168c0.192,0 0.348,-0.156 0.348,-0.348c0,-0.324 -0.648,-0.84 -1.668,-0.84c-1.056,0 -1.632,0.672 -1.632,1.38c0,0.516 0.312,1.044 0.972,1.332c1.392,0.624 1.908,0.864 1.908,1.5c0,0.516 -0.516,0.9 -1.2,0.9c-0.588,0 -1.02,-0.228 -1.284,-0.6c-0.084,-0.108 -0.192,-0.156 -0.3,-0.156c-0.18,0 -0.36,0.144 -0.36,0.348c0,0.336 0.696,1.056 1.944,1.056c1.344,0 1.908,-0.864 1.908,-1.548Z" style="fill-rule:nonzero;"/><path d="M129.102,49.101c0,-0.192 -0.18,-0.348 -0.36,-0.348c-0.084,0 -0.168,0.036 -0.24,0.108c-0.372,0.42 -0.864,0.792 -1.74,0.792c-1.152,0 -2.016,-0.804 -2.016,-2.112c0,-0.168 0.024,-0.216 0.144,-0.216c0.264,0 1.284,0.012 2.184,0.012c0.444,0 0.852,0 1.128,-0.012c0.6,-0.012 0.876,-0.348 0.876,-0.804c0,-0.684 -0.72,-1.968 -2.364,-1.968c-1.416,0 -2.676,1.152 -2.676,2.904c0,1.692 1.188,2.832 2.712,2.832c1.512,0 2.352,-0.912 2.352,-1.188Zm-0.732,-2.7c0,0.192 -0.108,0.324 -0.396,0.336c-0.336,0.012 -1.008,0.012 -1.632,0.012c-1.392,0 -1.5,0 -1.5,-0.12c0,-0.444 0.732,-1.476 1.884,-1.476c1.224,0 1.644,0.9 1.644,1.248Z" style="fill-rule:nonzero;"/><path d="M135.234,49.785c-0.012,-0.852 -0.024,-2.364 -0.024,-3.852c0,-1.812 0.012,-3.6 0.024,-4.152l0,-0.012c0,-0.24 -0.18,-0.36 -0.36,-0.36c-0.192,0 -0.384,0.12 -0.384,0.384l0,0.012c0.024,0.492 0.024,2.064 0.024,3.72c0,1.644 0,3.396 -0.024,4.26l0,0.012c0,0.252 0.18,0.372 0.372,0.372c0.192,0 0.372,-0.12 0.372,-0.372l0,-0.012Z" style="fill-rule:nonzero;"/><path d="M138.606,41.913c0,-0.456 -0.408,-0.552 -0.588,-0.552c-0.24,0 -0.576,0.18 -0.576,0.552c0,0.072 0,0.588 0.564,0.588c0.3,0 0.6,-0.216 0.6,-0.588Zm-0.204,7.932c-0.012,-0.672 -0.024,-1.56 -0.024,-2.412c0,-1.032 0.012,-2.016 0.024,-2.52l0,-0.012c0,-0.216 -0.192,-0.324 -0.372,-0.324c-0.192,0 -0.384,0.12 -0.384,0.336l0,0.012c0.012,0.336 0.012,0.828 0.012,1.392c0,1.116 -0.012,2.52 -0.012,3.54c0,0.24 0.192,0.36 0.372,0.36c0.192,0 0.384,-0.12 0.384,-0.36l0,-0.012Z" style="fill-rule:nonzero;"/><path d="M140.826,52.929c0,0.276 0.18,0.408 0.36,0.408c0.36,0 0.36,-0.276 0.36,-0.768c0,-0.864 -0.012,-2.808 -0.012,-3.12c0,-0.144 0,-0.192 0.024,-0.192c0.024,0 0.06,0.06 0.132,0.144c0.48,0.588 1.188,0.876 1.896,0.876c1.56,0 2.724,-1.128 2.724,-2.844c0,-1.692 -1.164,-2.868 -2.724,-2.868c-0.816,0 -1.512,0.36 -1.932,0.924c-0.048,0.06 -0.072,0.096 -0.096,0.096c-0.024,0 -0.024,-0.048 -0.024,-0.12c0,-0.108 0.012,-0.324 0.012,-0.456c0,-0.24 -0.192,-0.36 -0.372,-0.36c-0.18,0 -0.348,0.12 -0.348,0.384l0,0.012c0.012,0.6 0.024,1.908 0.024,3.336c0,1.728 -0.012,3.612 -0.024,4.536l0,0.012Zm2.736,-3.288c-1.14,0 -2.04,-0.864 -2.04,-2.208c0,-1.344 0.9,-2.232 2.04,-2.232c1.14,0 2.04,0.888 2.04,2.232c0,1.344 -0.9,2.208 -2.04,2.208Z" style="fill-rule:nonzero;"/><path d="M151.422,48.753c0,-0.552 -0.324,-1.116 -1.068,-1.5c-0.372,-0.192 -0.924,-0.42 -1.26,-0.576c-0.396,-0.192 -0.588,-0.492 -0.588,-0.78c0,-0.396 0.348,-0.756 0.96,-0.756c0.516,0 0.816,0.192 1.008,0.42c0.096,0.12 0.216,0.168 0.312,0.168c0.192,0 0.348,-0.156 0.348,-0.348c0,-0.324 -0.648,-0.84 -1.668,-0.84c-1.056,0 -1.632,0.672 -1.632,1.38c0,0.516 0.312,1.044 0.972,1.332c1.392,0.624 1.908,0.864 1.908,1.5c0,0.516 -0.516,0.9 -1.2,0.9c-0.588,0 -1.02,-0.228 -1.284,-0.6c-0.084,-0.108 -0.192,-0.156 -0.3,-0.156c-0.18,0 -0.36,0.144 -0.36,0.348c0,0.336 0.696,1.056 1.944,1.056c1.344,0 1.908,-0.864 1.908,-1.548Z" style="fill-rule:nonzero;"/><g><path d="M201.445,86.571c0,-1.104 -0.72,-2.16 -1.992,-2.292c-0.096,-0.012 -0.144,-0.024 -0.144,-0.024c0,-0.012 0.048,-0.024 0.144,-0.048c0.84,-0.18 1.428,-1.044 1.428,-1.908c0,-0.936 -0.684,-1.896 -2.508,-2.016c-0.168,-0.012 -0.408,-0.024 -0.66,-0.024c-0.936,0 -2.112,0.012 -2.148,1.344c-0.024,0.768 -0.036,2.4 -0.036,3.852c0,0.96 0,1.86 0.024,2.364c0.06,1.296 1.308,1.32 2.148,1.32c0.372,0 0.804,-0.012 1.008,-0.024c1.896,-0.132 2.736,-1.356 2.736,-2.544Zm-1.284,-4.2c0,0.756 -0.648,1.56 -1.788,1.632c-0.228,0.012 -0.612,0.012 -0.984,0.012c-1.104,0 -1.14,-0.012 -1.14,-0.24c0.012,-0.72 0,-1.74 0.024,-2.04c0.048,-0.636 0.348,-0.816 1.272,-0.816c0.336,0 0.684,0.012 0.72,0.012c1.308,0 1.896,0.708 1.896,1.44Zm-1.428,2.292c1.284,0.06 1.932,0.948 1.932,1.848c0,0.924 -0.672,1.86 -1.992,1.944c-0.276,0.012 -0.624,0.036 -0.948,0.036c-0.948,0 -1.404,-0.132 -1.464,-0.816c-0.024,-0.264 -0.024,-0.72 -0.024,-2.748c0,-0.288 0.036,-0.288 1.344,-0.288c0.408,0 0.828,0 1.152,0.024Z" style="fill-rule:nonzero;"/><path d="M202.531,81.06l0,1.008c0.263,-0.233 0.501,-0.394 0.713,-0.482c0.212,-0.088 0.442,-0.131 0.69,-0.131c0.351,0 0.607,0.124 0.768,0.372c0.16,0.249 0.248,0.512 0.263,0.79c0,0.16 -0.022,0.314 -0.066,0.46c-0.044,0.146 -0.088,0.278 -0.132,0.395c-0.073,0.16 -0.153,0.299 -0.241,0.416c-0.087,0.117 -0.19,0.234 -0.307,0.351c-0.073,0.073 -0.23,0.194 -0.471,0.362c-0.241,0.168 -0.497,0.339 -0.767,0.515c-0.271,0.175 -0.516,0.332 -0.735,0.471c-0.219,0.139 -0.329,0.208 -0.329,0.208l0,-8.462l0.614,0l0,3.727Zm1.118,1.337c-0.044,-0.058 -0.106,-0.106 -0.186,-0.142c-0.08,-0.037 -0.168,-0.055 -0.263,-0.055c-0.095,0 -0.186,0.026 -0.274,0.077c-0.088,0.051 -0.168,0.15 -0.241,0.296c-0.088,0.175 -0.135,0.376 -0.143,0.603c-0.007,0.226 -0.011,0.449 -0.011,0.668l0,1.228c0.103,-0.073 0.198,-0.153 0.285,-0.241l0.483,-0.461c0.116,-0.116 0.222,-0.248 0.317,-0.394c0.095,-0.146 0.172,-0.322 0.231,-0.526c0.117,-0.439 0.051,-0.79 -0.198,-1.053Z" style="fill-rule:nonzero;"/></g><path d="M104.674,84.202c0.228,0 0.336,-0.156 0.336,-0.312c0,-0.156 -0.108,-0.312 -0.336,-0.312l-1.068,0c-0.156,0 -0.18,0 -0.18,-0.132c0,0 0.024,-0.96 0.024,-1.308c0,-0.252 -0.168,-0.372 -0.348,-0.372c-0.168,0 -0.348,0.12 -0.348,0.348l0,0.3c0,0.42 -0.012,0.996 -0.012,1.044c0,0.108 -0.024,0.12 -0.132,0.12l-0.696,0c-0.228,0 -0.336,0.156 -0.336,0.312c0,0.156 0.108,0.312 0.336,0.312l0.708,0c0.084,0 0.12,0.024 0.12,0.144l0,0.192c0,0.588 -0.024,2.052 -0.024,2.82c0,0.528 0,1.836 1.536,1.836c0.48,0 0.768,-0.06 0.768,-0.372c0,-0.156 -0.108,-0.312 -0.288,-0.312l-0.048,0c-0.12,0.012 -0.228,0.024 -0.336,0.024c-0.936,0 -0.96,-0.636 -0.96,-1.572c0,-0.888 0.036,-2.124 0.036,-2.58c0,-0.156 0,-0.18 0.192,-0.18l1.056,0Z" style="fill-rule:nonzero;"/><path d="M110.05,88.174c0.024,0 0.024,0.012 0.036,0.048c0.168,0.66 0.768,0.828 0.84,0.828c0.216,0 0.36,-0.204 0.36,-0.372c0,-0.096 -0.036,-0.192 -0.132,-0.24c-0.48,-0.252 -0.672,-0.492 -0.672,-1.488c0,-0.396 0.024,-0.936 0.06,-1.332c0.012,-0.12 0.012,-0.228 0.012,-0.336c0,-1.344 -0.756,-1.836 -1.872,-1.836c-1.032,0 -2.04,0.516 -2.04,0.972c0,0.192 0.156,0.324 0.336,0.324c0.084,0 0.18,-0.036 0.252,-0.12c0.276,-0.3 0.756,-0.576 1.404,-0.576c0.972,0 1.248,0.516 1.248,1.176c0,0.06 -0.012,0.132 -0.012,0.192c0,0.084 -0.048,0.12 -0.192,0.144c-0.504,0.084 -1.476,0.264 -2.22,0.492c-0.888,0.276 -1.284,0.888 -1.284,1.488c0,0.828 0.732,1.656 1.944,1.656c0.732,0 1.536,-0.372 1.896,-0.984c0.012,-0.024 0.036,-0.036 0.036,-0.036Zm-1.944,0.384c-0.804,0 -1.284,-0.504 -1.284,-1.008c0,-0.84 0.996,-1.08 2.88,-1.38l0.036,0c0.084,0 0.12,0.036 0.12,0.132c0,0.144 -0.012,0.276 -0.012,0.408c0,1.02 -0.636,1.848 -1.74,1.848Z" style="fill-rule:nonzero;"/><path d="M116.17,87.658c0,-0.552 -0.324,-1.116 -1.068,-1.5c-0.372,-0.192 -0.924,-0.42 -1.26,-0.576c-0.396,-0.192 -0.588,-0.492 -0.588,-0.78c0,-0.396 0.348,-0.756 0.96,-0.756c0.516,0 0.816,0.192 1.008,0.42c0.096,0.12 0.216,0.168 0.312,0.168c0.192,0 0.348,-0.156 0.348,-0.348c0,-0.324 -0.648,-0.84 -1.668,-0.84c-1.056,0 -1.632,0.672 -1.632,1.38c0,0.516 0.312,1.044 0.972,1.332c1.392,0.624 1.908,0.864 1.908,1.5c0,0.516 -0.516,0.9 -1.2,0.9c-0.588,0 -1.02,-0.228 -1.284,-0.6c-0.084,-0.108 -0.192,-0.156 -0.3,-0.156c-0.18,0 -0.36,0.144 -0.36,0.348c0,0.336 0.696,1.056 1.944,1.056c1.344,0 1.908,-0.864 1.908,-1.548Z" style="fill-rule:nonzero;"/><path d="M120.226,84.202c0.228,0 0.336,-0.156 0.336,-0.312c0,-0.156 -0.108,-0.312 -0.336,-0.312l-1.068,0c-0.156,0 -0.18,0 -0.18,-0.132c0,0 0.024,-0.96 0.024,-1.308c0,-0.252 -0.168,-0.372 -0.348,-0.372c-0.168,0 -0.348,0.12 -0.348,0.348l0,0.3c0,0.42 -0.012,0.996 -0.012,1.044c0,0.108 -0.024,0.12 -0.132,0.12l-0.696,0c-0.228,0 -0.336,0.156 -0.336,0.312c0,0.156 0.108,0.312 0.336,0.312l0.708,0c0.084,0 0.12,0.024 0.12,0.144l0,0.192c0,0.588 -0.024,2.052 -0.024,2.82c0,0.528 0,1.836 1.536,1.836c0.48,0 0.768,-0.06 0.768,-0.372c0,-0.156 -0.108,-0.312 -0.288,-0.312l-0.048,0c-0.12,0.012 -0.228,0.024 -0.336,0.024c-0.936,0 -0.96,-0.636 -0.96,-1.572c0,-0.888 0.036,-2.124 0.036,-2.58c0,-0.156 0,-0.18 0.192,-0.18l1.056,0Z" style="fill-rule:nonzero;"/><path d="M124.462,89.194c1.596,0 2.796,-1.152 2.796,-2.88c0,-1.668 -1.2,-2.868 -2.796,-2.868c-1.596,0 -2.772,1.2 -2.772,2.868c0,1.728 1.176,2.88 2.772,2.88Zm0,-0.648c-1.152,0 -2.076,-0.888 -2.076,-2.232c0,-1.356 0.924,-2.244 2.076,-2.244c1.152,0 2.088,0.888 2.088,2.244c0,1.344 -0.936,2.232 -2.088,2.232Z" style="fill-rule:nonzero;"/><path d="M134.902,84.202c0.228,0 0.336,-0.156 0.336,-0.312c0,-0.156 -0.108,-0.312 -0.336,-0.312l-1.068,0c-0.156,0 -0.18,0 -0.18,-0.132c0,0 0.024,-0.96 0.024,-1.308c0,-0.252 -0.168,-0.372 -0.348,-0.372c-0.168,0 -0.348,0.12 -0.348,0.348l0,0.3c0,0.42 -0.012,0.996 -0.012,1.044c0,0.108 -0.024,0.12 -0.132,0.12l-0.696,0c-0.228,0 -0.336,0.156 -0.336,0.312c0,0.156 0.108,0.312 0.336,0.312l0.708,0c0.084,0 0.12,0.024 0.12,0.144l0,0.192c0,0.588 -0.024,2.052 -0.024,2.82c0,0.528 0,1.836 1.536,1.836c0.48,0 0.768,-0.06 0.768,-0.372c0,-0.156 -0.108,-0.312 -0.288,-0.312l-0.048,0c-0.12,0.012 -0.228,0.024 -0.336,0.024c-0.936,0 -0.96,-0.636 -0.96,-1.572c0,-0.888 0.036,-2.124 0.036,-2.58c0,-0.156 0,-0.18 0.192,-0.18l1.056,0Z" style="fill-rule:nonzero;"/><path d="M137.566,88.798c-0.012,-0.588 -0.012,-1.152 -0.012,-1.644c0,-0.684 0,-1.236 0.012,-1.548c0.024,-0.924 0.972,-1.464 1.824,-1.464c0.24,0 0.372,-0.18 0.372,-0.348c0,-0.168 -0.12,-0.324 -0.372,-0.324c-0.144,0 -1.224,0.072 -1.752,0.804c-0.012,0.024 -0.036,0.048 -0.048,0.048c0,0 -0.012,-0.024 -0.012,-0.06c0,-0.168 0.012,-0.252 0.012,-0.432c0,-0.228 -0.18,-0.336 -0.36,-0.336c-0.18,0 -0.372,0.12 -0.372,0.312l0,0.012c0.012,0.528 0.024,1.164 0.024,1.836c0,1.032 -0.024,2.16 -0.048,3.132l0,0.012c0,0.216 0.192,0.336 0.384,0.336c0.18,0 0.348,-0.108 0.348,-0.324l0,-0.012Z" style="fill-rule:nonzero;"/><path d="M145.87,88.006c0,-0.192 -0.18,-0.348 -0.36,-0.348c-0.084,0 -0.168,0.036 -0.24,0.108c-0.372,0.42 -0.864,0.792 -1.74,0.792c-1.152,0 -2.016,-0.804 -2.016,-2.112c0,-0.168 0.024,-0.216 0.144,-0.216c0.264,0 1.284,0.012 2.184,0.012c0.444,0 0.852,0 1.128,-0.012c0.6,-0.012 0.876,-0.348 0.876,-0.804c0,-0.684 -0.72,-1.968 -2.364,-1.968c-1.416,0 -2.676,1.152 -2.676,2.904c0,1.692 1.188,2.832 2.712,2.832c1.512,0 2.352,-0.912 2.352,-1.188Zm-0.732,-2.7c0,0.192 -0.108,0.324 -0.396,0.336c-0.336,0.012 -1.008,0.012 -1.632,0.012c-1.392,0 -1.5,0 -1.5,-0.12c0,-0.444 0.732,-1.476 1.884,-1.476c1.224,0 1.644,0.9 1.644,1.248Z" style="fill-rule:nonzero;"/><path d="M154.57,88.798c0,0.228 0.18,0.36 0.36,0.36c0.168,0 0.348,-0.132 0.348,-0.396l0,-0.54c0,-0.936 -0.012,-2.46 -0.024,-2.964c-0.036,-1.176 -0.888,-1.8 -1.812,-1.8c-0.696,0 -1.416,0.348 -1.872,1.056c-0.24,-0.72 -0.912,-1.056 -1.608,-1.056c-0.612,0 -1.26,0.264 -1.644,0.756c-0.012,0.024 -0.024,0.036 -0.036,0.036c-0.012,0 -0.012,-0.024 -0.012,-0.072l0,-0.324c0,-0.228 -0.168,-0.336 -0.336,-0.336c-0.18,0 -0.348,0.108 -0.348,0.324l0,0.012c0.012,0.444 0.012,1.008 0.012,1.596c0,1.116 -0.012,2.376 -0.036,3.324l0,0.012c0,0.24 0.18,0.372 0.36,0.372c0.168,0 0.336,-0.12 0.336,-0.36l0,-0.012c-0.012,-0.54 -0.024,-1.44 -0.024,-2.172c0,-0.456 0,-0.852 0.012,-1.056c0.036,-0.888 0.864,-1.5 1.62,-1.5c0.588,0 1.14,0.384 1.188,1.32c0.012,0.204 0.012,0.696 0.012,1.26c0,0.768 0,1.668 -0.012,2.148l0,0.012c0,0.228 0.168,0.336 0.336,0.336c0.18,0 0.36,-0.12 0.36,-0.336l0,-0.012c-0.012,-0.624 -0.024,-1.524 -0.024,-2.256c0,-0.444 0,-0.828 0.012,-1.032c0.036,-0.816 0.876,-1.404 1.644,-1.404c0.588,0 1.14,0.36 1.188,1.284c0.012,0.204 0.012,0.696 0.012,1.26c0,0.768 0,1.668 -0.012,2.148l0,0.012Z" style="fill-rule:nonzero;"/><path d="M159.718,89.194c1.596,0 2.796,-1.152 2.796,-2.88c0,-1.668 -1.2,-2.868 -2.796,-2.868c-1.596,0 -2.772,1.2 -2.772,2.868c0,1.728 1.176,2.88 2.772,2.88Zm0,-0.648c-1.152,0 -2.076,-0.888 -2.076,-2.232c0,-1.356 0.924,-2.244 2.076,-2.244c1.152,0 2.088,0.888 2.088,2.244c0,1.344 -0.936,2.232 -2.088,2.232Z" style="fill-rule:nonzero;"/><path d="M165.094,88.69c-0.012,-0.852 -0.024,-2.364 -0.024,-3.852c0,-1.812 0.012,-3.6 0.024,-4.152l0,-0.012c0,-0.24 -0.18,-0.36 -0.36,-0.36c-0.192,0 -0.384,0.12 -0.384,0.384l0,0.012c0.024,0.492 0.024,2.064 0.024,3.72c0,1.644 0,3.396 -0.024,4.26l0,0.012c0,0.252 0.18,0.372 0.372,0.372c0.192,0 0.372,-0.12 0.372,-0.372l0,-0.012Z" style="fill-rule:nonzero;"/><path d="M169.702,89.194c1.596,0 2.796,-1.152 2.796,-2.88c0,-1.668 -1.2,-2.868 -2.796,-2.868c-1.596,0 -2.772,1.2 -2.772,2.868c0,1.728 1.176,2.88 2.772,2.88Zm0,-0.648c-1.152,0 -2.076,-0.888 -2.076,-2.232c0,-1.356 0.924,-2.244 2.076,-2.244c1.152,0 2.088,0.888 2.088,2.244c0,1.344 -0.936,2.232 -2.088,2.232Z" style="fill-rule:nonzero;"/><path d="M180.166,89.194c1.596,0 2.796,-1.152 2.796,-2.88c0,-1.668 -1.2,-2.868 -2.796,-2.868c-1.596,0 -2.772,1.2 -2.772,2.868c0,1.728 1.176,2.88 2.772,2.88Zm0,-0.648c-1.152,0 -2.076,-0.888 -2.076,-2.232c0,-1.356 0.924,-2.244 2.076,-2.244c1.152,0 2.088,0.888 2.088,2.244c0,1.344 -0.936,2.232 -2.088,2.232Z" style="fill-rule:nonzero;"/><path d="M188.626,88.81c0,0.216 0.18,0.336 0.36,0.336c0.18,0 0.348,-0.108 0.348,-0.348c0.012,-0.324 0.012,-0.816 0.012,-1.32c0,-0.828 -0.012,-1.716 -0.024,-2.1c-0.048,-1.272 -1.008,-1.92 -2.004,-1.92c-0.66,0 -1.344,0.288 -1.776,0.864c-0.012,0.024 -0.036,0.036 -0.048,0.036c0,0 -0.012,-0.012 -0.012,-0.048l0,-0.456c0,-0.228 -0.168,-0.324 -0.336,-0.324c-0.192,0 -0.384,0.12 -0.384,0.312l0,0.012c0.012,0.528 0.024,1.152 0.024,1.824c0,1.02 -0.024,2.136 -0.048,3.108l0,0.012c0,0.216 0.192,0.336 0.372,0.336c0.18,0 0.348,-0.108 0.348,-0.324l0,-0.012c-0.012,-0.432 -0.012,-0.828 -0.012,-1.212c0,-0.828 0.012,-1.488 0.024,-1.86c0.024,-0.96 0.972,-1.608 1.812,-1.608c0.672,0 1.284,0.408 1.344,1.38c0.012,0.192 0.024,0.612 0.024,1.104c0,0.756 -0.012,1.692 -0.024,2.196l0,0.012Z" style="fill-rule:nonzero;"/><g><path d="M325.293,86.571c0,-1.104 -0.72,-2.16 -1.992,-2.292c-0.096,-0.012 -0.144,-0.024 -0.144,-0.024c0,-0.012 0.048,-0.024 0.144,-0.048c0.84,-0.18 1.428,-1.044 1.428,-1.908c0,-0.936 -0.684,-1.896 -2.508,-2.016c-0.168,-0.012 -0.408,-0.024 -0.66,-0.024c-0.936,0 -2.112,0.012 -2.148,1.344c-0.024,0.768 -0.036,2.4 -0.036,3.852c0,0.96 0,1.86 0.024,2.364c0.06,1.296 1.308,1.32 2.148,1.32c0.372,0 0.804,-0.012 1.008,-0.024c1.896,-0.132 2.736,-1.356 2.736,-2.544Zm-1.284,-4.2c0,0.756 -0.648,1.56 -1.788,1.632c-0.228,0.012 -0.612,0.012 -0.984,0.012c-1.104,0 -1.14,-0.012 -1.14,-0.24c0.012,-0.72 0,-1.74 0.024,-2.04c0.048,-0.636 0.348,-0.816 1.272,-0.816c0.336,0 0.684,0.012 0.72,0.012c1.308,0 1.896,0.708 1.896,1.44Zm-1.428,2.292c1.284,0.06 1.932,0.948 1.932,1.848c0,0.924 -0.672,1.86 -1.992,1.944c-0.276,0.012 -0.624,0.036 -0.948,0.036c-0.948,0 -1.404,-0.132 -1.464,-0.816c-0.024,-0.264 -0.024,-0.72 -0.024,-2.748c0,-0.288 0.036,-0.288 1.344,-0.288c0.408,0 0.828,0 1.152,0.024Z" style="fill-rule:nonzero;"/><path d="M325.627,80.405l0,2.128l1.545,-0.407l0,-2.127l-1.545,0.406Zm1.898,-1.816l0,7.738l-0.353,0l0,-2.9l-1.883,0.488l0,-7.833l0.338,0l0,3.022l1.898,-0.515Z" style="fill-rule:nonzero;"/></g><path d="M288.686,48.753c0,-0.552 -0.324,-1.116 -1.068,-1.5c-0.372,-0.192 -0.924,-0.42 -1.26,-0.576c-0.396,-0.192 -0.588,-0.492 -0.588,-0.78c0,-0.396 0.348,-0.756 0.96,-0.756c0.516,0 0.816,0.192 1.008,0.42c0.096,0.12 0.216,0.168 0.312,0.168c0.192,0 0.348,-0.156 0.348,-0.348c0,-0.324 -0.648,-0.84 -1.668,-0.84c-1.056,0 -1.632,0.672 -1.632,1.38c0,0.516 0.312,1.044 0.972,1.332c1.392,0.624 1.908,0.864 1.908,1.5c0,0.516 -0.516,0.9 -1.2,0.9c-0.588,0 -1.02,-0.228 -1.284,-0.6c-0.084,-0.108 -0.192,-0.156 -0.3,-0.156c-0.18,0 -0.36,0.144 -0.36,0.348c0,0.336 0.696,1.056 1.944,1.056c1.344,0 1.908,-0.864 1.908,-1.548Z" style="fill-rule:nonzero;"/><path d="M294.362,49.893c0,0.216 0.18,0.336 0.36,0.336c0.168,0 0.348,-0.12 0.348,-0.36c0.012,-0.324 0.012,-0.816 0.012,-1.32c0,-0.828 -0.012,-1.716 -0.024,-2.1c-0.048,-1.308 -1.008,-1.932 -2.004,-1.932c-0.672,0 -1.356,0.276 -1.776,0.816c-0.024,0.024 -0.036,0.048 -0.048,0.048c-0.012,0 -0.024,-0.024 -0.024,-0.06c0,-0.252 0.012,-3.096 0.012,-3.54c0,-0.228 -0.18,-0.336 -0.36,-0.336c-0.18,0 -0.36,0.108 -0.36,0.3l0,0.012c0.012,0.552 0.012,1.764 0.012,3.108c0,1.908 -0.012,4.08 -0.036,5.016l0,0.012c0,0.216 0.192,0.336 0.372,0.336c0.18,0 0.348,-0.108 0.348,-0.324l0,-0.012c-0.012,-0.432 -0.012,-0.84 -0.012,-1.224c0,-0.852 0.012,-1.56 0.024,-1.932c0.036,-0.936 0.948,-1.56 1.776,-1.56c0.684,0 1.32,0.408 1.38,1.404c0.012,0.192 0.024,0.612 0.024,1.104c0,0.756 -0.012,1.692 -0.024,2.196l0,0.012Z" style="fill-rule:nonzero;"/><path d="M299.438,50.289c1.596,0 2.796,-1.152 2.796,-2.88c0,-1.668 -1.2,-2.868 -2.796,-2.868c-1.596,0 -2.772,1.2 -2.772,2.868c0,1.728 1.176,2.88 2.772,2.88Zm0,-0.648c-1.152,0 -2.076,-0.888 -2.076,-2.232c0,-1.356 0.924,-2.244 2.076,-2.244c1.152,0 2.088,0.888 2.088,2.244c0,1.344 -0.936,2.232 -2.088,2.232Z" style="fill-rule:nonzero;"/><path d="M306.938,45.477c0.036,-0.132 0.084,-0.204 0.132,-0.204c0.048,0 0.096,0.06 0.12,0.192c0.18,0.972 0.84,3.48 0.996,4.092c0.12,0.444 0.396,0.66 0.684,0.66c0.3,0 0.612,-0.228 0.744,-0.636c0.528,-1.632 1.32,-4.392 1.32,-4.656c0,-0.192 -0.192,-0.324 -0.372,-0.324c-0.144,0 -0.3,0.084 -0.336,0.276c-0.192,0.912 -0.924,3.588 -1.188,4.512c-0.036,0.108 -0.084,0.192 -0.144,0.192c-0.048,0 -0.096,-0.072 -0.132,-0.216c-0.204,-0.912 -0.876,-3.456 -1.032,-4.224c-0.072,-0.336 -0.372,-0.528 -0.672,-0.528c-0.288,0 -0.588,0.18 -0.66,0.564c-0.18,0.888 -0.816,3.312 -1.044,4.176c-0.036,0.144 -0.096,0.216 -0.156,0.216c-0.06,0 -0.108,-0.06 -0.144,-0.216c-0.204,-0.936 -0.816,-3.528 -1.044,-4.476c-0.048,-0.18 -0.192,-0.264 -0.348,-0.264c-0.18,0 -0.36,0.108 -0.36,0.3c0,0.036 0,0.06 0.012,0.084c0.24,1.056 0.876,3.444 1.14,4.548c0.108,0.456 0.42,0.684 0.72,0.684c0.312,0 0.624,-0.228 0.756,-0.696c0.216,-0.804 0.792,-2.988 1.008,-4.056Z" style="fill-rule:nonzero;"/><path d="M318.35,45.297c0.228,0 0.336,-0.156 0.336,-0.312c0,-0.156 -0.108,-0.312 -0.336,-0.312l-1.068,0c-0.156,0 -0.18,0 -0.18,-0.132c0,0 0.024,-0.96 0.024,-1.308c0,-0.252 -0.168,-0.372 -0.348,-0.372c-0.168,0 -0.348,0.12 -0.348,0.348l0,0.3c0,0.42 -0.012,0.996 -0.012,1.044c0,0.108 -0.024,0.12 -0.132,0.12l-0.696,0c-0.228,0 -0.336,0.156 -0.336,0.312c0,0.156 0.108,0.312 0.336,0.312l0.708,0c0.084,0 0.12,0.024 0.12,0.144l0,0.192c0,0.588 -0.024,2.052 -0.024,2.82c0,0.528 0,1.836 1.536,1.836c0.48,0 0.768,-0.06 0.768,-0.372c0,-0.156 -0.108,-0.312 -0.288,-0.312l-0.048,0c-0.12,0.012 -0.228,0.024 -0.336,0.024c-0.936,0 -0.96,-0.636 -0.96,-1.572c0,-0.888 0.036,-2.124 0.036,-2.58c0,-0.156 0,-0.18 0.192,-0.18l1.056,0Z" style="fill-rule:nonzero;"/><path d="M324.914,49.101c0,-0.192 -0.18,-0.348 -0.36,-0.348c-0.084,0 -0.168,0.036 -0.24,0.108c-0.372,0.42 -0.864,0.792 -1.74,0.792c-1.152,0 -2.016,-0.804 -2.016,-2.112c0,-0.168 0.024,-0.216 0.144,-0.216c0.264,0 1.284,0.012 2.184,0.012c0.444,0 0.852,0 1.128,-0.012c0.6,-0.012 0.876,-0.348 0.876,-0.804c0,-0.684 -0.72,-1.968 -2.364,-1.968c-1.416,0 -2.676,1.152 -2.676,2.904c0,1.692 1.188,2.832 2.712,2.832c1.512,0 2.352,-0.912 2.352,-1.188Zm-0.732,-2.7c0,0.192 -0.108,0.324 -0.396,0.336c-0.336,0.012 -1.008,0.012 -1.632,0.012c-1.392,0 -1.5,0 -1.5,-0.12c0,-0.444 0.732,-1.476 1.884,-1.476c1.224,0 1.644,0.9 1.644,1.248Z" style="fill-rule:nonzero;"/><path d="M331.262,49.101c0,-0.192 -0.18,-0.348 -0.36,-0.348c-0.084,0 -0.168,0.036 -0.24,0.108c-0.372,0.42 -0.864,0.792 -1.74,0.792c-1.152,0 -2.016,-0.804 -2.016,-2.112c0,-0.168 0.024,-0.216 0.144,-0.216c0.264,0 1.284,0.012 2.184,0.012c0.444,0 0.852,0 1.128,-0.012c0.6,-0.012 0.876,-0.348 0.876,-0.804c0,-0.684 -0.72,-1.968 -2.364,-1.968c-1.416,0 -2.676,1.152 -2.676,2.904c0,1.692 1.188,2.832 2.712,2.832c1.512,0 2.352,-0.912 2.352,-1.188Zm-0.732,-2.7c0,0.192 -0.108,0.324 -0.396,0.336c-0.336,0.012 -1.008,0.012 -1.632,0.012c-1.392,0 -1.5,0 -1.5,-0.12c0,-0.444 0.732,-1.476 1.884,-1.476c1.224,0 1.644,0.9 1.644,1.248Z" style="fill-rule:nonzero;"/><path d="M335.258,45.297c0.228,0 0.336,-0.156 0.336,-0.312c0,-0.156 -0.108,-0.312 -0.336,-0.312l-1.068,0c-0.156,0 -0.18,0 -0.18,-0.132c0,0 0.024,-0.96 0.024,-1.308c0,-0.252 -0.168,-0.372 -0.348,-0.372c-0.168,0 -0.348,0.12 -0.348,0.348l0,0.3c0,0.42 -0.012,0.996 -0.012,1.044c0,0.108 -0.024,0.12 -0.132,0.12l-0.696,0c-0.228,0 -0.336,0.156 -0.336,0.312c0,0.156 0.108,0.312 0.336,0.312l0.708,0c0.084,0 0.12,0.024 0.12,0.144l0,0.192c0,0.588 -0.024,2.052 -0.024,2.82c0,0.528 0,1.836 1.536,1.836c0.48,0 0.768,-0.06 0.768,-0.372c0,-0.156 -0.108,-0.312 -0.288,-0.312l-0.048,0c-0.12,0.012 -0.228,0.024 -0.336,0.024c-0.936,0 -0.96,-0.636 -0.96,-1.572c0,-0.888 0.036,-2.124 0.036,-2.58c0,-0.156 0,-0.18 0.192,-0.18l1.056,0Z" style="fill-rule:nonzero;"/><path d="M341.09,49.893c0,0.216 0.18,0.336 0.36,0.336c0.168,0 0.348,-0.12 0.348,-0.36c0.012,-0.324 0.012,-0.816 0.012,-1.32c0,-0.828 -0.012,-1.716 -0.024,-2.1c-0.048,-1.308 -1.008,-1.932 -2.004,-1.932c-0.672,0 -1.356,0.276 -1.776,0.816c-0.024,0.024 -0.036,0.048 -0.048,0.048c-0.012,0 -0.024,-0.024 -0.024,-0.06c0,-0.252 0.012,-3.096 0.012,-3.54c0,-0.228 -0.18,-0.336 -0.36,-0.336c-0.18,0 -0.36,0.108 -0.36,0.3l0,0.012c0.012,0.552 0.012,1.764 0.012,3.108c0,1.908 -0.012,4.08 -0.036,5.016l0,0.012c0,0.216 0.192,0.336 0.372,0.336c0.18,0 0.348,-0.108 0.348,-0.324l0,-0.012c-0.012,-0.432 -0.012,-0.84 -0.012,-1.224c0,-0.852 0.012,-1.56 0.024,-1.932c0.036,-0.936 0.948,-1.56 1.776,-1.56c0.684,0 1.32,0.408 1.38,1.404c0.012,0.192 0.024,0.612 0.024,1.104c0,0.756 -0.012,1.692 -0.024,2.196l0,0.012Z" style="fill-rule:nonzero;"/><path d="M212.804,8.869c-0.012,-0.852 -0.024,-2.364 -0.024,-3.852c0,-1.812 0.012,-3.6 0.024,-4.152l0,-0.012c0,-0.24 -0.18,-0.36 -0.36,-0.36c-0.192,0 -0.384,0.12 -0.384,0.384l0,0.012c0.024,0.492 0.024,2.064 0.024,3.72c0,1.644 0,3.396 -0.024,4.26l0,0.012c0,0.252 0.18,0.372 0.372,0.372c0.192,0 0.372,-0.12 0.372,-0.372l0,-0.012Z" style="fill-rule:nonzero;"/><path d="M219.74,8.185c0,-0.192 -0.18,-0.348 -0.36,-0.348c-0.084,0 -0.168,0.036 -0.24,0.108c-0.372,0.42 -0.864,0.792 -1.74,0.792c-1.152,0 -2.016,-0.804 -2.016,-2.112c0,-0.168 0.024,-0.216 0.144,-0.216c0.264,0 1.284,0.012 2.184,0.012c0.444,0 0.852,0 1.128,-0.012c0.6,-0.012 0.876,-0.348 0.876,-0.804c0,-0.684 -0.72,-1.968 -2.364,-1.968c-1.416,0 -2.676,1.152 -2.676,2.904c0,1.692 1.188,2.832 2.712,2.832c1.512,0 2.352,-0.912 2.352,-1.188Zm-0.732,-2.7c0,0.192 -0.108,0.324 -0.396,0.336c-0.336,0.012 -1.008,0.012 -1.632,0.012c-1.392,0 -1.5,0 -1.5,-0.12c0,-0.444 0.732,-1.476 1.884,-1.476c1.224,0 1.644,0.9 1.644,1.248Z" style="fill-rule:nonzero;"/><path d="M224.9,8.353c0.024,0 0.024,0.012 0.036,0.048c0.168,0.66 0.768,0.828 0.84,0.828c0.216,0 0.36,-0.204 0.36,-0.372c0,-0.096 -0.036,-0.192 -0.132,-0.24c-0.48,-0.252 -0.672,-0.492 -0.672,-1.488c0,-0.396 0.024,-0.936 0.06,-1.332c0.012,-0.12 0.012,-0.228 0.012,-0.336c0,-1.344 -0.756,-1.836 -1.872,-1.836c-1.032,0 -2.04,0.516 -2.04,0.972c0,0.192 0.156,0.324 0.336,0.324c0.084,0 0.18,-0.036 0.252,-0.12c0.276,-0.3 0.756,-0.576 1.404,-0.576c0.972,0 1.248,0.516 1.248,1.176c0,0.06 -0.012,0.132 -0.012,0.192c0,0.084 -0.048,0.12 -0.192,0.144c-0.504,0.084 -1.476,0.264 -2.22,0.492c-0.888,0.276 -1.284,0.888 -1.284,1.488c0,0.828 0.732,1.656 1.944,1.656c0.732,0 1.536,-0.372 1.896,-0.984c0.012,-0.024 0.036,-0.036 0.036,-0.036Zm-1.944,0.384c-0.804,0 -1.284,-0.504 -1.284,-1.008c0,-0.84 0.996,-1.08 2.88,-1.38l0.036,0c0.084,0 0.12,0.036 0.12,0.132c0,0.144 -0.012,0.276 -0.012,0.408c0,1.02 -0.636,1.848 -1.74,1.848Z" style="fill-rule:nonzero;"/><path d="M231.56,8.989c0,0.216 0.18,0.336 0.36,0.336c0.18,0 0.348,-0.108 0.348,-0.348c0.012,-0.324 0.012,-0.816 0.012,-1.32c0,-0.828 -0.012,-1.716 -0.024,-2.1c-0.048,-1.272 -1.008,-1.92 -2.004,-1.92c-0.66,0 -1.344,0.288 -1.776,0.864c-0.012,0.024 -0.036,0.036 -0.048,0.036c0,0 -0.012,-0.012 -0.012,-0.048l0,-0.456c0,-0.228 -0.168,-0.324 -0.336,-0.324c-0.192,0 -0.384,0.12 -0.384,0.312l0,0.012c0.012,0.528 0.024,1.152 0.024,1.824c0,1.02 -0.024,2.136 -0.048,3.108l0,0.012c0,0.216 0.192,0.336 0.372,0.336c0.18,0 0.348,-0.108 0.348,-0.324l0,-0.012c-0.012,-0.432 -0.012,-0.828 -0.012,-1.212c0,-0.828 0.012,-1.488 0.024,-1.86c0.024,-0.96 0.972,-1.608 1.812,-1.608c0.672,0 1.284,0.408 1.344,1.38c0.012,0.192 0.024,0.612 0.024,1.104c0,0.756 -0.012,1.692 -0.024,2.196l0,0.012Z" style="fill-rule:nonzero;"/><path d="M238.436,8.905c0,0.252 0.18,0.372 0.36,0.372c0.192,0 0.372,-0.132 0.372,-0.384c0,-0.996 -0.024,-4.332 -0.024,-4.332c0,-0.144 0.012,-0.156 0.132,-0.156l1.26,0c0.204,0 0.312,-0.168 0.312,-0.336c0,-0.156 -0.108,-0.324 -0.312,-0.324l-1.248,0c-0.12,0 -0.144,-0.012 -0.144,-0.12c-0.012,-0.156 -0.012,-0.42 -0.012,-0.708l0,-0.372c0.036,-0.78 0.492,-1.416 1.272,-1.416l0.144,0c0.228,0 0.36,-0.156 0.36,-0.324c0,-0.324 -0.42,-0.336 -0.54,-0.336c-0.936,0 -1.896,0.708 -1.932,2.004l0,0.312c0,0.384 0.012,0.708 0.012,0.828c0,0.12 -0.036,0.132 -0.168,0.132l-0.768,0c-0.204,0 -0.312,0.168 -0.312,0.336c0,0.168 0.108,0.324 0.312,0.324l0.768,0c0.144,0 0.156,0.012 0.156,0.156c0,0 0.012,1.464 0.012,2.748c0,0.648 0,1.236 -0.012,1.584l0,0.012Z" style="fill-rule:nonzero;"/><path d="M244.532,9.373c1.596,0 2.796,-1.152 2.796,-2.88c0,-1.668 -1.2,-2.868 -2.796,-2.868c-1.596,0 -2.772,1.2 -2.772,2.868c0,1.728 1.176,2.88 2.772,2.88Zm0,-0.648c-1.152,0 -2.076,-0.888 -2.076,-2.232c0,-1.356 0.924,-2.244 2.076,-2.244c1.152,0 2.088,0.888 2.088,2.244c0,1.344 -0.936,2.232 -2.088,2.232Z" style="fill-rule:nonzero;"/><path d="M249.824,8.977c-0.012,-0.588 -0.012,-1.152 -0.012,-1.644c0,-0.684 0,-1.236 0.012,-1.548c0.024,-0.924 0.972,-1.464 1.824,-1.464c0.24,0 0.372,-0.18 0.372,-0.348c0,-0.168 -0.12,-0.324 -0.372,-0.324c-0.144,0 -1.224,0.072 -1.752,0.804c-0.012,0.024 -0.036,0.048 -0.048,0.048c0,0 -0.012,-0.024 -0.012,-0.06c0,-0.168 0.012,-0.252 0.012,-0.432c0,-0.228 -0.18,-0.336 -0.36,-0.336c-0.18,0 -0.372,0.12 -0.372,0.312l0,0.012c0.012,0.528 0.024,1.164 0.024,1.836c0,1.032 -0.024,2.16 -0.048,3.132l0,0.012c0,0.216 0.192,0.336 0.384,0.336c0.18,0 0.348,-0.108 0.348,-0.324l0,-0.012Z" style="fill-rule:nonzero;"/><path d="M256.436,4.561c0.036,-0.132 0.084,-0.204 0.132,-0.204c0.048,0 0.096,0.06 0.12,0.192c0.18,0.972 0.84,3.48 0.996,4.092c0.12,0.444 0.396,0.66 0.684,0.66c0.3,0 0.612,-0.228 0.744,-0.636c0.528,-1.632 1.32,-4.392 1.32,-4.656c0,-0.192 -0.192,-0.324 -0.372,-0.324c-0.144,0 -0.3,0.084 -0.336,0.276c-0.192,0.912 -0.924,3.588 -1.188,4.512c-0.036,0.108 -0.084,0.192 -0.144,0.192c-0.048,0 -0.096,-0.072 -0.132,-0.216c-0.204,-0.912 -0.876,-3.456 -1.032,-4.224c-0.072,-0.336 -0.372,-0.528 -0.672,-0.528c-0.288,0 -0.588,0.18 -0.66,0.564c-0.18,0.888 -0.816,3.312 -1.044,4.176c-0.036,0.144 -0.096,0.216 -0.156,0.216c-0.06,0 -0.108,-0.06 -0.144,-0.216c-0.204,-0.936 -0.816,-3.528 -1.044,-4.476c-0.048,-0.18 -0.192,-0.264 -0.348,-0.264c-0.18,0 -0.36,0.108 -0.36,0.3c0,0.036 0,0.06 0.012,0.084c0.24,1.056 0.876,3.444 1.14,4.548c0.108,0.456 0.42,0.684 0.72,0.684c0.312,0 0.624,-0.228 0.756,-0.696c0.216,-0.804 0.792,-2.988 1.008,-4.056Z" style="fill-rule:nonzero;"/><path d="M265.412,8.353c0.024,0 0.024,0.012 0.036,0.048c0.168,0.66 0.768,0.828 0.84,0.828c0.216,0 0.36,-0.204 0.36,-0.372c0,-0.096 -0.036,-0.192 -0.132,-0.24c-0.48,-0.252 -0.672,-0.492 -0.672,-1.488c0,-0.396 0.024,-0.936 0.06,-1.332c0.012,-0.12 0.012,-0.228 0.012,-0.336c0,-1.344 -0.756,-1.836 -1.872,-1.836c-1.032,0 -2.04,0.516 -2.04,0.972c0,0.192 0.156,0.324 0.336,0.324c0.084,0 0.18,-0.036 0.252,-0.12c0.276,-0.3 0.756,-0.576 1.404,-0.576c0.972,0 1.248,0.516 1.248,1.176c0,0.06 -0.012,0.132 -0.012,0.192c0,0.084 -0.048,0.12 -0.192,0.144c-0.504,0.084 -1.476,0.264 -2.22,0.492c-0.888,0.276 -1.284,0.888 -1.284,1.488c0,0.828 0.732,1.656 1.944,1.656c0.732,0 1.536,-0.372 1.896,-0.984c0.012,-0.024 0.036,-0.036 0.036,-0.036Zm-1.944,0.384c-0.804,0 -1.284,-0.504 -1.284,-1.008c0,-0.84 0.996,-1.08 2.88,-1.38l0.036,0c0.084,0 0.12,0.036 0.12,0.132c0,0.144 -0.012,0.276 -0.012,0.408c0,1.02 -0.636,1.848 -1.74,1.848Z" style="fill-rule:nonzero;"/><path d="M268.904,8.977c-0.012,-0.588 -0.012,-1.152 -0.012,-1.644c0,-0.684 0,-1.236 0.012,-1.548c0.024,-0.924 0.972,-1.464 1.824,-1.464c0.24,0 0.372,-0.18 0.372,-0.348c0,-0.168 -0.12,-0.324 -0.372,-0.324c-0.144,0 -1.224,0.072 -1.752,0.804c-0.012,0.024 -0.036,0.048 -0.048,0.048c0,0 -0.012,-0.024 -0.012,-0.06c0,-0.168 0.012,-0.252 0.012,-0.432c0,-0.228 -0.18,-0.336 -0.36,-0.336c-0.18,0 -0.372,0.12 -0.372,0.312l0,0.012c0.012,0.528 0.024,1.164 0.024,1.836c0,1.032 -0.024,2.16 -0.048,3.132l0,0.012c0,0.216 0.192,0.336 0.384,0.336c0.18,0 0.348,-0.108 0.348,-0.324l0,-0.012Z" style="fill-rule:nonzero;"/><path d="M278.048,8.881c0,-0.072 -0.012,-0.132 -0.048,-0.204c-0.42,-0.768 -0.42,-0.852 -0.42,-4.632c0,-1.392 0.012,-2.652 0.036,-3.168l0,-0.024c0,-0.24 -0.18,-0.372 -0.372,-0.372c-0.12,0 -0.372,0.06 -0.36,0.384c0.012,0.516 0.024,2.136 0.024,3.576c0,0.168 -0.012,0.228 -0.024,0.228c-0.024,0 -0.072,-0.06 -0.132,-0.144c-0.432,-0.552 -1.128,-0.888 -1.896,-0.888c-1.56,0 -2.736,1.164 -2.736,2.844c0,1.74 1.176,2.868 2.736,2.868c0.792,0 1.584,-0.36 2.1,-1.128c0.048,-0.06 0.072,-0.108 0.084,-0.108c0.024,0 0.036,0.048 0.06,0.18c0.036,0.228 0.192,0.648 0.252,0.756c0.084,0.144 0.204,0.192 0.324,0.192c0.192,0 0.372,-0.156 0.372,-0.36Zm-3.168,-0.192c-1.2,0 -2.04,-0.84 -2.04,-2.208c0,-1.38 0.828,-2.22 2.04,-2.22c1.14,0 2.028,0.876 2.028,2.22c0,1.332 -0.9,2.208 -2.028,2.208Z" style="fill-rule:nonzero;"/><path d="M101.778,8.869c-0.012,-0.852 -0.024,-2.364 -0.024,-3.852c0,-1.812 0.012,-3.6 0.024,-4.152l0,-0.012c0,-0.24 -0.18,-0.36 -0.36,-0.36c-0.192,0 -0.384,0.12 -0.384,0.384l0,0.012c0.024,0.492 0.024,2.064 0.024,3.72c0,1.644 0,3.396 -0.024,4.26l0,0.012c0,0.252 0.18,0.372 0.372,0.372c0.192,0 0.372,-0.12 0.372,-0.372l0,-0.012Z" style="fill-rule:nonzero;"/><path d="M108.714,8.185c0,-0.192 -0.18,-0.348 -0.36,-0.348c-0.084,0 -0.168,0.036 -0.24,0.108c-0.372,0.42 -0.864,0.792 -1.74,0.792c-1.152,0 -2.016,-0.804 -2.016,-2.112c0,-0.168 0.024,-0.216 0.144,-0.216c0.264,0 1.284,0.012 2.184,0.012c0.444,0 0.852,0 1.128,-0.012c0.6,-0.012 0.876,-0.348 0.876,-0.804c0,-0.684 -0.72,-1.968 -2.364,-1.968c-1.416,0 -2.676,1.152 -2.676,2.904c0,1.692 1.188,2.832 2.712,2.832c1.512,0 2.352,-0.912 2.352,-1.188Zm-0.732,-2.7c0,0.192 -0.108,0.324 -0.396,0.336c-0.336,0.012 -1.008,0.012 -1.632,0.012c-1.392,0 -1.5,0 -1.5,-0.12c0,-0.444 0.732,-1.476 1.884,-1.476c1.224,0 1.644,0.9 1.644,1.248Z" style="fill-rule:nonzero;"/><path d="M113.874,8.353c0.024,0 0.024,0.012 0.036,0.048c0.168,0.66 0.768,0.828 0.84,0.828c0.216,0 0.36,-0.204 0.36,-0.372c0,-0.096 -0.036,-0.192 -0.132,-0.24c-0.48,-0.252 -0.672,-0.492 -0.672,-1.488c0,-0.396 0.024,-0.936 0.06,-1.332c0.012,-0.12 0.012,-0.228 0.012,-0.336c0,-1.344 -0.756,-1.836 -1.872,-1.836c-1.032,0 -2.04,0.516 -2.04,0.972c0,0.192 0.156,0.324 0.336,0.324c0.084,0 0.18,-0.036 0.252,-0.12c0.276,-0.3 0.756,-0.576 1.404,-0.576c0.972,0 1.248,0.516 1.248,1.176c0,0.06 -0.012,0.132 -0.012,0.192c0,0.084 -0.048,0.12 -0.192,0.144c-0.504,0.084 -1.476,0.264 -2.22,0.492c-0.888,0.276 -1.284,0.888 -1.284,1.488c0,0.828 0.732,1.656 1.944,1.656c0.732,0 1.536,-0.372 1.896,-0.984c0.012,-0.024 0.036,-0.036 0.036,-0.036Zm-1.944,0.384c-0.804,0 -1.284,-0.504 -1.284,-1.008c0,-0.84 0.996,-1.08 2.88,-1.38l0.036,0c0.084,0 0.12,0.036 0.12,0.132c0,0.144 -0.012,0.276 -0.012,0.408c0,1.02 -0.636,1.848 -1.74,1.848Z" style="fill-rule:nonzero;"/><path d="M120.534,8.989c0,0.216 0.18,0.336 0.36,0.336c0.18,0 0.348,-0.108 0.348,-0.348c0.012,-0.324 0.012,-0.816 0.012,-1.32c0,-0.828 -0.012,-1.716 -0.024,-2.1c-0.048,-1.272 -1.008,-1.92 -2.004,-1.92c-0.66,0 -1.344,0.288 -1.776,0.864c-0.012,0.024 -0.036,0.036 -0.048,0.036c0,0 -0.012,-0.012 -0.012,-0.048l0,-0.456c0,-0.228 -0.168,-0.324 -0.336,-0.324c-0.192,0 -0.384,0.12 -0.384,0.312l0,0.012c0.012,0.528 0.024,1.152 0.024,1.824c0,1.02 -0.024,2.136 -0.048,3.108l0,0.012c0,0.216 0.192,0.336 0.372,0.336c0.18,0 0.348,-0.108 0.348,-0.324l0,-0.012c-0.012,-0.432 -0.012,-0.828 -0.012,-1.212c0,-0.828 0.012,-1.488 0.024,-1.86c0.024,-0.96 0.972,-1.608 1.812,-1.608c0.672,0 1.284,0.408 1.344,1.38c0.012,0.192 0.024,0.612 0.024,1.104c0,0.756 -0.012,1.692 -0.024,2.196l0,0.012Z" style="fill-rule:nonzero;"/><path d="M127.722,8.869c-0.012,-0.852 -0.024,-2.364 -0.024,-3.852c0,-1.812 0.012,-3.6 0.024,-4.152l0,-0.012c0,-0.24 -0.18,-0.36 -0.36,-0.36c-0.192,0 -0.384,0.12 -0.384,0.384l0,0.012c0.024,0.492 0.024,2.064 0.024,3.72c0,1.644 0,3.396 -0.024,4.26l0,0.012c0,0.252 0.18,0.372 0.372,0.372c0.192,0 0.372,-0.12 0.372,-0.372l0,-0.012Z" style="fill-rule:nonzero;"/><path d="M134.658,8.185c0,-0.192 -0.18,-0.348 -0.36,-0.348c-0.084,0 -0.168,0.036 -0.24,0.108c-0.372,0.42 -0.864,0.792 -1.74,0.792c-1.152,0 -2.016,-0.804 -2.016,-2.112c0,-0.168 0.024,-0.216 0.144,-0.216c0.264,0 1.284,0.012 2.184,0.012c0.444,0 0.852,0 1.128,-0.012c0.6,-0.012 0.876,-0.348 0.876,-0.804c0,-0.684 -0.72,-1.968 -2.364,-1.968c-1.416,0 -2.676,1.152 -2.676,2.904c0,1.692 1.188,2.832 2.712,2.832c1.512,0 2.352,-0.912 2.352,-1.188Zm-0.732,-2.7c0,0.192 -0.108,0.324 -0.396,0.336c-0.336,0.012 -1.008,0.012 -1.632,0.012c-1.392,0 -1.5,0 -1.5,-0.12c0,-0.444 0.732,-1.476 1.884,-1.476c1.224,0 1.644,0.9 1.644,1.248Z" style="fill-rule:nonzero;"/><path d="M136.878,8.905c0,0.252 0.18,0.372 0.36,0.372c0.192,0 0.372,-0.132 0.372,-0.384c0,-0.996 -0.024,-4.332 -0.024,-4.332c0,-0.144 0.012,-0.156 0.132,-0.156l1.26,0c0.204,0 0.312,-0.168 0.312,-0.336c0,-0.156 -0.108,-0.324 -0.312,-0.324l-1.248,0c-0.12,0 -0.144,-0.012 -0.144,-0.12c-0.012,-0.156 -0.012,-0.42 -0.012,-0.708l0,-0.372c0.036,-0.78 0.492,-1.416 1.272,-1.416l0.144,0c0.228,0 0.36,-0.156 0.36,-0.324c0,-0.324 -0.42,-0.336 -0.54,-0.336c-0.936,0 -1.896,0.708 -1.932,2.004l0,0.312c0,0.384 0.012,0.708 0.012,0.828c0,0.12 -0.036,0.132 -0.168,0.132l-0.768,0c-0.204,0 -0.312,0.168 -0.312,0.336c0,0.168 0.108,0.324 0.312,0.324l0.768,0c0.144,0 0.156,0.012 0.156,0.156c0,0 0.012,1.464 0.012,2.748c0,0.648 0,1.236 -0.012,1.584l0,0.012Z" style="fill-rule:nonzero;"/><path d="M142.95,4.381c0.228,0 0.336,-0.156 0.336,-0.312c0,-0.156 -0.108,-0.312 -0.336,-0.312l-1.068,0c-0.156,0 -0.18,0 -0.18,-0.132c0,0 0.024,-0.96 0.024,-1.308c0,-0.252 -0.168,-0.372 -0.348,-0.372c-0.168,0 -0.348,0.12 -0.348,0.348l0,0.3c0,0.42 -0.012,0.996 -0.012,1.044c0,0.108 -0.024,0.12 -0.132,0.12l-0.696,0c-0.228,0 -0.336,0.156 -0.336,0.312c0,0.156 0.108,0.312 0.336,0.312l0.708,0c0.084,0 0.12,0.024 0.12,0.144l0,0.192c0,0.588 -0.024,2.052 -0.024,2.82c0,0.528 0,1.836 1.536,1.836c0.48,0 0.768,-0.06 0.768,-0.372c0,-0.156 -0.108,-0.312 -0.288,-0.312l-0.048,0c-0.12,0.012 -0.228,0.024 -0.336,0.024c-0.936,0 -0.96,-0.636 -0.96,-1.572c0,-0.888 0.036,-2.124 0.036,-2.58c0,-0.156 0,-0.18 0.192,-0.18l1.056,0Z" style="fill-rule:nonzero;"/><path d="M1.078,1.139c0,-0.28 -0.21,-0.434 -0.42,-0.434c-0.126,0 -0.434,0.056 -0.42,0.476c0.028,0.448 0.028,1.4 0.028,2.548c0,2.282 -0.028,5.348 -0.028,6.79c0,0.322 0.196,0.476 0.406,0.476c0.028,0 0.42,0 0.42,-0.56c0,-0.574 0.014,-0.574 0.028,-0.574c0.028,0 0.07,0.056 0.154,0.168c0.56,0.672 1.386,1.008 2.212,1.008c1.82,0 3.178,-1.302 3.178,-3.332c0,-1.96 -1.358,-3.332 -3.178,-3.332c-0.952,0 -1.778,0.42 -2.268,1.078c-0.056,0.084 -0.098,0.112 -0.126,0.112c-0.028,0 -0.028,-0.056 -0.028,-0.154c0,-1.68 0.014,-3.192 0.042,-4.256l0,-0.014Zm2.352,9.142c-1.33,0 -2.38,-1.008 -2.38,-2.576c0,-1.568 1.05,-2.618 2.38,-2.618c1.33,0 2.366,1.05 2.366,2.618c0,1.568 -1.036,2.576 -2.366,2.576Z" style="fill-rule:nonzero;"/><path d="M11.368,11.079c1.862,0 3.262,-1.344 3.262,-3.36c0,-1.946 -1.4,-3.346 -3.262,-3.346c-1.862,0 -3.234,1.4 -3.234,3.346c0,2.016 1.372,3.36 3.234,3.36Zm0,-0.756c-1.344,0 -2.422,-1.036 -2.422,-2.604c0,-1.582 1.078,-2.618 2.422,-2.618c1.344,0 2.436,1.036 2.436,2.618c0,1.568 -1.092,2.604 -2.436,2.604Z" style="fill-rule:nonzero;"/><path d="M23.072,10.505c0,-0.084 -0.014,-0.154 -0.056,-0.238c-0.49,-0.896 -0.49,-0.994 -0.49,-5.404c0,-1.624 0.014,-3.094 0.042,-3.696l0,-0.028c0,-0.28 -0.21,-0.434 -0.434,-0.434c-0.14,0 -0.434,0.07 -0.42,0.448c0.014,0.602 0.028,2.492 0.028,4.172c0,0.196 -0.014,0.266 -0.028,0.266c-0.028,0 -0.084,-0.07 -0.154,-0.168c-0.504,-0.644 -1.316,-1.036 -2.212,-1.036c-1.82,0 -3.192,1.358 -3.192,3.318c0,2.03 1.372,3.346 3.192,3.346c0.924,0 1.848,-0.42 2.45,-1.316c0.056,-0.07 0.084,-0.126 0.098,-0.126c0.028,0 0.042,0.056 0.07,0.21c0.042,0.266 0.224,0.756 0.294,0.882c0.098,0.168 0.238,0.224 0.378,0.224c0.224,0 0.434,-0.182 0.434,-0.42Zm-3.696,-0.224c-1.4,0 -2.38,-0.98 -2.38,-2.576c0,-1.61 0.966,-2.59 2.38,-2.59c1.33,0 2.366,1.022 2.366,2.59c0,1.554 -1.05,2.576 -2.366,2.576Z" style="fill-rule:nonzero;"/><path d="M27.482,11.807c0.854,-2.044 2.128,-5.04 2.814,-6.72c0.028,-0.07 0.042,-0.126 0.042,-0.182c0,-0.252 -0.224,-0.406 -0.462,-0.406c-0.168,0 -0.35,0.084 -0.42,0.308c-0.014,0.056 -1.834,5.152 -2.072,5.152c-0.042,0 -0.084,-0.07 -0.14,-0.196c-0.406,-0.924 -1.624,-4.06 -1.974,-4.998c-0.07,-0.196 -0.224,-0.28 -0.392,-0.28c-0.21,0 -0.42,0.154 -0.42,0.392c0,0.056 0,0.112 0.028,0.182c0.35,0.952 1.932,4.704 2.366,5.782c0.042,0.098 0.07,0.182 0.07,0.266c0,0.056 -0.014,0.112 -0.042,0.182c-0.742,1.722 -1.232,2.492 -2.366,2.492c-0.322,0 -0.476,0.21 -0.476,0.406c0,0.21 0.154,0.42 0.448,0.42c1.54,0 2.268,-1.036 2.996,-2.8Z" style="fill-rule:nonzero;"/><circle cx="373.136" cy="25.072" r="3.944" style="fill:none;stroke:#000;stroke-width:1.5px;"/><path d="M193.297,4.991l0,-2.487l3.262,3.261l-3.262,3.262l0,-2.487l-37.67,0l0,-1.549l37.67,0Z"/><path d="M331.07,4.991l0,-2.487l3.261,3.261l-3.261,3.262l0,-2.487l-37.671,0l0,-1.549l37.671,0Z"/><path d="M103.181,26.843l240.104,0" style="fill:none;stroke:#000;stroke-width:1.5px;stroke-dasharray:1.5,4.5,1.5,3;"/><path d="M103.181,67.867l240.104,0" style="fill:none;stroke:#000;stroke-width:1.5px;stroke-dasharray:1.5,4.5,1.5,3;"/><path d="M218.023,86.239c2.856,1.491 5.861,-2.414 8.611,-2.414c2.408,0 5.521,3.776 7.93,3.776c2.72,0 5.525,-3.776 8.394,-3.776c2.703,0 6.113,3.776 8.817,3.776c3.065,0 6.574,-3.776 9.576,-3.776c2.577,0 5.859,3.776 8.435,3.776c3.137,0 7.356,-3.776 10.383,-3.776c2.358,0 5.422,3.776 7.779,3.776c2.651,0 5.338,-3.776 8.126,-3.776c2.633,0 5.695,2.815 8.564,2.414" style="fill:none;stroke:#000;stroke-width:1px;"/></svg>