<?xml version="1.0" encoding="UTF-8" standalone="no"?><!DOCTYPE svg PUBLIC "-//W3C//DTD SVG 1.1//EN" "http://www.w3.org/Graphics/SVG/1.1/DTD/svg11.dtd"><svg width="100%" height="100%" viewBox="0 0 439 110" version="1.1" xmlns="http://www.w3.org/2000/svg" xmlns:xlink="http://www.w3.org/1999/xlink" xml:space="preserve" xmlns:serif="http://www.serif.com/" style="fill-rule:evenodd;clip-rule:evenodd;stroke-linecap:round;stroke-linejoin:round;stroke-miterlimit:1.5;"><path d="M52.347,16.213l0,92.582" style="fill:none;stroke:#000;stroke-width:1.5px;"/><path d="M437.294,108.795l0,-92.582" style="fill:none;stroke:#000;stroke-width:1.5px;"/><path d="M60.337,16.213l0,92.582" style="fill:none;stroke:#000;stroke-width:1.5px;"/><path d="M429.305,108.795l0,-92.582" style="fill:none;stroke:#000;stroke-width:1.5px;"/><path d="M3.234,64.231c1.862,0 3.262,-1.344 3.262,-3.36c0,-1.946 -1.4,-3.346 -3.262,-3.346c-1.862,0 -3.234,1.4 -3.234,3.346c0,2.016 1.372,3.36 3.234,3.36Zm0,-0.756c-1.344,0 -2.422,-1.036 -2.422,-2.604c0,-1.582 1.078,-2.618 2.422,-2.618c1.344,0 2.436,1.036 2.436,2.618c0,1.568 -1.092,2.604 -2.436,2.604Z" style="fill-rule:nonzero;"/><path d="M11.214,58.407c0.266,0 0.392,-0.182 0.392,-0.364c0,-0.182 -0.126,-0.364 -0.392,-0.364l-1.246,0c-0.182,0 -0.21,0 -0.21,-0.154c0,0 0.028,-1.12 0.028,-1.526c0,-0.294 -0.196,-0.434 -0.406,-0.434c-0.196,0 -0.406,0.14 -0.406,0.406l0,0.35c0,0.49 -0.014,1.162 -0.014,1.218c0,0.126 -0.028,0.14 -0.154,0.14l-0.812,0c-0.266,0 -0.392,0.182 -0.392,0.364c0,0.182 0.126,0.364 0.392,0.364l0.826,0c0.098,0 0.14,0.028 0.14,0.168l0,0.224c0,0.686 -0.028,2.394 -0.028,3.29c0,0.616 0,2.142 1.792,2.142c0.56,0 0.896,-0.07 0.896,-0.434c0,-0.182 -0.126,-0.364 -0.336,-0.364l-0.056,0c-0.14,0.014 -0.266,0.028 -0.392,0.028c-1.092,0 -1.12,-0.742 -1.12,-1.834c0,-1.036 0.042,-2.478 0.042,-3.01c0,-0.182 0,-0.21 0.224,-0.21l1.232,0Z" style="fill-rule:nonzero;"/><path d="M18.018,63.769c0,0.252 0.21,0.392 0.42,0.392c0.196,0 0.406,-0.14 0.406,-0.42c0.014,-0.378 0.014,-0.952 0.014,-1.54c0,-0.966 -0.014,-2.002 -0.028,-2.45c-0.056,-1.526 -1.176,-2.254 -2.338,-2.254c-0.784,0 -1.582,0.322 -2.072,0.952c-0.028,0.028 -0.042,0.056 -0.056,0.056c-0.014,0 -0.028,-0.028 -0.028,-0.07c0,-0.294 0.014,-3.612 0.014,-4.13c0,-0.266 -0.21,-0.392 -0.42,-0.392c-0.21,0 -0.42,0.126 -0.42,0.35l0,0.014c0.014,0.644 0.014,2.058 0.014,3.626c0,2.226 -0.014,4.76 -0.042,5.852l0,0.014c0,0.252 0.224,0.392 0.434,0.392c0.21,0 0.406,-0.126 0.406,-0.378l0,-0.014c-0.014,-0.504 -0.014,-0.98 -0.014,-1.428c0,-0.994 0.014,-1.82 0.028,-2.254c0.042,-1.092 1.106,-1.82 2.072,-1.82c0.798,0 1.54,0.476 1.61,1.638c0.014,0.224 0.028,0.714 0.028,1.288c0,0.882 -0.014,1.974 -0.028,2.562l0,0.014Z" style="fill-rule:nonzero;"/><path d="M26.656,62.845c0,-0.224 -0.21,-0.406 -0.42,-0.406c-0.098,0 -0.196,0.042 -0.28,0.126c-0.434,0.49 -1.008,0.924 -2.03,0.924c-1.344,0 -2.352,-0.938 -2.352,-2.464c0,-0.196 0.028,-0.252 0.168,-0.252c0.308,0 1.498,0.014 2.548,0.014c0.518,0 0.994,0 1.316,-0.014c0.7,-0.014 1.022,-0.406 1.022,-0.938c0,-0.798 -0.84,-2.296 -2.758,-2.296c-1.652,0 -3.122,1.344 -3.122,3.388c0,1.974 1.386,3.304 3.164,3.304c1.764,0 2.744,-1.064 2.744,-1.386Zm-0.854,-3.15c0,0.224 -0.126,0.378 -0.462,0.392c-0.392,0.014 -1.176,0.014 -1.904,0.014c-1.624,0 -1.75,0 -1.75,-0.14c0,-0.518 0.854,-1.722 2.198,-1.722c1.428,0 1.918,1.05 1.918,1.456Z" style="fill-rule:nonzero;"/><path d="M29.512,63.769c-0.014,-0.686 -0.014,-1.344 -0.014,-1.918c0,-0.798 0,-1.442 0.014,-1.806c0.028,-1.078 1.134,-1.708 2.128,-1.708c0.28,0 0.434,-0.21 0.434,-0.406c0,-0.196 -0.14,-0.378 -0.434,-0.378c-0.168,0 -1.428,0.084 -2.044,0.938c-0.014,0.028 -0.042,0.056 -0.056,0.056c0,0 -0.014,-0.028 -0.014,-0.07c0,-0.196 0.014,-0.294 0.014,-0.504c0,-0.266 -0.21,-0.392 -0.42,-0.392c-0.21,0 -0.434,0.14 -0.434,0.364l0,0.014c0.014,0.616 0.028,1.358 0.028,2.142c0,1.204 -0.028,2.52 -0.056,3.654l0,0.014c0,0.252 0.224,0.392 0.448,0.392c0.21,0 0.406,-0.126 0.406,-0.378l0,-0.014Z" style="fill-rule:nonzero;"/><path d="M37.716,62.439c0,-0.644 -0.378,-1.302 -1.246,-1.75c-0.434,-0.224 -1.078,-0.49 -1.47,-0.672c-0.462,-0.224 -0.686,-0.574 -0.686,-0.91c0,-0.462 0.406,-0.882 1.12,-0.882c0.602,0 0.952,0.224 1.176,0.49c0.112,0.14 0.252,0.196 0.364,0.196c0.224,0 0.406,-0.182 0.406,-0.406c0,-0.378 -0.756,-0.98 -1.946,-0.98c-1.232,0 -1.904,0.784 -1.904,1.61c0,0.602 0.364,1.218 1.134,1.554c1.624,0.728 2.226,1.008 2.226,1.75c0,0.602 -0.602,1.05 -1.4,1.05c-0.686,0 -1.19,-0.266 -1.498,-0.7c-0.098,-0.126 -0.224,-0.182 -0.35,-0.182c-0.21,0 -0.42,0.168 -0.42,0.406c0,0.392 0.812,1.232 2.268,1.232c1.568,0 2.226,-1.008 2.226,-1.806Z" style="fill-rule:nonzero;"/><g transform="matrix(1,0,0,1,132.446,35.372)"><g transform="matrix(12,0,0,12,12.4388,30.0321)"><path d="M0.479,-0.098c0,-0.016 -0.015,-0.029 -0.03,-0.029c-0.007,0 -0.014,0.003 -0.02,0.009c-0.031,0.035 -0.072,0.066 -0.145,0.066c-0.096,0 -0.168,-0.067 -0.168,-0.176c0,-0.014 0.002,-0.018 0.012,-0.018c0.022,0 0.107,0.001 0.182,0.001c0.037,0 0.071,0 0.094,-0.001c0.05,-0.001 0.073,-0.029 0.073,-0.067c0,-0.057 -0.06,-0.164 -0.197,-0.164c-0.118,0 -0.223,0.096 -0.223,0.242c0,0.141 0.099,0.236 0.226,0.236c0.126,0 0.196,-0.076 0.196,-0.099Zm-0.061,-0.225c0,0.016 -0.009,0.027 -0.033,0.028c-0.028,0.001 -0.084,0.001 -0.136,0.001c-0.116,0 -0.125,0 -0.125,-0.01c0,-0.037 0.061,-0.123 0.157,-0.123c0.102,0 0.137,0.075 0.137,0.104Z" style="fill-rule:nonzero;"/></g><g transform="matrix(12,0,0,12,18.7868,30.0321)"><path d="M0.418,-0.031c0,0.018 0.015,0.028 0.03,0.028c0.015,0 0.029,-0.009 0.029,-0.029c0.001,-0.027 0.001,-0.068 0.001,-0.11c0,-0.069 -0.001,-0.143 -0.002,-0.175c-0.004,-0.106 -0.084,-0.16 -0.167,-0.16c-0.055,0 -0.112,0.024 -0.148,0.072c-0.001,0.002 -0.003,0.003 -0.004,0.003c0,0 -0.001,-0.001 -0.001,-0.004l0,-0.038c0,-0.019 -0.014,-0.027 -0.028,-0.027c-0.016,0 -0.032,0.01 -0.032,0.026l0,0.001c0.001,0.044 0.002,0.096 0.002,0.152c0,0.085 -0.002,0.178 -0.004,0.259l0,0.001c0,0.018 0.016,0.028 0.031,0.028c0.015,0 0.029,-0.009 0.029,-0.027l0,-0.001c-0.001,-0.036 -0.001,-0.069 -0.001,-0.101c0,-0.069 0.001,-0.124 0.002,-0.155c0.002,-0.08 0.081,-0.134 0.151,-0.134c0.056,0 0.107,0.034 0.112,0.115c0.001,0.016 0.002,0.051 0.002,0.092c0,0.063 -0.001,0.141 -0.002,0.183l0,0.001Z" style="fill-rule:nonzero;"/></g><g transform="matrix(12,0,0,12,25.4588,30.0321)"><path d="M0.283,-0.415c0.019,0 0.028,-0.013 0.028,-0.026c0,-0.013 -0.009,-0.026 -0.028,-0.026l-0.089,0c-0.013,0 -0.015,0 -0.015,-0.011c0,0 0.002,-0.08 0.002,-0.109c0,-0.021 -0.014,-0.031 -0.029,-0.031c-0.014,0 -0.029,0.01 -0.029,0.029l0,0.025c0,0.035 -0.001,0.083 -0.001,0.087c0,0.009 -0.002,0.01 -0.011,0.01l-0.058,0c-0.019,0 -0.028,0.013 -0.028,0.026c0,0.013 0.009,0.026 0.028,0.026l0.059,0c0.007,0 0.01,0.002 0.01,0.012l0,0.016c0,0.049 -0.002,0.171 -0.002,0.235c0,0.044 0,0.153 0.128,0.153c0.04,0 0.064,-0.005 0.064,-0.031c0,-0.013 -0.009,-0.026 -0.024,-0.026l-0.004,0c-0.01,0.001 -0.019,0.002 -0.028,0.002c-0.078,0 -0.08,-0.053 -0.08,-0.131c0,-0.074 0.003,-0.177 0.003,-0.215c0,-0.013 0,-0.015 0.016,-0.015l0.088,0Z" style="fill-rule:nonzero;"/></g><g transform="matrix(12,0,0,12,29.6708,30.0321)"><path d="M0.479,-0.098c0,-0.016 -0.015,-0.029 -0.03,-0.029c-0.007,0 -0.014,0.003 -0.02,0.009c-0.031,0.035 -0.072,0.066 -0.145,0.066c-0.096,0 -0.168,-0.067 -0.168,-0.176c0,-0.014 0.002,-0.018 0.012,-0.018c0.022,0 0.107,0.001 0.182,0.001c0.037,0 0.071,0 0.094,-0.001c0.05,-0.001 0.073,-0.029 0.073,-0.067c0,-0.057 -0.06,-0.164 -0.197,-0.164c-0.118,0 -0.223,0.096 -0.223,0.242c0,0.141 0.099,0.236 0.226,0.236c0.126,0 0.196,-0.076 0.196,-0.099Zm-0.061,-0.225c0,0.016 -0.009,0.027 -0.033,0.028c-0.028,0.001 -0.084,0.001 -0.136,0.001c-0.116,0 -0.125,0 -0.125,-0.01c0,-0.037 0.061,-0.123 0.157,-0.123c0.102,0 0.137,0.075 0.137,0.104Z" style="fill-rule:nonzero;"/></g><g transform="matrix(12,0,0,12,36.0188,30.0321)"><path d="M0.154,-0.032c-0.001,-0.049 -0.001,-0.096 -0.001,-0.137c0,-0.057 0,-0.103 0.001,-0.129c0.002,-0.077 0.081,-0.122 0.152,-0.122c0.02,0 0.031,-0.015 0.031,-0.029c0,-0.014 -0.01,-0.027 -0.031,-0.027c-0.012,0 -0.102,0.006 -0.146,0.067c-0.001,0.002 -0.003,0.004 -0.004,0.004c0,0 -0.001,-0.002 -0.001,-0.005c0,-0.014 0.001,-0.021 0.001,-0.036c0,-0.019 -0.015,-0.028 -0.03,-0.028c-0.015,0 -0.031,0.01 -0.031,0.026l0,0.001c0.001,0.044 0.002,0.097 0.002,0.153c0,0.086 -0.002,0.18 -0.004,0.261l0,0.001c0,0.018 0.016,0.028 0.032,0.028c0.015,0 0.029,-0.009 0.029,-0.027l0,-0.001Z" style="fill-rule:nonzero;"/></g><g transform="matrix(12,0,0,12,48.4388,45.0321)"><path d="M0.285,0.001c0.133,0 0.233,-0.096 0.233,-0.24c0,-0.139 -0.1,-0.239 -0.233,-0.239c-0.133,0 -0.231,0.1 -0.231,0.239c0,0.144 0.098,0.24 0.231,0.24Zm0,-0.054c-0.096,0 -0.173,-0.074 -0.173,-0.186c0,-0.113 0.077,-0.187 0.173,-0.187c0.096,0 0.174,0.074 0.174,0.187c0,0.112 -0.078,0.186 -0.174,0.186Z" style="fill-rule:nonzero;"/></g><g transform="matrix(12,0,0,12,55.3028,45.0321)"><path d="M0.418,-0.031c0,0.018 0.015,0.028 0.03,0.028c0.015,0 0.029,-0.009 0.029,-0.029c0.001,-0.027 0.001,-0.068 0.001,-0.11c0,-0.069 -0.001,-0.143 -0.002,-0.175c-0.004,-0.106 -0.084,-0.16 -0.167,-0.16c-0.055,0 -0.112,0.024 -0.148,0.072c-0.001,0.002 -0.003,0.003 -0.004,0.003c0,0 -0.001,-0.001 -0.001,-0.004l0,-0.038c0,-0.019 -0.014,-0.027 -0.028,-0.027c-0.016,0 -0.032,0.01 -0.032,0.026l0,0.001c0.001,0.044 0.002,0.096 0.002,0.152c0,0.085 -0.002,0.178 -0.004,0.259l0,0.001c0,0.018 0.016,0.028 0.031,0.028c0.015,0 0.029,-0.009 0.029,-0.027l0,-0.001c-0.001,-0.036 -0.001,-0.069 -0.001,-0.101c0,-0.069 0.001,-0.124 0.002,-0.155c0.002,-0.08 0.081,-0.134 0.151,-0.134c0.056,0 0.107,0.034 0.112,0.115c0.001,0.016 0.002,0.051 0.002,0.092c0,0.063 -0.001,0.141 -0.002,0.183l0,0.001Z" style="fill-rule:nonzero;"/></g><g transform="matrix(12,0,0,12,61.9748,45.0321)"><path d="M0.479,-0.098c0,-0.016 -0.015,-0.029 -0.03,-0.029c-0.007,0 -0.014,0.003 -0.02,0.009c-0.031,0.035 -0.072,0.066 -0.145,0.066c-0.096,0 -0.168,-0.067 -0.168,-0.176c0,-0.014 0.002,-0.018 0.012,-0.018c0.022,0 0.107,0.001 0.182,0.001c0.037,0 0.071,0 0.094,-0.001c0.05,-0.001 0.073,-0.029 0.073,-0.067c0,-0.057 -0.06,-0.164 -0.197,-0.164c-0.118,0 -0.223,0.096 -0.223,0.242c0,0.141 0.099,0.236 0.226,0.236c0.126,0 0.196,-0.076 0.196,-0.099Zm-0.061,-0.225c0,0.016 -0.009,0.027 -0.033,0.028c-0.028,0.001 -0.084,0.001 -0.136,0.001c-0.116,0 -0.125,0 -0.125,-0.01c0,-0.037 0.061,-0.123 0.157,-0.123c0.102,0 0.137,0.075 0.137,0.104Z" style="fill-rule:nonzero;"/></g><g transform="matrix(12,0,0,12,71.9228,45.0321)"><path d="M0.38,-0.084c0.002,0 0.002,0.001 0.003,0.004c0.014,0.055 0.064,0.069 0.07,0.069c0.018,0 0.03,-0.017 0.03,-0.031c0,-0.008 -0.003,-0.016 -0.011,-0.02c-0.04,-0.021 -0.056,-0.041 -0.056,-0.124c0,-0.033 0.002,-0.078 0.005,-0.111c0.001,-0.01 0.001,-0.019 0.001,-0.028c0,-0.112 -0.063,-0.153 -0.156,-0.153c-0.086,0 -0.17,0.043 -0.17,0.081c0,0.016 0.013,0.027 0.028,0.027c0.007,0 0.015,-0.003 0.021,-0.01c0.023,-0.025 0.063,-0.048 0.117,-0.048c0.081,0 0.104,0.043 0.104,0.098c0,0.005 -0.001,0.011 -0.001,0.016c0,0.007 -0.004,0.01 -0.016,0.012c-0.042,0.007 -0.123,0.022 -0.185,0.041c-0.074,0.023 -0.107,0.074 -0.107,0.124c0,0.069 0.061,0.138 0.162,0.138c0.061,0 0.128,-0.031 0.158,-0.082c0.001,-0.002 0.003,-0.003 0.003,-0.003Zm-0.162,0.032c-0.067,0 -0.107,-0.042 -0.107,-0.084c0,-0.07 0.083,-0.09 0.24,-0.115l0.003,0c0.007,0 0.01,0.003 0.01,0.011c0,0.012 -0.001,0.023 -0.001,0.034c0,0.085 -0.053,0.154 -0.145,0.154Z" style="fill-rule:nonzero;"/></g><g transform="matrix(12,0,0,12,78.1268,45.0321)"><path d="M0.283,-0.415c0.019,0 0.028,-0.013 0.028,-0.026c0,-0.013 -0.009,-0.026 -0.028,-0.026l-0.089,0c-0.013,0 -0.015,0 -0.015,-0.011c0,0 0.002,-0.08 0.002,-0.109c0,-0.021 -0.014,-0.031 -0.029,-0.031c-0.014,0 -0.029,0.01 -0.029,0.029l0,0.025c0,0.035 -0.001,0.083 -0.001,0.087c0,0.009 -0.002,0.01 -0.011,0.01l-0.058,0c-0.019,0 -0.028,0.013 -0.028,0.026c0,0.013 0.009,0.026 0.028,0.026l0.059,0c0.007,0 0.01,0.002 0.01,0.012l0,0.016c0,0.049 -0.002,0.171 -0.002,0.235c0,0.044 0,0.153 0.128,0.153c0.04,0 0.064,-0.005 0.064,-0.031c0,-0.013 -0.009,-0.026 -0.024,-0.026l-0.004,0c-0.01,0.001 -0.019,0.002 -0.028,0.002c-0.078,0 -0.08,-0.053 -0.08,-0.131c0,-0.074 0.003,-0.177 0.003,-0.215c0,-0.013 0,-0.015 0.016,-0.015l0.088,0Z" style="fill-rule:nonzero;"/></g><g transform="matrix(12,0,0,12,84.4388,60.0321)"><path d="M0.38,-0.084c0.002,0 0.002,0.001 0.003,0.004c0.014,0.055 0.064,0.069 0.07,0.069c0.018,0 0.03,-0.017 0.03,-0.031c0,-0.008 -0.003,-0.016 -0.011,-0.02c-0.04,-0.021 -0.056,-0.041 -0.056,-0.124c0,-0.033 0.002,-0.078 0.005,-0.111c0.001,-0.01 0.001,-0.019 0.001,-0.028c0,-0.112 -0.063,-0.153 -0.156,-0.153c-0.086,0 -0.17,0.043 -0.17,0.081c0,0.016 0.013,0.027 0.028,0.027c0.007,0 0.015,-0.003 0.021,-0.01c0.023,-0.025 0.063,-0.048 0.117,-0.048c0.081,0 0.104,0.043 0.104,0.098c0,0.005 -0.001,0.011 -0.001,0.016c0,0.007 -0.004,0.01 -0.016,0.012c-0.042,0.007 -0.123,0.022 -0.185,0.041c-0.074,0.023 -0.107,0.074 -0.107,0.124c0,0.069 0.061,0.138 0.162,0.138c0.061,0 0.128,-0.031 0.158,-0.082c0.001,-0.002 0.003,-0.003 0.003,-0.003Zm-0.162,0.032c-0.067,0 -0.107,-0.042 -0.107,-0.084c0,-0.07 0.083,-0.09 0.24,-0.115l0.003,0c0.007,0 0.01,0.003 0.01,0.011c0,0.012 -0.001,0.023 -0.001,0.034c0,0.085 -0.053,0.154 -0.145,0.154Z" style="fill-rule:nonzero;"/></g><g transform="matrix(12,0,0,12,94.2428,60.0321)"><path d="M0.283,-0.415c0.019,0 0.028,-0.013 0.028,-0.026c0,-0.013 -0.009,-0.026 -0.028,-0.026l-0.089,0c-0.013,0 -0.015,0 -0.015,-0.011c0,0 0.002,-0.08 0.002,-0.109c0,-0.021 -0.014,-0.031 -0.029,-0.031c-0.014,0 -0.029,0.01 -0.029,0.029l0,0.025c0,0.035 -0.001,0.083 -0.001,0.087c0,0.009 -0.002,0.01 -0.011,0.01l-0.058,0c-0.019,0 -0.028,0.013 -0.028,0.026c0,0.013 0.009,0.026 0.028,0.026l0.059,0c0.007,0 0.01,0.002 0.01,0.012l0,0.016c0,0.049 -0.002,0.171 -0.002,0.235c0,0.044 0,0.153 0.128,0.153c0.04,0 0.064,-0.005 0.064,-0.031c0,-0.013 -0.009,-0.026 -0.024,-0.026l-0.004,0c-0.01,0.001 -0.019,0.002 -0.028,0.002c-0.078,0 -0.08,-0.053 -0.08,-0.131c0,-0.074 0.003,-0.177 0.003,-0.215c0,-0.013 0,-0.015 0.016,-0.015l0.088,0Z" style="fill-rule:nonzero;"/></g><g transform="matrix(12,0,0,12,98.4548,60.0321)"><path d="M0.182,-0.697c0,-0.038 -0.034,-0.046 -0.049,-0.046c-0.02,0 -0.048,0.015 -0.048,0.046c0,0.006 0,0.049 0.047,0.049c0.025,0 0.05,-0.018 0.05,-0.049Zm-0.017,0.661c-0.001,-0.056 -0.002,-0.13 -0.002,-0.201c0,-0.086 0.001,-0.168 0.002,-0.21l0,-0.001c0,-0.018 -0.016,-0.027 -0.031,-0.027c-0.016,0 -0.032,0.01 -0.032,0.028l0,0.001c0.001,0.028 0.001,0.069 0.001,0.116c0,0.093 -0.001,0.21 -0.001,0.295c0,0.02 0.016,0.03 0.031,0.03c0.016,0 0.032,-0.01 0.032,-0.03l0,-0.001Z" style="fill-rule:nonzero;"/></g><g transform="matrix(12,0,0,12,101.659,60.0321)"><path d="M0.675,-0.032c0,0.019 0.015,0.03 0.03,0.03c0.014,0 0.029,-0.011 0.029,-0.033l0,-0.045c0,-0.078 -0.001,-0.205 -0.002,-0.247c-0.003,-0.098 -0.074,-0.15 -0.151,-0.15c-0.058,0 -0.118,0.029 -0.156,0.088c-0.02,-0.06 -0.076,-0.088 -0.134,-0.088c-0.051,0 -0.105,0.022 -0.137,0.063c-0.001,0.002 -0.002,0.003 -0.003,0.003c-0.001,0 -0.001,-0.002 -0.001,-0.006l0,-0.027c0,-0.019 -0.014,-0.028 -0.028,-0.028c-0.015,0 -0.029,0.009 -0.029,0.027l0,0.001c0.001,0.037 0.001,0.084 0.001,0.133c0,0.093 -0.001,0.198 -0.003,0.277l0,0.001c0,0.02 0.015,0.031 0.03,0.031c0.014,0 0.028,-0.01 0.028,-0.03l0,-0.001c-0.001,-0.045 -0.002,-0.12 -0.002,-0.181c0,-0.038 0,-0.071 0.001,-0.088c0.003,-0.074 0.072,-0.125 0.135,-0.125c0.049,0 0.095,0.032 0.099,0.11c0.001,0.017 0.001,0.058 0.001,0.105c0,0.064 0,0.139 -0.001,0.179l0,0.001c0,0.019 0.014,0.028 0.028,0.028c0.015,0 0.03,-0.01 0.03,-0.028l0,-0.001c-0.001,-0.052 -0.002,-0.127 -0.002,-0.188c0,-0.037 0,-0.069 0.001,-0.086c0.003,-0.068 0.073,-0.117 0.137,-0.117c0.049,0 0.095,0.03 0.099,0.107c0.001,0.017 0.001,0.058 0.001,0.105c0,0.064 0,0.139 -0.001,0.179l0,0.001Z" style="fill-rule:nonzero;"/></g><g transform="matrix(12,0,0,12,111.487,60.0321)"><path d="M0.479,-0.098c0,-0.016 -0.015,-0.029 -0.03,-0.029c-0.007,0 -0.014,0.003 -0.02,0.009c-0.031,0.035 -0.072,0.066 -0.145,0.066c-0.096,0 -0.168,-0.067 -0.168,-0.176c0,-0.014 0.002,-0.018 0.012,-0.018c0.022,0 0.107,0.001 0.182,0.001c0.037,0 0.071,0 0.094,-0.001c0.05,-0.001 0.073,-0.029 0.073,-0.067c0,-0.057 -0.06,-0.164 -0.197,-0.164c-0.118,0 -0.223,0.096 -0.223,0.242c0,0.141 0.099,0.236 0.226,0.236c0.126,0 0.196,-0.076 0.196,-0.099Zm-0.061,-0.225c0,0.016 -0.009,0.027 -0.033,0.028c-0.028,0.001 -0.084,0.001 -0.136,0.001c-0.116,0 -0.125,0 -0.125,-0.01c0,-0.037 0.061,-0.123 0.157,-0.123c0.102,0 0.137,0.075 0.137,0.104Z" style="fill-rule:nonzero;"/></g></g><g transform="matrix(1,0,0,1,353.056,35.372)"><g transform="matrix(12,0,0,12,12.4388,30.0321)"><path d="M0.373,-0.127c0,-0.046 -0.027,-0.093 -0.089,-0.125c-0.031,-0.016 -0.077,-0.035 -0.105,-0.048c-0.033,-0.016 -0.049,-0.041 -0.049,-0.065c0,-0.033 0.029,-0.063 0.08,-0.063c0.043,0 0.068,0.016 0.084,0.035c0.008,0.01 0.018,0.014 0.026,0.014c0.016,0 0.029,-0.013 0.029,-0.029c0,-0.027 -0.054,-0.07 -0.139,-0.07c-0.088,0 -0.136,0.056 -0.136,0.115c0,0.043 0.026,0.087 0.081,0.111c0.116,0.052 0.159,0.072 0.159,0.125c0,0.043 -0.043,0.075 -0.1,0.075c-0.049,0 -0.085,-0.019 -0.107,-0.05c-0.007,-0.009 -0.016,-0.013 -0.025,-0.013c-0.015,0 -0.03,0.012 -0.03,0.029c0,0.028 0.058,0.088 0.162,0.088c0.112,0 0.159,-0.072 0.159,-0.129Z" style="fill-rule:nonzero;"/></g><g transform="matrix(12,0,0,12,17.5748,30.0321)"><path d="M0.161,-0.041c-0.001,-0.071 -0.002,-0.197 -0.002,-0.321c0,-0.151 0.001,-0.3 0.002,-0.346l0,-0.001c0,-0.02 -0.015,-0.03 -0.03,-0.03c-0.016,0 -0.032,0.01 -0.032,0.032l0,0.001c0.002,0.041 0.002,0.172 0.002,0.31c0,0.137 0,0.283 -0.002,0.355l0,0.001c0,0.021 0.015,0.031 0.031,0.031c0.016,0 0.031,-0.01 0.031,-0.031l0,-0.001Z" style="fill-rule:nonzero;"/></g><g transform="matrix(12,0,0,12,20.6948,30.0321)"><path d="M0.285,0.001c0.133,0 0.233,-0.096 0.233,-0.24c0,-0.139 -0.1,-0.239 -0.233,-0.239c-0.133,0 -0.231,0.1 -0.231,0.239c0,0.144 0.098,0.24 0.231,0.24Zm0,-0.054c-0.096,0 -0.173,-0.074 -0.173,-0.186c0,-0.113 0.077,-0.187 0.173,-0.187c0.096,0 0.174,0.074 0.174,0.187c0,0.112 -0.078,0.186 -0.174,0.186Z" style="fill-rule:nonzero;"/></g><g transform="matrix(12,0,0,12,27.5588,30.0321)"><path d="M0.338,-0.4c0.003,-0.011 0.007,-0.017 0.011,-0.017c0.004,0 0.008,0.005 0.01,0.016c0.015,0.081 0.07,0.29 0.083,0.341c0.01,0.037 0.033,0.055 0.057,0.055c0.025,0 0.051,-0.019 0.062,-0.053c0.044,-0.136 0.11,-0.366 0.11,-0.388c0,-0.016 -0.016,-0.027 -0.031,-0.027c-0.012,0 -0.025,0.007 -0.028,0.023c-0.016,0.076 -0.077,0.299 -0.099,0.376c-0.003,0.009 -0.007,0.016 -0.012,0.016c-0.004,0 -0.008,-0.006 -0.011,-0.018c-0.017,-0.076 -0.073,-0.288 -0.086,-0.352c-0.006,-0.028 -0.031,-0.044 -0.056,-0.044c-0.024,0 -0.049,0.015 -0.055,0.047c-0.015,0.074 -0.068,0.276 -0.087,0.348c-0.003,0.012 -0.008,0.018 -0.013,0.018c-0.005,0 -0.009,-0.005 -0.012,-0.018c-0.017,-0.078 -0.068,-0.294 -0.087,-0.373c-0.004,-0.015 -0.016,-0.022 -0.029,-0.022c-0.015,0 -0.03,0.009 -0.03,0.025c0,0.003 0,0.005 0.001,0.007c0.02,0.088 0.073,0.287 0.095,0.379c0.009,0.038 0.035,0.057 0.06,0.057c0.026,0 0.052,-0.019 0.063,-0.058c0.018,-0.067 0.066,-0.249 0.084,-0.338Z" style="fill-rule:nonzero;"/></g><g transform="matrix(12,0,0,12,36.0308,30.0321)"><path d="M0.161,-0.041c-0.001,-0.071 -0.002,-0.197 -0.002,-0.321c0,-0.151 0.001,-0.3 0.002,-0.346l0,-0.001c0,-0.02 -0.015,-0.03 -0.03,-0.03c-0.016,0 -0.032,0.01 -0.032,0.032l0,0.001c0.002,0.041 0.002,0.172 0.002,0.31c0,0.137 0,0.283 -0.002,0.355l0,0.001c0,0.021 0.015,0.031 0.031,0.031c0.016,0 0.031,-0.01 0.031,-0.031l0,-0.001Z" style="fill-rule:nonzero;"/></g><g transform="matrix(12,0,0,12,39.1508,30.0321)"><path d="M0.255,0.053c0.061,-0.146 0.152,-0.36 0.201,-0.48c0.002,-0.005 0.003,-0.009 0.003,-0.013c0,-0.018 -0.016,-0.029 -0.033,-0.029c-0.012,0 -0.025,0.006 -0.03,0.022c-0.001,0.004 -0.131,0.368 -0.148,0.368c-0.003,0 -0.006,-0.005 -0.01,-0.014c-0.029,-0.066 -0.116,-0.29 -0.141,-0.357c-0.005,-0.014 -0.016,-0.02 -0.028,-0.02c-0.015,0 -0.03,0.011 -0.03,0.028c0,0.004 0,0.008 0.002,0.013c0.025,0.068 0.138,0.336 0.169,0.413c0.003,0.007 0.005,0.013 0.005,0.019c0,0.004 -0.001,0.008 -0.003,0.013c-0.053,0.123 -0.088,0.178 -0.169,0.178c-0.023,0 -0.034,0.015 -0.034,0.029c0,0.015 0.011,0.03 0.032,0.03c0.11,0 0.162,-0.074 0.214,-0.2Z" style="fill-rule:nonzero;"/></g><g transform="matrix(12,0,0,12,12.4388,45.0321)"><path d="M0.162,-0.709c0,-0.02 -0.015,-0.031 -0.03,-0.031c-0.009,0 -0.031,0.004 -0.03,0.034c0.002,0.032 0.002,0.1 0.002,0.182c0,0.163 -0.002,0.382 -0.002,0.485c0,0.023 0.014,0.034 0.029,0.034c0.002,0 0.03,0 0.03,-0.04c0,-0.041 0.001,-0.041 0.002,-0.041c0.002,0 0.005,0.004 0.011,0.012c0.04,0.048 0.099,0.072 0.158,0.072c0.13,0 0.227,-0.093 0.227,-0.238c0,-0.14 -0.097,-0.238 -0.227,-0.238c-0.068,0 -0.127,0.03 -0.162,0.077c-0.004,0.006 -0.007,0.008 -0.009,0.008c-0.002,0 -0.002,-0.004 -0.002,-0.011c0,-0.12 0.001,-0.228 0.003,-0.304l0,-0.001Zm0.168,0.653c-0.095,0 -0.17,-0.072 -0.17,-0.184c0,-0.112 0.075,-0.187 0.17,-0.187c0.095,0 0.169,0.075 0.169,0.187c0,0.112 -0.074,0.184 -0.169,0.184Z" style="fill-rule:nonzero;"/></g><g transform="matrix(12,0,0,12,19.7828,45.0321)"><path d="M0.479,-0.098c0,-0.016 -0.015,-0.029 -0.03,-0.029c-0.007,0 -0.014,0.003 -0.02,0.009c-0.031,0.035 -0.072,0.066 -0.145,0.066c-0.096,0 -0.168,-0.067 -0.168,-0.176c0,-0.014 0.002,-0.018 0.012,-0.018c0.022,0 0.107,0.001 0.182,0.001c0.037,0 0.071,0 0.094,-0.001c0.05,-0.001 0.073,-0.029 0.073,-0.067c0,-0.057 -0.06,-0.164 -0.197,-0.164c-0.118,0 -0.223,0.096 -0.223,0.242c0,0.141 0.099,0.236 0.226,0.236c0.126,0 0.196,-0.076 0.196,-0.099Zm-0.061,-0.225c0,0.016 -0.009,0.027 -0.033,0.028c-0.028,0.001 -0.084,0.001 -0.136,0.001c-0.116,0 -0.125,0 -0.125,-0.01c0,-0.037 0.061,-0.123 0.157,-0.123c0.102,0 0.137,0.075 0.137,0.104Z" style="fill-rule:nonzero;"/></g><g transform="matrix(12,0,0,12,26.1308,45.0321)"><path d="M0.474,-0.096c0,-0.017 -0.015,-0.031 -0.032,-0.031c-0.009,0 -0.018,0.004 -0.026,0.015c-0.027,0.038 -0.076,0.057 -0.126,0.057c-0.113,0 -0.175,-0.092 -0.175,-0.186c0,-0.107 0.073,-0.188 0.171,-0.188c0.043,0 0.086,0.016 0.112,0.049c0.008,0.01 0.017,0.014 0.026,0.014c0.015,0 0.029,-0.013 0.029,-0.03c0,-0.03 -0.066,-0.085 -0.167,-0.085c-0.136,0 -0.23,0.112 -0.23,0.245c0,0.119 0.081,0.236 0.235,0.236c0.108,0 0.183,-0.067 0.183,-0.096Z" style="fill-rule:nonzero;"/></g><g transform="matrix(12,0,0,12,32.2628,45.0321)"><path d="M0.285,0.001c0.133,0 0.233,-0.096 0.233,-0.24c0,-0.139 -0.1,-0.239 -0.233,-0.239c-0.133,0 -0.231,0.1 -0.231,0.239c0,0.144 0.098,0.24 0.231,0.24Zm0,-0.054c-0.096,0 -0.173,-0.074 -0.173,-0.186c0,-0.113 0.077,-0.187 0.173,-0.187c0.096,0 0.174,0.074 0.174,0.187c0,0.112 -0.078,0.186 -0.174,0.186Z" style="fill-rule:nonzero;"/></g><g transform="matrix(12,0,0,12,39.1268,45.0321)"><path d="M0.675,-0.032c0,0.019 0.015,0.03 0.03,0.03c0.014,0 0.029,-0.011 0.029,-0.033l0,-0.045c0,-0.078 -0.001,-0.205 -0.002,-0.247c-0.003,-0.098 -0.074,-0.15 -0.151,-0.15c-0.058,0 -0.118,0.029 -0.156,0.088c-0.02,-0.06 -0.076,-0.088 -0.134,-0.088c-0.051,0 -0.105,0.022 -0.137,0.063c-0.001,0.002 -0.002,0.003 -0.003,0.003c-0.001,0 -0.001,-0.002 -0.001,-0.006l0,-0.027c0,-0.019 -0.014,-0.028 -0.028,-0.028c-0.015,0 -0.029,0.009 -0.029,0.027l0,0.001c0.001,0.037 0.001,0.084 0.001,0.133c0,0.093 -0.001,0.198 -0.003,0.277l0,0.001c0,0.02 0.015,0.031 0.03,0.031c0.014,0 0.028,-0.01 0.028,-0.03l0,-0.001c-0.001,-0.045 -0.002,-0.12 -0.002,-0.181c0,-0.038 0,-0.071 0.001,-0.088c0.003,-0.074 0.072,-0.125 0.135,-0.125c0.049,0 0.095,0.032 0.099,0.11c0.001,0.017 0.001,0.058 0.001,0.105c0,0.064 0,0.139 -0.001,0.179l0,0.001c0,0.019 0.014,0.028 0.028,0.028c0.015,0 0.03,-0.01 0.03,-0.028l0,-0.001c-0.001,-0.052 -0.002,-0.127 -0.002,-0.188c0,-0.037 0,-0.069 0.001,-0.086c0.003,-0.068 0.073,-0.117 0.137,-0.117c0.049,0 0.095,0.03 0.099,0.107c0.001,0.017 0.001,0.058 0.001,0.105c0,0.064 0,0.139 -0.001,0.179l0,0.001Z" style="fill-rule:nonzero;"/></g><g transform="matrix(12,0,0,12,48.9548,45.0321)"><path d="M0.479,-0.098c0,-0.016 -0.015,-0.029 -0.03,-0.029c-0.007,0 -0.014,0.003 -0.02,0.009c-0.031,0.035 -0.072,0.066 -0.145,0.066c-0.096,0 -0.168,-0.067 -0.168,-0.176c0,-0.014 0.002,-0.018 0.012,-0.018c0.022,0 0.107,0.001 0.182,0.001c0.037,0 0.071,0 0.094,-0.001c0.05,-0.001 0.073,-0.029 0.073,-0.067c0,-0.057 -0.06,-0.164 -0.197,-0.164c-0.118,0 -0.223,0.096 -0.223,0.242c0,0.141 0.099,0.236 0.226,0.236c0.126,0 0.196,-0.076 0.196,-0.099Zm-0.061,-0.225c0,0.016 -0.009,0.027 -0.033,0.028c-0.028,0.001 -0.084,0.001 -0.136,0.001c-0.116,0 -0.125,0 -0.125,-0.01c0,-0.037 0.061,-0.123 0.157,-0.123c0.102,0 0.137,0.075 0.137,0.104Z" style="fill-rule:nonzero;"/></g><g transform="matrix(12,0,0,12,12.4388,60.0321)"><path d="M0.255,0.053c0.061,-0.146 0.152,-0.36 0.201,-0.48c0.002,-0.005 0.003,-0.009 0.003,-0.013c0,-0.018 -0.016,-0.029 -0.033,-0.029c-0.012,0 -0.025,0.006 -0.03,0.022c-0.001,0.004 -0.131,0.368 -0.148,0.368c-0.003,0 -0.006,-0.005 -0.01,-0.014c-0.029,-0.066 -0.116,-0.29 -0.141,-0.357c-0.005,-0.014 -0.016,-0.02 -0.028,-0.02c-0.015,0 -0.03,0.011 -0.03,0.028c0,0.004 0,0.008 0.002,0.013c0.025,0.068 0.138,0.336 0.169,0.413c0.003,0.007 0.005,0.013 0.005,0.019c0,0.004 -0.001,0.008 -0.003,0.013c-0.053,0.123 -0.088,0.178 -0.169,0.178c-0.023,0 -0.034,0.015 -0.034,0.029c0,0.015 0.011,0.03 0.032,0.03c0.11,0 0.162,-0.074 0.214,-0.2Z" style="fill-rule:nonzero;"/></g><g transform="matrix(12,0,0,12,18.3548,60.0321)"><path d="M0.285,0.001c0.133,0 0.233,-0.096 0.233,-0.24c0,-0.139 -0.1,-0.239 -0.233,-0.239c-0.133,0 -0.231,0.1 -0.231,0.239c0,0.144 0.098,0.24 0.231,0.24Zm0,-0.054c-0.096,0 -0.173,-0.074 -0.173,-0.186c0,-0.113 0.077,-0.187 0.173,-0.187c0.096,0 0.174,0.074 0.174,0.187c0,0.112 -0.078,0.186 -0.174,0.186Z" style="fill-rule:nonzero;"/></g><g transform="matrix(12,0,0,12,25.2188,60.0321)"><path d="M0.471,-0.445c0,-0.018 -0.016,-0.028 -0.031,-0.028c-0.015,0 -0.029,0.009 -0.029,0.027l0,0.001c0.001,0.053 0.002,0.105 0.002,0.158c0,0.034 -0.001,0.068 -0.002,0.102c-0.002,0.082 -0.078,0.135 -0.148,0.135c-0.056,0 -0.108,-0.034 -0.113,-0.116c-0.001,-0.016 -0.002,-0.051 -0.002,-0.093c0,-0.065 0.001,-0.144 0.002,-0.186l0,-0.001c0,-0.018 -0.015,-0.028 -0.03,-0.028c-0.015,0 -0.029,0.009 -0.029,0.029c-0.001,0.021 -0.001,0.05 -0.001,0.081c0,0.076 0.002,0.169 0.003,0.205c0.003,0.11 0.083,0.16 0.166,0.16c0.063,0 0.127,-0.028 0.161,-0.08c0.001,-0.002 0.002,-0.002 0.003,-0.002c0.001,0 0.001,0.001 0.002,0.005c0.002,0.017 0.016,0.07 0.049,0.07c0.016,0 0.031,-0.012 0.031,-0.028c0,-0.006 -0.002,-0.013 -0.007,-0.02c-0.026,-0.037 -0.03,-0.083 -0.03,-0.147c0,-0.084 0.001,-0.166 0.003,-0.243l0,-0.001Z" style="fill-rule:nonzero;"/></g><g transform="matrix(12,0,0,12,31.8668,60.0321)"><path d="M0.154,-0.032c-0.001,-0.049 -0.001,-0.096 -0.001,-0.137c0,-0.057 0,-0.103 0.001,-0.129c0.002,-0.077 0.081,-0.122 0.152,-0.122c0.02,0 0.031,-0.015 0.031,-0.029c0,-0.014 -0.01,-0.027 -0.031,-0.027c-0.012,0 -0.102,0.006 -0.146,0.067c-0.001,0.002 -0.003,0.004 -0.004,0.004c0,0 -0.001,-0.002 -0.001,-0.005c0,-0.014 0.001,-0.021 0.001,-0.036c0,-0.019 -0.015,-0.028 -0.03,-0.028c-0.015,0 -0.031,0.01 -0.031,0.026l0,0.001c0.001,0.044 0.002,0.097 0.002,0.153c0,0.086 -0.002,0.18 -0.004,0.261l0,0.001c0,0.018 0.016,0.028 0.032,0.028c0.015,0 0.029,-0.009 0.029,-0.027l0,-0.001Z" style="fill-rule:nonzero;"/></g><g transform="matrix(12,0,0,12,39.8708,60.0321)"><path d="M0.154,-0.032c-0.001,-0.049 -0.001,-0.096 -0.001,-0.137c0,-0.057 0,-0.103 0.001,-0.129c0.002,-0.077 0.081,-0.122 0.152,-0.122c0.02,0 0.031,-0.015 0.031,-0.029c0,-0.014 -0.01,-0.027 -0.031,-0.027c-0.012,0 -0.102,0.006 -0.146,0.067c-0.001,0.002 -0.003,0.004 -0.004,0.004c0,0 -0.001,-0.002 -0.001,-0.005c0,-0.014 0.001,-0.021 0.001,-0.036c0,-0.019 -0.015,-0.028 -0.03,-0.028c-0.015,0 -0.031,0.01 -0.031,0.026l0,0.001c0.001,0.044 0.002,0.097 0.002,0.153c0,0.086 -0.002,0.18 -0.004,0.261l0,0.001c0,0.018 0.016,0.028 0.032,0.028c0.015,0 0.029,-0.009 0.029,-0.027l0,-0.001Z" style="fill-rule:nonzero;"/></g><g transform="matrix(12,0,0,12,44.2748,60.0321)"><path d="M0.285,0.001c0.133,0 0.233,-0.096 0.233,-0.24c0,-0.139 -0.1,-0.239 -0.233,-0.239c-0.133,0 -0.231,0.1 -0.231,0.239c0,0.144 0.098,0.24 0.231,0.24Zm0,-0.054c-0.096,0 -0.173,-0.074 -0.173,-0.186c0,-0.113 0.077,-0.187 0.173,-0.187c0.096,0 0.174,0.074 0.174,0.187c0,0.112 -0.078,0.186 -0.174,0.186Z" style="fill-rule:nonzero;"/></g><g transform="matrix(12,0,0,12,51.1388,60.0321)"><path d="M0.161,-0.041c-0.001,-0.071 -0.002,-0.197 -0.002,-0.321c0,-0.151 0.001,-0.3 0.002,-0.346l0,-0.001c0,-0.02 -0.015,-0.03 -0.03,-0.03c-0.016,0 -0.032,0.01 -0.032,0.032l0,0.001c0.002,0.041 0.002,0.172 0.002,0.31c0,0.137 0,0.283 -0.002,0.355l0,0.001c0,0.021 0.015,0.031 0.031,0.031c0.016,0 0.031,-0.01 0.031,-0.031l0,-0.001Z" style="fill-rule:nonzero;"/></g><g transform="matrix(12,0,0,12,54.2588,60.0321)"><path d="M0.479,-0.098c0,-0.016 -0.015,-0.029 -0.03,-0.029c-0.007,0 -0.014,0.003 -0.02,0.009c-0.031,0.035 -0.072,0.066 -0.145,0.066c-0.096,0 -0.168,-0.067 -0.168,-0.176c0,-0.014 0.002,-0.018 0.012,-0.018c0.022,0 0.107,0.001 0.182,0.001c0.037,0 0.071,0 0.094,-0.001c0.05,-0.001 0.073,-0.029 0.073,-0.067c0,-0.057 -0.06,-0.164 -0.197,-0.164c-0.118,0 -0.223,0.096 -0.223,0.242c0,0.141 0.099,0.236 0.226,0.236c0.126,0 0.196,-0.076 0.196,-0.099Zm-0.061,-0.225c0,0.016 -0.009,0.027 -0.033,0.028c-0.028,0.001 -0.084,0.001 -0.136,0.001c-0.116,0 -0.125,0 -0.125,-0.01c0,-0.037 0.061,-0.123 0.157,-0.123c0.102,0 0.137,0.075 0.137,0.104Z" style="fill-rule:nonzero;"/></g></g><path d="M80.453,24.462c0,-0.552 -0.324,-1.116 -1.068,-1.5c-0.372,-0.192 -0.924,-0.42 -1.26,-0.576c-0.396,-0.192 -0.588,-0.492 -0.588,-0.78c0,-0.396 0.348,-0.756 0.96,-0.756c0.516,0 0.816,0.192 1.008,0.42c0.096,0.12 0.216,0.168 0.312,0.168c0.192,0 0.348,-0.156 0.348,-0.348c0,-0.324 -0.648,-0.84 -1.668,-0.84c-1.056,0 -1.632,0.672 -1.632,1.38c0,0.516 0.312,1.044 0.972,1.332c1.392,0.624 1.908,0.864 1.908,1.5c0,0.516 -0.516,0.9 -1.2,0.9c-0.588,0 -1.02,-0.228 -1.284,-0.6c-0.084,-0.108 -0.192,-0.156 -0.3,-0.156c-0.18,0 -0.36,0.144 -0.36,0.348c0,0.336 0.696,1.056 1.944,1.056c1.344,0 1.908,-0.864 1.908,-1.548Z" style="fill-rule:nonzero;"/><path d="M83.045,25.494c-0.012,-0.852 -0.024,-2.364 -0.024,-3.852c0,-1.812 0.012,-3.6 0.024,-4.152l0,-0.012c0,-0.24 -0.18,-0.36 -0.36,-0.36c-0.192,0 -0.384,0.12 -0.384,0.384l0,0.012c0.024,0.492 0.024,2.064 0.024,3.72c0,1.644 0,3.396 -0.024,4.26l0,0.012c0,0.252 0.18,0.372 0.372,0.372c0.192,0 0.372,-0.12 0.372,-0.372l0,-0.012Z" style="fill-rule:nonzero;"/><path d="M87.653,25.998c1.596,0 2.796,-1.152 2.796,-2.88c0,-1.668 -1.2,-2.868 -2.796,-2.868c-1.596,0 -2.772,1.2 -2.772,2.868c0,1.728 1.176,2.88 2.772,2.88Zm0,-0.648c-1.152,0 -2.076,-0.888 -2.076,-2.232c0,-1.356 0.924,-2.244 2.076,-2.244c1.152,0 2.088,0.888 2.088,2.244c0,1.344 -0.936,2.232 -2.088,2.232Z" style="fill-rule:nonzero;"/><path d="M95.153,21.186c0.036,-0.132 0.084,-0.204 0.132,-0.204c0.048,0 0.096,0.06 0.12,0.192c0.18,0.972 0.84,3.48 0.996,4.092c0.12,0.444 0.396,0.66 0.684,0.66c0.3,0 0.612,-0.228 0.744,-0.636c0.528,-1.632 1.32,-4.392 1.32,-4.656c0,-0.192 -0.192,-0.324 -0.372,-0.324c-0.144,0 -0.3,0.084 -0.336,0.276c-0.192,0.912 -0.924,3.588 -1.188,4.512c-0.036,0.108 -0.084,0.192 -0.144,0.192c-0.048,0 -0.096,-0.072 -0.132,-0.216c-0.204,-0.912 -0.876,-3.456 -1.032,-4.224c-0.072,-0.336 -0.372,-0.528 -0.672,-0.528c-0.288,0 -0.588,0.18 -0.66,0.564c-0.18,0.888 -0.816,3.312 -1.044,4.176c-0.036,0.144 -0.096,0.216 -0.156,0.216c-0.06,0 -0.108,-0.06 -0.144,-0.216c-0.204,-0.936 -0.816,-3.528 -1.044,-4.476c-0.048,-0.18 -0.192,-0.264 -0.348,-0.264c-0.18,0 -0.36,0.108 -0.36,0.3c0,0.036 0,0.06 0.012,0.084c0.24,1.056 0.876,3.444 1.14,4.548c0.108,0.456 0.42,0.684 0.72,0.684c0.312,0 0.624,-0.228 0.756,-0.696c0.216,-0.804 0.792,-2.988 1.008,-4.056Z" style="fill-rule:nonzero;"/><path d="M107.645,24.462c0,-0.552 -0.324,-1.116 -1.068,-1.5c-0.372,-0.192 -0.924,-0.42 -1.26,-0.576c-0.396,-0.192 -0.588,-0.492 -0.588,-0.78c0,-0.396 0.348,-0.756 0.96,-0.756c0.516,0 0.816,0.192 1.008,0.42c0.096,0.12 0.216,0.168 0.312,0.168c0.192,0 0.348,-0.156 0.348,-0.348c0,-0.324 -0.648,-0.84 -1.668,-0.84c-1.056,0 -1.632,0.672 -1.632,1.38c0,0.516 0.312,1.044 0.972,1.332c1.392,0.624 1.908,0.864 1.908,1.5c0,0.516 -0.516,0.9 -1.2,0.9c-0.588,0 -1.02,-0.228 -1.284,-0.6c-0.084,-0.108 -0.192,-0.156 -0.3,-0.156c-0.18,0 -0.36,0.144 -0.36,0.348c0,0.336 0.696,1.056 1.944,1.056c1.344,0 1.908,-0.864 1.908,-1.548Z" style="fill-rule:nonzero;"/><path d="M111.725,25.998c1.596,0 2.796,-1.152 2.796,-2.88c0,-1.668 -1.2,-2.868 -2.796,-2.868c-1.596,0 -2.772,1.2 -2.772,2.868c0,1.728 1.176,2.88 2.772,2.88Zm0,-0.648c-1.152,0 -2.076,-0.888 -2.076,-2.232c0,-1.356 0.924,-2.244 2.076,-2.244c1.152,0 2.088,0.888 2.088,2.244c0,1.344 -0.936,2.232 -2.088,2.232Z" style="fill-rule:nonzero;"/><path d="M117.101,25.494c-0.012,-0.852 -0.024,-2.364 -0.024,-3.852c0,-1.812 0.012,-3.6 0.024,-4.152l0,-0.012c0,-0.24 -0.18,-0.36 -0.36,-0.36c-0.192,0 -0.384,0.12 -0.384,0.384l0,0.012c0.024,0.492 0.024,2.064 0.024,3.72c0,1.644 0,3.396 -0.024,4.26l0,0.012c0,0.252 0.18,0.372 0.372,0.372c0.192,0 0.372,-0.12 0.372,-0.372l0,-0.012Z" style="fill-rule:nonzero;"/><path d="M121.709,25.998c1.596,0 2.796,-1.152 2.796,-2.88c0,-1.668 -1.2,-2.868 -2.796,-2.868c-1.596,0 -2.772,1.2 -2.772,2.868c0,1.728 1.176,2.88 2.772,2.88Zm0,-0.648c-1.152,0 -2.076,-0.888 -2.076,-2.232c0,-1.356 0.924,-2.244 2.076,-2.244c1.152,0 2.088,0.888 2.088,2.244c0,1.344 -0.936,2.232 -2.088,2.232Z" style="fill-rule:nonzero;"/><path d="M78.877,7.45c2.2,0 2.29,-2.54 2.29,-3.7c0,-0.43 -0.03,-0.87 -0.07,-1.32c-0.15,-1.59 -1.02,-2.43 -2.22,-2.43c-1.21,0 -2.1,0.89 -2.23,2.54c-0.03,0.38 -0.05,0.75 -0.05,1.12c0,0.45 0.03,0.9 0.07,1.36c0.15,1.59 1.02,2.43 2.21,2.43Zm0,-0.56c-1.42,0 -1.66,-1.63 -1.66,-3.21c0,-0.38 0.02,-0.76 0.05,-1.13c0.11,-1.21 0.7,-1.99 1.61,-1.99c0.9,0 1.49,0.74 1.6,1.94c0.04,0.37 0.06,0.77 0.06,1.17c0,0.86 -0.01,3.22 -1.66,3.22Z" style="fill-rule:nonzero;"/><path d="M84.407,2.06c0.05,-0.38 0.07,-1.38 0.07,-1.66c0,-0.23 -0.17,-0.35 -0.33,-0.35c-0.19,0 -0.32,0.14 -0.31,0.36c0.02,0.48 0.03,1.3 0.07,1.65c0.02,0.15 0.13,0.21 0.24,0.21c0.12,0 0.24,-0.07 0.26,-0.21Zm-1.37,0c0.06,-0.44 0.07,-1.63 0.07,-1.66c0,-0.23 -0.16,-0.35 -0.32,-0.35c-0.02,0 -0.32,0.02 -0.31,0.36c0.02,0.48 0.03,1.3 0.07,1.65c0.02,0.15 0.13,0.21 0.24,0.21c0.12,0 0.23,-0.07 0.25,-0.21Z" style="fill-rule:nonzero;"/><path d="M149.547,7.32c0.23,0 0.36,-0.16 0.36,-0.32c0,-0.16 -0.12,-0.31 -0.37,-0.31c-0.79,0 -2.2,0.05 -3.19,0.05c-0.07,0 -0.13,-0.03 -0.13,-0.08c0,-0.01 0.01,-0.03 0.02,-0.04c0.92,-1.06 2.02,-1.93 2.88,-3c0.53,-0.66 0.75,-1.28 0.75,-1.81c0,-0.94 -0.75,-1.78 -2,-1.78c-1.52,0 -2.13,1.18 -2.13,1.5c0,0.2 0.16,0.32 0.32,0.32c0.12,0 0.25,-0.07 0.31,-0.25c0.25,-0.72 0.89,-1.01 1.47,-1.01c0.66,0 1.36,0.36 1.36,1.25c0,0.45 -0.19,0.97 -0.63,1.49c-0.91,1.09 -2.11,2.17 -2.86,3.04c-0.15,0.17 -0.22,0.35 -0.22,0.5c0,0.26 0.2,0.45 0.56,0.45l0.02,0c0.31,-0.01 1.03,-0.01 1.74,-0.01c0.72,0 1.43,0 1.73,0.01l0.01,0Z" style="fill-rule:nonzero;"/><path d="M153.627,7.45c2.2,0 2.29,-2.54 2.29,-3.7c0,-0.43 -0.03,-0.87 -0.07,-1.32c-0.15,-1.59 -1.02,-2.43 -2.22,-2.43c-1.21,0 -2.1,0.89 -2.23,2.54c-0.03,0.38 -0.05,0.75 -0.05,1.12c0,0.45 0.03,0.9 0.07,1.36c0.15,1.59 1.02,2.43 2.21,2.43Zm0,-0.56c-1.42,0 -1.66,-1.63 -1.66,-3.21c0,-0.38 0.02,-0.76 0.05,-1.13c0.11,-1.21 0.7,-1.99 1.61,-1.99c0.9,0 1.49,0.74 1.6,1.94c0.04,0.37 0.06,0.77 0.06,1.17c0,0.86 -0.01,3.22 -1.66,3.22Z" style="fill-rule:nonzero;"/><path d="M159.157,2.06c0.05,-0.38 0.07,-1.38 0.07,-1.66c0,-0.23 -0.17,-0.35 -0.33,-0.35c-0.19,0 -0.32,0.14 -0.31,0.36c0.02,0.48 0.03,1.3 0.07,1.65c0.02,0.15 0.13,0.21 0.24,0.21c0.12,0 0.24,-0.07 0.26,-0.21Zm-1.37,0c0.06,-0.44 0.07,-1.63 0.07,-1.66c0,-0.23 -0.16,-0.35 -0.32,-0.35c-0.02,0 -0.32,0.02 -0.31,0.36c0.02,0.48 0.03,1.3 0.07,1.65c0.02,0.15 0.13,0.21 0.24,0.21c0.12,0 0.23,-0.07 0.25,-0.21Z" style="fill-rule:nonzero;"/><path d="M368.875,7.1c-0.01,-0.48 -0.01,-1 -0.01,-1.52c0,-1.43 0.02,-2.91 0.02,-3.86c0,-0.34 0,-0.62 -0.01,-0.79c-0.02,-0.53 -0.35,-0.81 -0.92,-0.81c-0.21,0 -0.29,0 -0.49,0.01c-0.21,0.01 -0.32,0.18 -0.32,0.33c0,0.15 0.11,0.3 0.32,0.3l0.03,0c0.09,-0.01 0.16,-0.01 0.23,-0.01c0.4,0 0.5,0.12 0.52,0.5c0.01,0.16 0.01,0.53 0.01,1.03c0,1.42 -0.03,3.83 -0.04,4.84l0,0.01c0,0.2 0.16,0.3 0.32,0.3c0.17,0 0.34,-0.11 0.34,-0.32l0,-0.01Z" style="fill-rule:nonzero;"/><path d="M373.925,2.06c0.05,-0.38 0.07,-1.38 0.07,-1.66c0,-0.23 -0.17,-0.35 -0.33,-0.35c-0.19,0 -0.32,0.14 -0.31,0.36c0.02,0.48 0.03,1.3 0.07,1.65c0.02,0.15 0.13,0.21 0.24,0.21c0.12,0 0.24,-0.07 0.26,-0.21Zm-1.37,0c0.06,-0.44 0.07,-1.63 0.07,-1.66c0,-0.23 -0.16,-0.35 -0.32,-0.35c-0.02,0 -0.32,0.02 -0.31,0.36c0.02,0.48 0.03,1.3 0.07,1.65c0.02,0.15 0.13,0.21 0.24,0.21c0.12,0 0.23,-0.07 0.25,-0.21Z" style="fill-rule:nonzero;"/><path d="M377.605,7.45c2.2,0 2.29,-2.54 2.29,-3.7c0,-0.43 -0.03,-0.87 -0.07,-1.32c-0.15,-1.59 -1.02,-2.43 -2.22,-2.43c-1.21,0 -2.1,0.89 -2.23,2.54c-0.03,0.38 -0.05,0.75 -0.05,1.12c0,0.45 0.03,0.9 0.07,1.36c0.15,1.59 1.02,2.43 2.21,2.43Zm0,-0.56c-1.42,0 -1.66,-1.63 -1.66,-3.21c0,-0.38 0.02,-0.76 0.05,-1.13c0.11,-1.21 0.7,-1.99 1.61,-1.99c0.9,0 1.49,0.74 1.6,1.94c0.04,0.37 0.06,0.77 0.06,1.17c0,0.86 -0.01,3.22 -1.66,3.22Z" style="fill-rule:nonzero;"/><path d="M383.395,7.45c2.2,0 2.29,-2.54 2.29,-3.7c0,-0.43 -0.03,-0.87 -0.07,-1.32c-0.15,-1.59 -1.02,-2.43 -2.22,-2.43c-1.21,0 -2.1,0.89 -2.23,2.54c-0.03,0.38 -0.05,0.75 -0.05,1.12c0,0.45 0.03,0.9 0.07,1.36c0.15,1.59 1.02,2.43 2.21,2.43Zm0,-0.56c-1.42,0 -1.66,-1.63 -1.66,-3.21c0,-0.38 0.02,-0.76 0.05,-1.13c0.11,-1.21 0.7,-1.99 1.61,-1.99c0.9,0 1.49,0.74 1.6,1.94c0.04,0.37 0.06,0.77 0.06,1.17c0,0.86 -0.01,3.22 -1.66,3.22Z" style="fill-rule:nonzero;"/><path d="M388.925,2.06c0.05,-0.38 0.07,-1.38 0.07,-1.66c0,-0.23 -0.17,-0.35 -0.33,-0.35c-0.19,0 -0.32,0.14 -0.31,0.36c0.02,0.48 0.03,1.3 0.07,1.65c0.02,0.15 0.13,0.21 0.24,0.21c0.12,0 0.24,-0.07 0.26,-0.21Zm-1.37,0c0.06,-0.44 0.07,-1.63 0.07,-1.66c0,-0.23 -0.16,-0.35 -0.32,-0.35c-0.02,0 -0.32,0.02 -0.31,0.36c0.02,0.48 0.03,1.3 0.07,1.65c0.02,0.15 0.13,0.21 0.24,0.21c0.12,0 0.23,-0.07 0.25,-0.21Z" style="fill-rule:nonzero;"/><path d="M6.93,25.968c0,-0.084 -0.014,-0.154 -0.056,-0.238c-0.49,-0.896 -0.49,-0.994 -0.49,-5.404c0,-1.624 0.014,-3.094 0.042,-3.696l0,-0.028c0,-0.28 -0.21,-0.434 -0.434,-0.434c-0.14,0 -0.434,0.07 -0.42,0.448c0.014,0.602 0.028,2.492 0.028,4.172c0,0.196 -0.014,0.266 -0.028,0.266c-0.028,0 -0.084,-0.07 -0.154,-0.168c-0.504,-0.644 -1.316,-1.036 -2.212,-1.036c-1.82,0 -3.192,1.358 -3.192,3.318c0,2.03 1.372,3.346 3.192,3.346c0.924,0 1.848,-0.42 2.45,-1.316c0.056,-0.07 0.084,-0.126 0.098,-0.126c0.028,0 0.042,0.056 0.07,0.21c0.042,0.266 0.224,0.756 0.294,0.882c0.098,0.168 0.238,0.224 0.378,0.224c0.224,0 0.434,-0.182 0.434,-0.42Zm-3.696,-0.224c-1.4,0 -2.38,-0.98 -2.38,-2.576c0,-1.61 0.966,-2.59 2.38,-2.59c1.33,0 2.366,1.022 2.366,2.59c0,1.554 -1.05,2.576 -2.366,2.576Z" style="fill-rule:nonzero;"/><path d="M9.926,26.08c-0.014,-0.686 -0.014,-1.344 -0.014,-1.918c0,-0.798 0,-1.442 0.014,-1.806c0.028,-1.078 1.134,-1.708 2.128,-1.708c0.28,0 0.434,-0.21 0.434,-0.406c0,-0.196 -0.14,-0.378 -0.434,-0.378c-0.168,0 -1.428,0.084 -2.044,0.938c-0.014,0.028 -0.042,0.056 -0.056,0.056c0,0 -0.014,-0.028 -0.014,-0.07c0,-0.196 0.014,-0.294 0.014,-0.504c0,-0.266 -0.21,-0.392 -0.42,-0.392c-0.21,0 -0.434,0.14 -0.434,0.364l0,0.014c0.014,0.616 0.028,1.358 0.028,2.142c0,1.204 -0.028,2.52 -0.056,3.654l0,0.014c0,0.252 0.224,0.392 0.448,0.392c0.21,0 0.406,-0.126 0.406,-0.378l0,-0.014Z" style="fill-rule:nonzero;"/><path d="M16.968,25.884c0.644,-1.512 2.114,-5.264 2.114,-5.544c0,-0.238 -0.238,-0.392 -0.462,-0.392c-0.154,0 -0.308,0.084 -0.378,0.28c-0.308,0.938 -1.484,4.13 -1.82,5.012c-0.056,0.14 -0.126,0.238 -0.196,0.238c-0.056,0 -0.126,-0.084 -0.182,-0.266c-0.322,-0.952 -1.652,-4.452 -1.82,-4.97c-0.07,-0.224 -0.252,-0.322 -0.434,-0.322c-0.196,0 -0.392,0.14 -0.392,0.392c0,0.14 0,0.154 2.114,5.572c0.154,0.378 0.434,0.574 0.714,0.574c0.294,0 0.588,-0.21 0.742,-0.574Z" style="fill-rule:nonzero;"/><path d="M258.221,61.652l0,-2.487l3.261,3.262l-3.261,3.261l0,-2.486l-71.691,0l0,-1.55l71.691,0Z"/><path d="M304.704,77.492l0,-2.487l3.261,3.262l-3.261,3.261l0,-2.487l-71.691,0l0,-1.549l71.691,0Z"/><path d="M342.18,92.454l0,-2.487l3.261,3.262l-3.261,3.261l0,-2.486l-71.691,0l0,-1.55l71.691,0Z"/><path d="M75.977,42.306l334.376,0" style="fill:none;stroke:#000;stroke-width:1.5px;stroke-dasharray:1.5,4.5,1.5,3;"/></svg>